G04 #@! TF.FileFunction,Legend,Bot*
%FSLAX46Y46*%
G04 Gerber Fmt 4.6, Leading zero omitted, Abs format (unit mm)*
G04 Created by KiCad (PCBNEW 4.0.5+dfsg1-4) date Sat Apr 15 00:30:14 2017*
%MOMM*%
%LPD*%
G01*
G04 APERTURE LIST*
%ADD10C,0.100000*%
%ADD11C,0.150000*%
%ADD12C,0.120000*%
G04 APERTURE END LIST*
D10*
D11*
X77851000Y-91440000D02*
G75*
G03X77851000Y-91440000I-381000J0D01*
G01*
D12*
X91790000Y-88935000D02*
X91090000Y-88935000D01*
X91090000Y-90135000D02*
X91790000Y-90135000D01*
D11*
X73112381Y-91948095D02*
X73921905Y-91948095D01*
X74017143Y-91995714D01*
X74064762Y-92043333D01*
X74112381Y-92138571D01*
X74112381Y-92329048D01*
X74064762Y-92424286D01*
X74017143Y-92471905D01*
X73921905Y-92519524D01*
X73112381Y-92519524D01*
X74112381Y-93519524D02*
X74112381Y-92948095D01*
X74112381Y-93233809D02*
X73112381Y-93233809D01*
X73255238Y-93138571D01*
X73350476Y-93043333D01*
X73398095Y-92948095D01*
X85891666Y-88622143D02*
X85939285Y-88669762D01*
X86082142Y-88717381D01*
X86177380Y-88717381D01*
X86320238Y-88669762D01*
X86415476Y-88574524D01*
X86463095Y-88479286D01*
X86510714Y-88288810D01*
X86510714Y-88145952D01*
X86463095Y-87955476D01*
X86415476Y-87860238D01*
X86320238Y-87765000D01*
X86177380Y-87717381D01*
X86082142Y-87717381D01*
X85939285Y-87765000D01*
X85891666Y-87812619D01*
X84939285Y-88717381D02*
X85510714Y-88717381D01*
X85225000Y-88717381D02*
X85225000Y-87717381D01*
X85320238Y-87860238D01*
X85415476Y-87955476D01*
X85510714Y-88003095D01*
X100496666Y-105767143D02*
X100544285Y-105814762D01*
X100687142Y-105862381D01*
X100782380Y-105862381D01*
X100925238Y-105814762D01*
X101020476Y-105719524D01*
X101068095Y-105624286D01*
X101115714Y-105433810D01*
X101115714Y-105290952D01*
X101068095Y-105100476D01*
X101020476Y-105005238D01*
X100925238Y-104910000D01*
X100782380Y-104862381D01*
X100687142Y-104862381D01*
X100544285Y-104910000D01*
X100496666Y-104957619D01*
X100115714Y-104957619D02*
X100068095Y-104910000D01*
X99972857Y-104862381D01*
X99734761Y-104862381D01*
X99639523Y-104910000D01*
X99591904Y-104957619D01*
X99544285Y-105052857D01*
X99544285Y-105148095D01*
X99591904Y-105290952D01*
X100163333Y-105862381D01*
X99544285Y-105862381D01*
X87352143Y-120483334D02*
X87399762Y-120435715D01*
X87447381Y-120292858D01*
X87447381Y-120197620D01*
X87399762Y-120054762D01*
X87304524Y-119959524D01*
X87209286Y-119911905D01*
X87018810Y-119864286D01*
X86875952Y-119864286D01*
X86685476Y-119911905D01*
X86590238Y-119959524D01*
X86495000Y-120054762D01*
X86447381Y-120197620D01*
X86447381Y-120292858D01*
X86495000Y-120435715D01*
X86542619Y-120483334D01*
X86447381Y-120816667D02*
X86447381Y-121435715D01*
X86828333Y-121102381D01*
X86828333Y-121245239D01*
X86875952Y-121340477D01*
X86923571Y-121388096D01*
X87018810Y-121435715D01*
X87256905Y-121435715D01*
X87352143Y-121388096D01*
X87399762Y-121340477D01*
X87447381Y-121245239D01*
X87447381Y-120959524D01*
X87399762Y-120864286D01*
X87352143Y-120816667D01*
X85447143Y-120483334D02*
X85494762Y-120435715D01*
X85542381Y-120292858D01*
X85542381Y-120197620D01*
X85494762Y-120054762D01*
X85399524Y-119959524D01*
X85304286Y-119911905D01*
X85113810Y-119864286D01*
X84970952Y-119864286D01*
X84780476Y-119911905D01*
X84685238Y-119959524D01*
X84590000Y-120054762D01*
X84542381Y-120197620D01*
X84542381Y-120292858D01*
X84590000Y-120435715D01*
X84637619Y-120483334D01*
X84875714Y-121340477D02*
X85542381Y-121340477D01*
X84494762Y-121102381D02*
X85209048Y-120864286D01*
X85209048Y-121483334D01*
X82907143Y-120483334D02*
X82954762Y-120435715D01*
X83002381Y-120292858D01*
X83002381Y-120197620D01*
X82954762Y-120054762D01*
X82859524Y-119959524D01*
X82764286Y-119911905D01*
X82573810Y-119864286D01*
X82430952Y-119864286D01*
X82240476Y-119911905D01*
X82145238Y-119959524D01*
X82050000Y-120054762D01*
X82002381Y-120197620D01*
X82002381Y-120292858D01*
X82050000Y-120435715D01*
X82097619Y-120483334D01*
X82002381Y-121388096D02*
X82002381Y-120911905D01*
X82478571Y-120864286D01*
X82430952Y-120911905D01*
X82383333Y-121007143D01*
X82383333Y-121245239D01*
X82430952Y-121340477D01*
X82478571Y-121388096D01*
X82573810Y-121435715D01*
X82811905Y-121435715D01*
X82907143Y-121388096D01*
X82954762Y-121340477D01*
X83002381Y-121245239D01*
X83002381Y-121007143D01*
X82954762Y-120911905D01*
X82907143Y-120864286D01*
X78462143Y-120483334D02*
X78509762Y-120435715D01*
X78557381Y-120292858D01*
X78557381Y-120197620D01*
X78509762Y-120054762D01*
X78414524Y-119959524D01*
X78319286Y-119911905D01*
X78128810Y-119864286D01*
X77985952Y-119864286D01*
X77795476Y-119911905D01*
X77700238Y-119959524D01*
X77605000Y-120054762D01*
X77557381Y-120197620D01*
X77557381Y-120292858D01*
X77605000Y-120435715D01*
X77652619Y-120483334D01*
X77557381Y-121340477D02*
X77557381Y-121150000D01*
X77605000Y-121054762D01*
X77652619Y-121007143D01*
X77795476Y-120911905D01*
X77985952Y-120864286D01*
X78366905Y-120864286D01*
X78462143Y-120911905D01*
X78509762Y-120959524D01*
X78557381Y-121054762D01*
X78557381Y-121245239D01*
X78509762Y-121340477D01*
X78462143Y-121388096D01*
X78366905Y-121435715D01*
X78128810Y-121435715D01*
X78033571Y-121388096D01*
X77985952Y-121340477D01*
X77938333Y-121245239D01*
X77938333Y-121054762D01*
X77985952Y-120959524D01*
X78033571Y-120911905D01*
X78128810Y-120864286D01*
X75096666Y-117197143D02*
X75144285Y-117244762D01*
X75287142Y-117292381D01*
X75382380Y-117292381D01*
X75525238Y-117244762D01*
X75620476Y-117149524D01*
X75668095Y-117054286D01*
X75715714Y-116863810D01*
X75715714Y-116720952D01*
X75668095Y-116530476D01*
X75620476Y-116435238D01*
X75525238Y-116340000D01*
X75382380Y-116292381D01*
X75287142Y-116292381D01*
X75144285Y-116340000D01*
X75096666Y-116387619D01*
X74763333Y-116292381D02*
X74096666Y-116292381D01*
X74525238Y-117292381D01*
X72112143Y-104608334D02*
X72159762Y-104560715D01*
X72207381Y-104417858D01*
X72207381Y-104322620D01*
X72159762Y-104179762D01*
X72064524Y-104084524D01*
X71969286Y-104036905D01*
X71778810Y-103989286D01*
X71635952Y-103989286D01*
X71445476Y-104036905D01*
X71350238Y-104084524D01*
X71255000Y-104179762D01*
X71207381Y-104322620D01*
X71207381Y-104417858D01*
X71255000Y-104560715D01*
X71302619Y-104608334D01*
X71635952Y-105179762D02*
X71588333Y-105084524D01*
X71540714Y-105036905D01*
X71445476Y-104989286D01*
X71397857Y-104989286D01*
X71302619Y-105036905D01*
X71255000Y-105084524D01*
X71207381Y-105179762D01*
X71207381Y-105370239D01*
X71255000Y-105465477D01*
X71302619Y-105513096D01*
X71397857Y-105560715D01*
X71445476Y-105560715D01*
X71540714Y-105513096D01*
X71588333Y-105465477D01*
X71635952Y-105370239D01*
X71635952Y-105179762D01*
X71683571Y-105084524D01*
X71731190Y-105036905D01*
X71826429Y-104989286D01*
X72016905Y-104989286D01*
X72112143Y-105036905D01*
X72159762Y-105084524D01*
X72207381Y-105179762D01*
X72207381Y-105370239D01*
X72159762Y-105465477D01*
X72112143Y-105513096D01*
X72016905Y-105560715D01*
X71826429Y-105560715D01*
X71731190Y-105513096D01*
X71683571Y-105465477D01*
X71635952Y-105370239D01*
X92082857Y-88392143D02*
X92130476Y-88439762D01*
X92273333Y-88487381D01*
X92368571Y-88487381D01*
X92511429Y-88439762D01*
X92606667Y-88344524D01*
X92654286Y-88249286D01*
X92701905Y-88058810D01*
X92701905Y-87915952D01*
X92654286Y-87725476D01*
X92606667Y-87630238D01*
X92511429Y-87535000D01*
X92368571Y-87487381D01*
X92273333Y-87487381D01*
X92130476Y-87535000D01*
X92082857Y-87582619D01*
X91130476Y-88487381D02*
X91701905Y-88487381D01*
X91416191Y-88487381D02*
X91416191Y-87487381D01*
X91511429Y-87630238D01*
X91606667Y-87725476D01*
X91701905Y-87773095D01*
X90749524Y-87582619D02*
X90701905Y-87535000D01*
X90606667Y-87487381D01*
X90368571Y-87487381D01*
X90273333Y-87535000D01*
X90225714Y-87582619D01*
X90178095Y-87677857D01*
X90178095Y-87773095D01*
X90225714Y-87915952D01*
X90797143Y-88487381D01*
X90178095Y-88487381D01*
X81732381Y-120483334D02*
X81256190Y-120150000D01*
X81732381Y-119911905D02*
X80732381Y-119911905D01*
X80732381Y-120292858D01*
X80780000Y-120388096D01*
X80827619Y-120435715D01*
X80922857Y-120483334D01*
X81065714Y-120483334D01*
X81160952Y-120435715D01*
X81208571Y-120388096D01*
X81256190Y-120292858D01*
X81256190Y-119911905D01*
X81732381Y-121435715D02*
X81732381Y-120864286D01*
X81732381Y-121150000D02*
X80732381Y-121150000D01*
X80875238Y-121054762D01*
X80970476Y-120959524D01*
X81018095Y-120864286D01*
X84272381Y-120483334D02*
X83796190Y-120150000D01*
X84272381Y-119911905D02*
X83272381Y-119911905D01*
X83272381Y-120292858D01*
X83320000Y-120388096D01*
X83367619Y-120435715D01*
X83462857Y-120483334D01*
X83605714Y-120483334D01*
X83700952Y-120435715D01*
X83748571Y-120388096D01*
X83796190Y-120292858D01*
X83796190Y-119911905D01*
X83367619Y-120864286D02*
X83320000Y-120911905D01*
X83272381Y-121007143D01*
X83272381Y-121245239D01*
X83320000Y-121340477D01*
X83367619Y-121388096D01*
X83462857Y-121435715D01*
X83558095Y-121435715D01*
X83700952Y-121388096D01*
X84272381Y-120816667D01*
X84272381Y-121435715D01*
M02*
