G04 #@! TF.FileFunction,Copper,L1,Top,Signal*
%FSLAX46Y46*%
G04 Gerber Fmt 4.6, Leading zero omitted, Abs format (unit mm)*
G04 Created by KiCad (PCBNEW 4.0.5+dfsg1-4) date Sat Apr 15 00:30:14 2017*
%MOMM*%
%LPD*%
G01*
G04 APERTURE LIST*
%ADD10C,0.100000*%
%ADD11C,0.254000*%
%ADD12R,1.100000X0.250000*%
%ADD13R,1.700000X1.700000*%
%ADD14O,1.700000X1.700000*%
%ADD15R,0.600000X0.500000*%
%ADD16R,0.750000X0.800000*%
%ADD17R,0.400000X0.600000*%
%ADD18R,0.600000X0.400000*%
%ADD19R,1.500000X1.500000*%
%ADD20C,0.863600*%
%ADD21C,0.685800*%
%ADD22C,0.152400*%
G04 APERTURE END LIST*
D10*
D11*
X52880381Y-124949857D02*
X52832000Y-124901476D01*
X52783619Y-124804714D01*
X52783619Y-124562810D01*
X52832000Y-124466048D01*
X52880381Y-124417667D01*
X52977143Y-124369286D01*
X53073905Y-124369286D01*
X53219048Y-124417667D01*
X53799619Y-124998238D01*
X53799619Y-124369286D01*
X52783619Y-123740333D02*
X52783619Y-123643572D01*
X52832000Y-123546810D01*
X52880381Y-123498429D01*
X52977143Y-123450048D01*
X53170667Y-123401667D01*
X53412571Y-123401667D01*
X53606095Y-123450048D01*
X53702857Y-123498429D01*
X53751238Y-123546810D01*
X53799619Y-123643572D01*
X53799619Y-123740333D01*
X53751238Y-123837095D01*
X53702857Y-123885476D01*
X53606095Y-123933857D01*
X53412571Y-123982238D01*
X53170667Y-123982238D01*
X52977143Y-123933857D01*
X52880381Y-123885476D01*
X52832000Y-123837095D01*
X52783619Y-123740333D01*
X53799619Y-122434048D02*
X53799619Y-123014619D01*
X53799619Y-122724333D02*
X52783619Y-122724333D01*
X52928762Y-122821095D01*
X53025524Y-122917857D01*
X53073905Y-123014619D01*
X52783619Y-122095381D02*
X52783619Y-121418048D01*
X53799619Y-121853476D01*
X53412571Y-121031000D02*
X53412571Y-120256905D01*
X52783619Y-119579571D02*
X52783619Y-119482810D01*
X52832000Y-119386048D01*
X52880381Y-119337667D01*
X52977143Y-119289286D01*
X53170667Y-119240905D01*
X53412571Y-119240905D01*
X53606095Y-119289286D01*
X53702857Y-119337667D01*
X53751238Y-119386048D01*
X53799619Y-119482810D01*
X53799619Y-119579571D01*
X53751238Y-119676333D01*
X53702857Y-119724714D01*
X53606095Y-119773095D01*
X53412571Y-119821476D01*
X53170667Y-119821476D01*
X52977143Y-119773095D01*
X52880381Y-119724714D01*
X52832000Y-119676333D01*
X52783619Y-119579571D01*
X53122286Y-118370048D02*
X53799619Y-118370048D01*
X52735238Y-118611952D02*
X53460952Y-118853857D01*
X53460952Y-118224905D01*
X53412571Y-117837857D02*
X53412571Y-117063762D01*
X53799619Y-116047762D02*
X53799619Y-116628333D01*
X53799619Y-116338047D02*
X52783619Y-116338047D01*
X52928762Y-116434809D01*
X53025524Y-116531571D01*
X53073905Y-116628333D01*
X53122286Y-115176905D02*
X53799619Y-115176905D01*
X52735238Y-115418809D02*
X53460952Y-115660714D01*
X53460952Y-115031762D01*
D12*
X96060000Y-70250000D03*
X96060000Y-69750000D03*
X96060000Y-69250000D03*
X96060000Y-68750000D03*
X96060000Y-68250000D03*
X96060000Y-67750000D03*
X96060000Y-67250000D03*
X96060000Y-66750000D03*
X96060000Y-66250000D03*
X96060000Y-65750000D03*
X96060000Y-65250000D03*
X96060000Y-64750000D03*
X96060000Y-64250000D03*
X96060000Y-63750000D03*
X96060000Y-63250000D03*
X96060000Y-62750000D03*
X96060000Y-62250000D03*
X96060000Y-61750000D03*
X96060000Y-61250000D03*
X96060000Y-60750000D03*
X96060000Y-60250000D03*
X96060000Y-59750000D03*
X96060000Y-59250000D03*
X96060000Y-58750000D03*
X96060000Y-58250000D03*
X96060000Y-57750000D03*
X96060000Y-57250000D03*
X96060000Y-56750000D03*
X76660000Y-56750000D03*
X76660000Y-57250000D03*
X76660000Y-57750000D03*
X76660000Y-58250000D03*
X76660000Y-58750000D03*
X76660000Y-59250000D03*
X76660000Y-59750000D03*
X76660000Y-60250000D03*
X76660000Y-60750000D03*
X76660000Y-61250000D03*
X76660000Y-61750000D03*
X76660000Y-62250000D03*
X76660000Y-62750000D03*
X76660000Y-63250000D03*
X76660000Y-63750000D03*
X76660000Y-64250000D03*
X76660000Y-64750000D03*
X76660000Y-65250000D03*
X76660000Y-65750000D03*
X76660000Y-66250000D03*
X76660000Y-66750000D03*
X76660000Y-67250000D03*
X76660000Y-67750000D03*
X76660000Y-68250000D03*
X76660000Y-68750000D03*
X76660000Y-69250000D03*
X76660000Y-69750000D03*
X76660000Y-70250000D03*
D13*
X53975000Y-63500000D03*
D14*
X56515000Y-63500000D03*
X53975000Y-66040000D03*
X56515000Y-66040000D03*
X53975000Y-68580000D03*
X56515000Y-68580000D03*
X53975000Y-71120000D03*
X56515000Y-71120000D03*
X53975000Y-73660000D03*
X56515000Y-73660000D03*
X53975000Y-76200000D03*
X56515000Y-76200000D03*
X53975000Y-78740000D03*
X56515000Y-78740000D03*
X53975000Y-81280000D03*
X56515000Y-81280000D03*
X53975000Y-83820000D03*
X56515000Y-83820000D03*
X53975000Y-86360000D03*
X56515000Y-86360000D03*
X53975000Y-88900000D03*
X56515000Y-88900000D03*
X53975000Y-91440000D03*
X56515000Y-91440000D03*
X53975000Y-93980000D03*
X56515000Y-93980000D03*
X53975000Y-96520000D03*
X56515000Y-96520000D03*
X53975000Y-99060000D03*
X56515000Y-99060000D03*
X53975000Y-101600000D03*
X56515000Y-101600000D03*
X53975000Y-104140000D03*
X56515000Y-104140000D03*
X53975000Y-106680000D03*
X56515000Y-106680000D03*
X53975000Y-109220000D03*
X56515000Y-109220000D03*
X53975000Y-111760000D03*
X56515000Y-111760000D03*
D15*
X74718000Y-64262000D03*
X73618000Y-64262000D03*
X74845000Y-55245000D03*
X73745000Y-55245000D03*
D16*
X71755000Y-58940000D03*
X71755000Y-60440000D03*
D13*
X104140000Y-60960000D03*
D14*
X106680000Y-60960000D03*
X104140000Y-63500000D03*
X106680000Y-63500000D03*
X104140000Y-66040000D03*
X106680000Y-66040000D03*
X104140000Y-68580000D03*
X106680000Y-68580000D03*
X104140000Y-71120000D03*
X106680000Y-71120000D03*
X104140000Y-73660000D03*
X106680000Y-73660000D03*
X104140000Y-76200000D03*
X106680000Y-76200000D03*
X104140000Y-78740000D03*
X106680000Y-78740000D03*
X104140000Y-81280000D03*
X106680000Y-81280000D03*
X104140000Y-83820000D03*
X106680000Y-83820000D03*
X104140000Y-86360000D03*
X106680000Y-86360000D03*
X104140000Y-88900000D03*
X106680000Y-88900000D03*
X104140000Y-91440000D03*
X106680000Y-91440000D03*
X104140000Y-93980000D03*
X106680000Y-93980000D03*
X104140000Y-96520000D03*
X106680000Y-96520000D03*
X104140000Y-99060000D03*
X106680000Y-99060000D03*
X104140000Y-101600000D03*
X106680000Y-101600000D03*
X104140000Y-104140000D03*
X106680000Y-104140000D03*
X104140000Y-106680000D03*
X106680000Y-106680000D03*
X104140000Y-109220000D03*
X106680000Y-109220000D03*
X104140000Y-111760000D03*
X106680000Y-111760000D03*
X104140000Y-114300000D03*
X106680000Y-114300000D03*
D13*
X113030000Y-63500000D03*
D14*
X115570000Y-63500000D03*
X113030000Y-66040000D03*
X115570000Y-66040000D03*
X113030000Y-68580000D03*
X115570000Y-68580000D03*
X113030000Y-71120000D03*
X115570000Y-71120000D03*
X113030000Y-73660000D03*
X115570000Y-73660000D03*
X113030000Y-76200000D03*
X115570000Y-76200000D03*
X113030000Y-78740000D03*
X115570000Y-78740000D03*
X113030000Y-81280000D03*
X115570000Y-81280000D03*
X113030000Y-83820000D03*
X115570000Y-83820000D03*
X113030000Y-86360000D03*
X115570000Y-86360000D03*
X113030000Y-88900000D03*
X115570000Y-88900000D03*
X113030000Y-91440000D03*
X115570000Y-91440000D03*
X113030000Y-93980000D03*
X115570000Y-93980000D03*
X113030000Y-96520000D03*
X115570000Y-96520000D03*
X113030000Y-99060000D03*
X115570000Y-99060000D03*
X113030000Y-101600000D03*
X115570000Y-101600000D03*
X113030000Y-104140000D03*
X115570000Y-104140000D03*
X113030000Y-106680000D03*
X115570000Y-106680000D03*
X113030000Y-109220000D03*
X115570000Y-109220000D03*
X113030000Y-111760000D03*
X115570000Y-111760000D03*
D13*
X121920000Y-63500000D03*
D14*
X124460000Y-63500000D03*
X121920000Y-66040000D03*
X124460000Y-66040000D03*
X121920000Y-68580000D03*
X124460000Y-68580000D03*
X121920000Y-71120000D03*
X124460000Y-71120000D03*
X121920000Y-73660000D03*
X124460000Y-73660000D03*
X121920000Y-76200000D03*
X124460000Y-76200000D03*
X121920000Y-78740000D03*
X124460000Y-78740000D03*
X121920000Y-81280000D03*
X124460000Y-81280000D03*
X121920000Y-83820000D03*
X124460000Y-83820000D03*
X121920000Y-86360000D03*
X124460000Y-86360000D03*
X121920000Y-88900000D03*
X124460000Y-88900000D03*
X121920000Y-91440000D03*
X124460000Y-91440000D03*
X121920000Y-93980000D03*
X124460000Y-93980000D03*
X121920000Y-96520000D03*
X124460000Y-96520000D03*
X121920000Y-99060000D03*
X124460000Y-99060000D03*
X121920000Y-101600000D03*
X124460000Y-101600000D03*
X121920000Y-104140000D03*
X124460000Y-104140000D03*
X121920000Y-106680000D03*
X124460000Y-106680000D03*
X121920000Y-109220000D03*
X124460000Y-109220000D03*
X121920000Y-111760000D03*
X124460000Y-111760000D03*
D13*
X62865000Y-63500000D03*
D14*
X65405000Y-63500000D03*
X62865000Y-66040000D03*
X65405000Y-66040000D03*
X62865000Y-68580000D03*
X65405000Y-68580000D03*
X62865000Y-71120000D03*
X65405000Y-71120000D03*
X62865000Y-73660000D03*
X65405000Y-73660000D03*
X62865000Y-76200000D03*
X65405000Y-76200000D03*
X62865000Y-78740000D03*
X65405000Y-78740000D03*
X62865000Y-81280000D03*
X65405000Y-81280000D03*
X62865000Y-83820000D03*
X65405000Y-83820000D03*
X62865000Y-86360000D03*
X65405000Y-86360000D03*
X62865000Y-88900000D03*
X65405000Y-88900000D03*
X62865000Y-91440000D03*
X65405000Y-91440000D03*
X62865000Y-93980000D03*
X65405000Y-93980000D03*
X62865000Y-96520000D03*
X65405000Y-96520000D03*
X62865000Y-99060000D03*
X65405000Y-99060000D03*
X62865000Y-101600000D03*
X65405000Y-101600000D03*
X62865000Y-104140000D03*
X65405000Y-104140000D03*
X62865000Y-106680000D03*
X65405000Y-106680000D03*
X62865000Y-109220000D03*
X65405000Y-109220000D03*
X62865000Y-111760000D03*
X65405000Y-111760000D03*
D17*
X99510000Y-62230000D03*
X98610000Y-62230000D03*
D18*
X74930000Y-57335000D03*
X74930000Y-58235000D03*
D17*
X99510000Y-63500000D03*
X98610000Y-63500000D03*
X73395000Y-68580000D03*
X74295000Y-68580000D03*
X99510000Y-64770000D03*
X98610000Y-64770000D03*
X119195000Y-88900000D03*
X118295000Y-88900000D03*
D19*
X80645000Y-123190000D03*
X83185000Y-123190000D03*
X85725000Y-123190000D03*
X81280000Y-111760000D03*
X90805000Y-123190000D03*
X88265000Y-123190000D03*
X86360000Y-111760000D03*
X72390000Y-104775000D03*
X78740000Y-101600000D03*
X69850000Y-101600000D03*
X72390000Y-99695000D03*
X72390000Y-95250000D03*
X72390000Y-92710000D03*
X79375000Y-88900000D03*
X78740000Y-109220000D03*
X69850000Y-109220000D03*
X72390000Y-107315000D03*
X78740000Y-104140000D03*
X93345000Y-123190000D03*
X91440000Y-111760000D03*
X88900000Y-111760000D03*
X83820000Y-111760000D03*
X69850000Y-104140000D03*
X72390000Y-102235000D03*
X78740000Y-99060000D03*
X69850000Y-99060000D03*
X78740000Y-95250000D03*
X78740000Y-92710000D03*
X76835000Y-88900000D03*
X69850000Y-111760000D03*
X72390000Y-109855000D03*
X78740000Y-106680000D03*
X69850000Y-106680000D03*
D20*
X69850000Y-59055000D03*
X74295000Y-53975000D03*
X98425000Y-54610000D03*
X100584000Y-63449189D03*
X100584000Y-64770000D03*
X100584000Y-62230000D03*
X90727086Y-95337608D03*
X93328497Y-88864071D03*
X70189974Y-62144026D03*
X77371504Y-54134960D03*
X68684705Y-66548000D03*
X95433000Y-104465000D03*
X87020410Y-120015000D03*
X84353901Y-119521400D03*
X81593601Y-119761419D03*
X72494332Y-71123951D03*
X72481052Y-64457201D03*
X78840254Y-57386160D03*
X72211264Y-55455082D03*
X85372457Y-113739932D03*
X78105000Y-120015000D03*
X73025000Y-115570000D03*
X79756000Y-83185000D03*
X79756000Y-81915000D03*
X79756000Y-80645000D03*
X79783385Y-72723984D03*
X99774002Y-110807348D03*
X72548457Y-113967413D03*
X68218476Y-100433335D03*
X95720063Y-102772393D03*
X94742000Y-96520000D03*
X85090000Y-94615000D03*
X80645000Y-94615000D03*
X92386264Y-120885543D03*
X100766737Y-105994622D03*
X73660000Y-80645000D03*
X74930000Y-80645000D03*
X76200000Y-80645000D03*
X95250000Y-80010000D03*
X93980000Y-80010000D03*
X93980000Y-81280000D03*
X92710000Y-82550000D03*
X92710000Y-81280000D03*
X92710000Y-80010000D03*
X91440000Y-80010000D03*
X91440000Y-81280000D03*
X91440000Y-82550000D03*
X90170000Y-82550000D03*
X90170000Y-81280000D03*
X90170000Y-80010000D03*
X88900000Y-80010000D03*
X88900000Y-81280000D03*
X88900000Y-82550000D03*
X87630000Y-82550000D03*
X87630000Y-81280000D03*
X87630000Y-80010000D03*
X86360000Y-80010000D03*
X86360000Y-81280000D03*
X86360000Y-82550000D03*
X76200000Y-83185000D03*
X74930000Y-83185000D03*
X73660000Y-83185000D03*
X72390000Y-83185000D03*
X71120000Y-83185000D03*
X72390000Y-81915000D03*
X73660000Y-81915000D03*
X74930000Y-81915000D03*
X76200000Y-81915000D03*
X79633951Y-68868175D03*
X89864654Y-87955701D03*
X70358000Y-71120000D03*
X76200000Y-72644000D03*
X123952000Y-124206000D03*
X72754736Y-60198000D03*
X84455000Y-88265000D03*
X67945000Y-105410000D03*
D21*
X102870000Y-57150000D03*
X105629586Y-56598219D03*
X108253603Y-56890776D03*
X109031735Y-58064177D03*
X109982000Y-58635687D03*
X110744000Y-59182000D03*
X110555415Y-64152229D03*
X110464292Y-66483643D03*
X110821664Y-98323718D03*
X110462538Y-99081100D03*
X110174282Y-99909207D03*
X111622104Y-100043074D03*
X111760000Y-64770000D03*
X110234925Y-103334915D03*
X110647464Y-68009682D03*
X91948000Y-69088000D03*
X109355128Y-77254106D03*
X110491343Y-70612000D03*
X110138972Y-79416045D03*
X110491341Y-74074887D03*
X110531868Y-82641239D03*
X110372409Y-84914363D03*
X110490000Y-109220000D03*
X109552805Y-85090000D03*
X109722931Y-82113346D03*
X109728000Y-111760000D03*
X110590176Y-76455117D03*
X109245390Y-93726000D03*
X110540940Y-91114984D03*
X110491343Y-96266000D03*
X82326838Y-64262476D03*
X67564000Y-67310000D03*
X68326000Y-62484000D03*
X78994000Y-58928000D03*
X56134000Y-60960000D03*
X70564946Y-66184171D03*
X84177063Y-65592010D03*
X69719187Y-69850000D03*
X56841604Y-61596559D03*
X79735684Y-60306422D03*
X74618914Y-66916704D03*
X84283921Y-66741556D03*
X74544164Y-72390000D03*
X57766577Y-61368343D03*
X78516603Y-61480869D03*
X84336877Y-68432346D03*
X75476680Y-68290234D03*
X74676000Y-74422000D03*
X58661407Y-60994225D03*
X78858508Y-62678490D03*
X61193768Y-76633413D03*
X64262000Y-54510725D03*
X91502396Y-54095375D03*
X91940180Y-62207266D03*
X78738098Y-63903131D03*
X58017446Y-58679947D03*
X59471486Y-83837907D03*
X62842191Y-54705904D03*
X59463267Y-60155286D03*
X79527711Y-64767581D03*
X59479724Y-86385856D03*
X62513522Y-55669002D03*
X80662454Y-66040000D03*
X59587420Y-59148596D03*
X59571795Y-88945435D03*
X64054565Y-53698586D03*
X93743802Y-54543780D03*
X93554648Y-64008000D03*
X64116410Y-122576182D03*
X80264000Y-120142000D03*
X80967265Y-67564000D03*
X61409269Y-59878373D03*
X62871866Y-121256965D03*
X79557073Y-121657165D03*
X81164127Y-60233433D03*
X68527609Y-75423605D03*
X74088247Y-60249794D03*
X61552649Y-122551291D03*
X78409596Y-123235710D03*
X82144848Y-61128214D03*
X68834000Y-79248000D03*
X74167782Y-61392805D03*
X60283213Y-121269411D03*
X80645000Y-121285000D03*
X82807087Y-62088714D03*
X69598747Y-81582341D03*
X74983074Y-62231574D03*
X59020909Y-122544010D03*
X83185000Y-120015000D03*
X82063966Y-63074490D03*
X71788897Y-62393706D03*
X69088000Y-83566000D03*
X96283500Y-85998244D03*
X92202000Y-70612000D03*
X97471111Y-85133939D03*
X92964000Y-69850000D03*
X102235000Y-116205000D03*
X114299743Y-115572810D03*
X102235000Y-117432561D03*
X115567775Y-115549108D03*
X100965000Y-117475000D03*
X115570000Y-116840000D03*
X101142822Y-118752032D03*
X116847662Y-116852695D03*
X99695000Y-118745000D03*
X116835810Y-118156282D03*
X99695000Y-120015000D03*
X118103844Y-118097028D03*
X98425000Y-120015000D03*
X118103844Y-119365063D03*
X98425000Y-121285000D03*
X119380000Y-119380000D03*
X95885000Y-119380000D03*
X96408708Y-122690929D03*
X95504000Y-124649553D03*
X90678000Y-124954364D03*
X89154000Y-125222000D03*
X68949136Y-94998128D03*
X67056000Y-94996000D03*
X84582000Y-124968000D03*
X76708000Y-90424000D03*
X77925075Y-90984925D03*
X93892158Y-120758238D03*
X91440000Y-120015000D03*
X91268402Y-113450563D03*
X88265000Y-121285000D03*
X89270082Y-113468729D03*
X87980258Y-113438452D03*
X85128597Y-109823859D03*
X85725000Y-120650000D03*
X81280000Y-113665000D03*
X78272649Y-111416152D03*
X76835000Y-111760000D03*
X76835000Y-110693203D03*
X76835000Y-109855000D03*
X76834945Y-108814544D03*
X76833727Y-107976333D03*
X76853272Y-107138349D03*
X77144214Y-106208447D03*
X76955702Y-105233381D03*
X76936434Y-104395391D03*
X76955583Y-102968122D03*
X77362696Y-102121585D03*
X77349772Y-101100570D03*
X76866450Y-100271030D03*
X77323923Y-99304101D03*
X76871575Y-98438178D03*
X77470000Y-97155000D03*
X73025000Y-97155000D03*
X76200000Y-93980000D03*
X74930000Y-93345000D03*
D11*
X65405000Y-63500000D02*
X65405000Y-62891698D01*
X65405000Y-62891698D02*
X64129837Y-61616535D01*
X64129837Y-61616535D02*
X61057766Y-61616535D01*
X61057766Y-61616535D02*
X59174301Y-63500000D01*
X59174301Y-63500000D02*
X56515000Y-63500000D01*
X71755000Y-58940000D02*
X69965000Y-58940000D01*
X69965000Y-58940000D02*
X69850000Y-59055000D01*
X76660000Y-56750000D02*
X76660000Y-55997705D01*
X74930000Y-57335000D02*
X74930000Y-56361793D01*
X74845000Y-56276793D02*
X74845000Y-55245000D01*
X74930000Y-56361793D02*
X74845000Y-56276793D01*
X74845000Y-55245000D02*
X74845000Y-54525000D01*
X74845000Y-54525000D02*
X74295000Y-53975000D01*
X74845000Y-55245000D02*
X75907295Y-55245000D01*
X75907295Y-55245000D02*
X76660000Y-55997705D01*
X76660000Y-55997705D02*
X76660000Y-56743999D01*
X102362000Y-51854099D02*
X98425000Y-51854099D01*
X98425000Y-51854099D02*
X79652365Y-51854099D01*
X98425000Y-54610000D02*
X98425000Y-51854099D01*
X100533189Y-63500000D02*
X100584000Y-63449189D01*
X99510000Y-63500000D02*
X100533189Y-63500000D01*
X99510000Y-64770000D02*
X100584000Y-64770000D01*
X99510000Y-62230000D02*
X100584000Y-62230000D01*
X90727086Y-91465482D02*
X90727086Y-95337608D01*
X93328497Y-88864071D02*
X90727086Y-91465482D01*
X74845000Y-55245000D02*
X74795000Y-55245000D01*
X74138599Y-63732599D02*
X71778547Y-63732599D01*
X74668000Y-64262000D02*
X74138599Y-63732599D01*
X71778547Y-63732599D02*
X70189974Y-62144026D01*
X52070000Y-59055000D02*
X52070000Y-53340000D01*
X75190655Y-51954111D02*
X77371504Y-54134960D01*
X53455889Y-51954111D02*
X75190655Y-51954111D01*
X79652365Y-51854099D02*
X77371504Y-54134960D01*
X52070000Y-53340000D02*
X53455889Y-51954111D01*
X56515000Y-63500000D02*
X52070000Y-59055000D01*
X70716705Y-68580000D02*
X68684705Y-66548000D01*
X73395000Y-68580000D02*
X70716705Y-68580000D01*
X102362000Y-51854099D02*
X114338099Y-51854099D01*
X74718000Y-64262000D02*
X74668000Y-64262000D01*
X76660000Y-63750000D02*
X75230000Y-63750000D01*
X75230000Y-63750000D02*
X74718000Y-64262000D01*
X71755000Y-58940000D02*
X71126000Y-58940000D01*
X115570000Y-63500000D02*
X118364000Y-60706000D01*
X118364000Y-60706000D02*
X121666000Y-60706000D01*
X121666000Y-60706000D02*
X124460000Y-63500000D01*
X114338099Y-51854099D02*
X115570000Y-53086000D01*
X115570000Y-53086000D02*
X115570000Y-63500000D01*
X72494332Y-71123951D02*
X72490381Y-71120000D01*
X72490381Y-71120000D02*
X70358000Y-71120000D01*
X72494332Y-71123951D02*
X74679951Y-71123951D01*
X74679951Y-71123951D02*
X76200000Y-72644000D01*
X72481052Y-64457201D02*
X72676253Y-64262000D01*
X72676253Y-64262000D02*
X73618000Y-64262000D01*
X78408455Y-57817959D02*
X78840254Y-57386160D01*
X77476414Y-58750000D02*
X78408455Y-57817959D01*
X76660000Y-58750000D02*
X77476414Y-58750000D01*
X72421346Y-55245000D02*
X72211264Y-55455082D01*
X73745000Y-55245000D02*
X72421346Y-55245000D01*
X79756000Y-80645000D02*
X79756000Y-81915000D01*
X76200000Y-83185000D02*
X79756000Y-83185000D01*
X79756000Y-83185000D02*
X85725000Y-83185000D01*
X79756000Y-81915000D02*
X79756000Y-83185000D01*
X76200000Y-80645000D02*
X79756000Y-80645000D01*
X79703401Y-72644000D02*
X79783385Y-72723984D01*
X76200000Y-72644000D02*
X79703401Y-72644000D01*
X73660000Y-80645000D02*
X73660000Y-81915000D01*
X74930000Y-80645000D02*
X73660000Y-80645000D01*
X74930000Y-80645000D02*
X74930000Y-81915000D01*
X76200000Y-80645000D02*
X76200000Y-81915000D01*
X76200000Y-80645000D02*
X74930000Y-80645000D01*
X93980000Y-80010000D02*
X95250000Y-80010000D01*
X92710000Y-82550000D02*
X93980000Y-81280000D01*
X92710000Y-80010000D02*
X92710000Y-81280000D01*
X91440000Y-81280000D02*
X91440000Y-80010000D01*
X90170000Y-82550000D02*
X91440000Y-82550000D01*
X90170000Y-80010000D02*
X90170000Y-81280000D01*
X88900000Y-81280000D02*
X88900000Y-80010000D01*
X87630000Y-82550000D02*
X88900000Y-82550000D01*
X87630000Y-80010000D02*
X87630000Y-81280000D01*
X86360000Y-81280000D02*
X86360000Y-80010000D01*
X85725000Y-83185000D02*
X86360000Y-82550000D01*
X76200000Y-83185000D02*
X74930000Y-83185000D01*
X76200000Y-81915000D02*
X76200000Y-83185000D01*
X74930000Y-81915000D02*
X76200000Y-81915000D01*
X74930000Y-81915000D02*
X73660000Y-81915000D01*
X74930000Y-83185000D02*
X74930000Y-81915000D01*
X73660000Y-83185000D02*
X74930000Y-83185000D01*
X72390000Y-83185000D02*
X73660000Y-83185000D01*
X72390000Y-81915000D02*
X73660000Y-81915000D01*
X73660000Y-81915000D02*
X73660000Y-83185000D01*
X72390000Y-83185000D02*
X72390000Y-81915000D01*
X71120000Y-83185000D02*
X72390000Y-83185000D01*
X53975000Y-81280000D02*
X53340000Y-81280000D01*
X79015776Y-68250000D02*
X79633951Y-68868175D01*
X76660000Y-68250000D02*
X79015776Y-68250000D01*
X56515000Y-71120000D02*
X53975000Y-71120000D01*
X121920000Y-71120000D02*
X115570000Y-71120000D01*
X70358000Y-71120000D02*
X65405000Y-71120000D01*
X124460000Y-111760000D02*
X124460000Y-123698000D01*
X124460000Y-123698000D02*
X123952000Y-124206000D01*
X72512736Y-60440000D02*
X72754736Y-60198000D01*
X71755000Y-60440000D02*
X72512736Y-60440000D01*
D22*
X76660000Y-57750000D02*
X77460912Y-57750000D01*
X77460912Y-57750000D02*
X77783980Y-57426932D01*
X77783980Y-57426932D02*
X77783980Y-56626020D01*
X77783980Y-56626020D02*
X79008756Y-55401244D01*
X79008756Y-55401244D02*
X101121244Y-55401244D01*
X101121244Y-55401244D02*
X102870000Y-57150000D01*
X106680000Y-60960000D02*
X108456749Y-60960000D01*
X108456749Y-60960000D02*
X110996749Y-63500000D01*
X110996749Y-63500000D02*
X113030000Y-63500000D01*
X97790000Y-57945190D02*
X104282615Y-57945190D01*
X97629810Y-57785000D02*
X97790000Y-57945190D01*
X96797400Y-57785000D02*
X97629810Y-57785000D01*
X96060000Y-57750000D02*
X96762400Y-57750000D01*
X96762400Y-57750000D02*
X96797400Y-57785000D01*
X104282615Y-57945190D02*
X105629586Y-56598219D01*
X106680000Y-63500000D02*
X108457396Y-63500000D01*
X108457396Y-63500000D02*
X110997396Y-66040000D01*
X110997396Y-66040000D02*
X113030000Y-66040000D01*
X113028808Y-68581192D02*
X113030000Y-68580000D01*
X106680000Y-66040000D02*
X109221192Y-68581192D01*
X109221192Y-68581192D02*
X113028808Y-68581192D01*
X96060000Y-58250000D02*
X104892252Y-58250000D01*
X104892252Y-58250000D02*
X106251476Y-56890776D01*
X106251476Y-56890776D02*
X108253603Y-56890776D01*
X108688836Y-57721278D02*
X109031735Y-58064177D01*
X105852040Y-57721278D02*
X108688836Y-57721278D01*
X105017481Y-58555836D02*
X105852040Y-57721278D01*
X96060000Y-58750000D02*
X97881542Y-58750000D01*
X98075706Y-58555836D02*
X105017481Y-58555836D01*
X97881542Y-58750000D02*
X98075706Y-58555836D01*
X106680000Y-68580000D02*
X111760000Y-73660000D01*
X111760000Y-73660000D02*
X113030000Y-73660000D01*
X111760000Y-76200000D02*
X113030000Y-76200000D01*
X106680000Y-71120000D02*
X111760000Y-76200000D01*
X108740686Y-58635687D02*
X109982000Y-58635687D01*
X108220188Y-58115189D02*
X108740686Y-58635687D01*
X105889196Y-58115189D02*
X108220188Y-58115189D01*
X98201962Y-58860647D02*
X105143737Y-58860647D01*
X97812609Y-59250000D02*
X98201962Y-58860647D01*
X105143737Y-58860647D02*
X105889196Y-58115189D01*
X96060000Y-59250000D02*
X97812609Y-59250000D01*
X109995198Y-78740000D02*
X113030000Y-78740000D01*
X108783626Y-77528428D02*
X109995198Y-78740000D01*
X108783626Y-75763626D02*
X108783626Y-77528428D01*
X106680000Y-73660000D02*
X108783626Y-75763626D01*
X96060000Y-59750000D02*
X97743676Y-59750000D01*
X110401101Y-59524899D02*
X110744000Y-59182000D01*
X97743676Y-59750000D02*
X98328218Y-59165458D01*
X98328218Y-59165458D02*
X105269994Y-59165458D01*
X105269994Y-59165458D02*
X106015452Y-58420000D01*
X106015452Y-58420000D02*
X108093932Y-58420000D01*
X108093932Y-58420000D02*
X109198831Y-59524899D01*
X109198831Y-59524899D02*
X110401101Y-59524899D01*
X109567462Y-79087462D02*
X109567462Y-80357462D01*
X106680000Y-76200000D02*
X109567462Y-79087462D01*
X109567462Y-80357462D02*
X113030000Y-83820000D01*
X108649313Y-62246127D02*
X110555415Y-64152229D01*
X102870722Y-62246127D02*
X108649313Y-62246127D01*
X100874595Y-60250000D02*
X102870722Y-62246127D01*
X96060000Y-60250000D02*
X100874595Y-60250000D01*
X108691150Y-82041417D02*
X112159734Y-85510001D01*
X112159734Y-85510001D02*
X112180001Y-85510001D01*
X112180001Y-85510001D02*
X113030000Y-86360000D01*
X106680000Y-78740000D02*
X108691150Y-80751150D01*
X108691150Y-80751150D02*
X108691150Y-82041417D01*
X108781549Y-64800900D02*
X110464292Y-66483643D01*
X103366135Y-64800900D02*
X108781549Y-64800900D01*
X96060000Y-60750000D02*
X100943528Y-60750000D01*
X102158834Y-61965306D02*
X102158834Y-63593599D01*
X100943528Y-60750000D02*
X102158834Y-61965306D01*
X102158834Y-63593599D02*
X103366135Y-64800900D01*
X111341068Y-88050001D02*
X112180001Y-88050001D01*
X112180001Y-88050001D02*
X113030000Y-88900000D01*
X106680000Y-81280000D02*
X108576098Y-83176098D01*
X108576098Y-83176098D02*
X108576098Y-85285032D01*
X108576098Y-85285032D02*
X108908541Y-85617474D01*
X108908541Y-85617474D02*
X111341068Y-88050001D01*
X105426212Y-80026212D02*
X106680000Y-81280000D01*
X101908700Y-79009081D02*
X102925831Y-80026212D01*
X96939812Y-65750000D02*
X101908700Y-70718888D01*
X101908700Y-70718888D02*
X101908700Y-79009081D01*
X102925831Y-80026212D02*
X105426212Y-80026212D01*
X96060000Y-65750000D02*
X96939812Y-65750000D01*
X111715306Y-92665306D02*
X113030000Y-93980000D01*
X108603730Y-87203846D02*
X111715306Y-90315422D01*
X106680000Y-83820000D02*
X108603730Y-85743730D01*
X108603730Y-85743730D02*
X108603730Y-87203846D01*
X111715306Y-90315422D02*
X111715306Y-92665306D01*
X101603889Y-81212901D02*
X102955002Y-82564014D01*
X105424014Y-82564014D02*
X106680000Y-83820000D01*
X101603889Y-70845144D02*
X101603889Y-81212901D01*
X102955002Y-82564014D02*
X105424014Y-82564014D01*
X96060000Y-66250000D02*
X97008745Y-66250000D01*
X97008745Y-66250000D02*
X101603889Y-70845144D01*
X112180001Y-95670001D02*
X113030000Y-96520000D01*
X111599342Y-95670001D02*
X112180001Y-95670001D01*
X110236129Y-92997754D02*
X110236129Y-94306788D01*
X109840765Y-92602390D02*
X110236129Y-92997754D01*
X109840765Y-89520765D02*
X109840765Y-92602390D01*
X110236129Y-94306788D02*
X111599342Y-95670001D01*
X106680000Y-86360000D02*
X109840765Y-89520765D01*
X105450985Y-85130985D02*
X106680000Y-86360000D01*
X102648714Y-85130985D02*
X105450985Y-85130985D01*
X101299078Y-83781349D02*
X102648714Y-85130985D01*
X97077678Y-66750000D02*
X101299078Y-70971400D01*
X96060000Y-66750000D02*
X97077678Y-66750000D01*
X101299078Y-70971400D02*
X101299078Y-83781349D01*
X111520559Y-97550559D02*
X113030000Y-99060000D01*
X106680000Y-88900000D02*
X109535954Y-91755954D01*
X109535954Y-91755954D02*
X109535954Y-92728645D01*
X109535954Y-92728645D02*
X109898100Y-93090791D01*
X109898100Y-93090791D02*
X109898100Y-94399826D01*
X109898100Y-94399826D02*
X111520559Y-96022285D01*
X111520559Y-96022285D02*
X111520559Y-97550559D01*
X105419617Y-87639617D02*
X106680000Y-88900000D01*
X97146611Y-67250000D02*
X100994267Y-71097656D01*
X96060000Y-67250000D02*
X97146611Y-67250000D01*
X100994267Y-85955999D02*
X102677885Y-87639617D01*
X100994267Y-71097656D02*
X100994267Y-85955999D01*
X102677885Y-87639617D02*
X105419617Y-87639617D01*
X108328488Y-95345609D02*
X110821664Y-97838785D01*
X106680000Y-91440000D02*
X108328488Y-93088488D01*
X108328488Y-93088488D02*
X108328488Y-95345609D01*
X110821664Y-97838785D02*
X110821664Y-98323718D01*
X97215544Y-67750000D02*
X100689456Y-71223912D01*
X100693755Y-87432883D02*
X103452875Y-90192003D01*
X105432003Y-90192003D02*
X106680000Y-91440000D01*
X103452875Y-90192003D02*
X105432003Y-90192003D01*
X96060000Y-67750000D02*
X97215544Y-67750000D01*
X100689456Y-86250815D02*
X100693755Y-86255114D01*
X100693755Y-86255114D02*
X100693755Y-87432883D01*
X100689456Y-71223912D02*
X100689456Y-86250815D01*
X107529999Y-95303860D02*
X110069117Y-97842978D01*
X110069117Y-97842978D02*
X110069117Y-98687679D01*
X110069117Y-98687679D02*
X110119639Y-98738201D01*
X110119639Y-98738201D02*
X110462538Y-99081100D01*
X107529999Y-94829999D02*
X107529999Y-95303860D01*
X106680000Y-93980000D02*
X107529999Y-94829999D01*
X100388944Y-89668072D02*
X103436092Y-92715220D01*
X96060000Y-68250000D02*
X97284477Y-68250000D01*
X105415220Y-92715220D02*
X106680000Y-93980000D01*
X103436092Y-92715220D02*
X105415220Y-92715220D01*
X100388944Y-86381370D02*
X100388944Y-89668072D01*
X100384645Y-71350168D02*
X100384645Y-86377071D01*
X100384645Y-86377071D02*
X100388944Y-86381370D01*
X97284477Y-68250000D02*
X100384645Y-71350168D01*
X106680000Y-96520000D02*
X110069207Y-99909207D01*
X110069207Y-99909207D02*
X110174282Y-99909207D01*
X105456777Y-95296777D02*
X106680000Y-96520000D01*
X103477649Y-95296777D02*
X105456777Y-95296777D01*
X100079834Y-86503327D02*
X100084133Y-86507626D01*
X100079834Y-71476424D02*
X100079834Y-86503327D01*
X97353410Y-68750000D02*
X100079834Y-71476424D01*
X96060000Y-68750000D02*
X97353410Y-68750000D01*
X100084133Y-86507626D02*
X100084133Y-91903261D01*
X100084133Y-91903261D02*
X103477649Y-95296777D01*
X110972359Y-100692819D02*
X111622104Y-100043074D01*
X106680000Y-99060000D02*
X107882081Y-99060000D01*
X107882081Y-99060000D02*
X109514900Y-100692819D01*
X109514900Y-100692819D02*
X110972359Y-100692819D01*
X115570000Y-66040000D02*
X114300000Y-64770000D01*
X114300000Y-64770000D02*
X111760000Y-64770000D01*
X102116006Y-97798006D02*
X105418006Y-97798006D01*
X105418006Y-97798006D02*
X106680000Y-99060000D01*
X99775023Y-86629583D02*
X99779322Y-86633882D01*
X99775023Y-71602680D02*
X99775023Y-86629583D01*
X96060000Y-69250000D02*
X97422343Y-69250000D01*
X99779322Y-95461322D02*
X102116006Y-97798006D01*
X99779322Y-86633882D02*
X99779322Y-95461322D01*
X97422343Y-69250000D02*
X99775023Y-71602680D01*
X108500010Y-101600000D02*
X109892026Y-102992016D01*
X109892026Y-102992016D02*
X110234925Y-103334915D01*
X106680000Y-101600000D02*
X108500010Y-101600000D01*
X76660000Y-69250000D02*
X78436134Y-69250000D01*
X78436134Y-69250000D02*
X78813609Y-69627475D01*
X78813609Y-69627475D02*
X91408525Y-69627475D01*
X91408525Y-69627475D02*
X91948000Y-69088000D01*
X111352890Y-67304256D02*
X110647464Y-68009682D01*
X114294256Y-67304256D02*
X111352890Y-67304256D01*
X115570000Y-68580000D02*
X114294256Y-67304256D01*
X115570000Y-76200000D02*
X114300000Y-77470000D01*
X114300000Y-77470000D02*
X111125000Y-77470000D01*
X111125000Y-77470000D02*
X110885850Y-77709150D01*
X110885850Y-77709150D02*
X109810172Y-77709150D01*
X109810172Y-77709150D02*
X109355128Y-77254106D01*
X103144942Y-67344613D02*
X107223956Y-67344613D01*
X107223956Y-67344613D02*
X110491343Y-70612000D01*
X97840531Y-61250000D02*
X98034857Y-61055674D01*
X98034857Y-61055674D02*
X100818135Y-61055674D01*
X100818135Y-61055674D02*
X101854023Y-62091562D01*
X101854023Y-62091562D02*
X101854023Y-66053694D01*
X96060000Y-61250000D02*
X97840531Y-61250000D01*
X101854023Y-66053694D02*
X103144942Y-67344613D01*
X115570000Y-78740000D02*
X114311316Y-79998684D01*
X110721611Y-79998684D02*
X110138972Y-79416045D01*
X114311316Y-79998684D02*
X110721611Y-79998684D01*
X110491341Y-73402283D02*
X110491341Y-74074887D01*
X102758166Y-69844088D02*
X106933146Y-69844088D01*
X101549212Y-68635133D02*
X102758166Y-69844088D01*
X106933146Y-69844088D02*
X110491341Y-73402283D01*
X101549212Y-62217818D02*
X101549212Y-68635133D01*
X96060000Y-61750000D02*
X97771598Y-61750000D01*
X98161113Y-61360485D02*
X100691879Y-61360485D01*
X100691879Y-61360485D02*
X101549212Y-62217818D01*
X97771598Y-61750000D02*
X98161113Y-61360485D01*
X96060000Y-65250000D02*
X96870879Y-65250000D01*
X96870879Y-65250000D02*
X102213511Y-70592632D01*
X102213511Y-70592632D02*
X102213511Y-76536512D01*
X102213511Y-76536512D02*
X103126165Y-77449166D01*
X103126165Y-77449166D02*
X104810686Y-77449166D01*
X107504117Y-80061524D02*
X108063417Y-80620824D01*
X108063417Y-80620824D02*
X108063417Y-82232351D01*
X108063417Y-82232351D02*
X110363673Y-84532607D01*
X104810686Y-77449166D02*
X105441255Y-78079735D01*
X105441255Y-78079735D02*
X105441255Y-79313849D01*
X105441255Y-79313849D02*
X106188930Y-80061524D01*
X106188930Y-80061524D02*
X107504117Y-80061524D01*
X110363673Y-84532607D02*
X110363673Y-84905627D01*
X110363673Y-84905627D02*
X110372409Y-84914363D01*
X112518544Y-85112848D02*
X110531868Y-83126172D01*
X114277152Y-85112848D02*
X112518544Y-85112848D01*
X115570000Y-83820000D02*
X114277152Y-85112848D01*
X110531868Y-83126172D02*
X110531868Y-82641239D01*
X110490000Y-109220000D02*
X106680000Y-109220000D01*
X112047197Y-87584392D02*
X109552805Y-85090000D01*
X115570000Y-86360000D02*
X114345608Y-87584392D01*
X114345608Y-87584392D02*
X112047197Y-87584392D01*
X108997273Y-79028815D02*
X108997273Y-81387688D01*
X108997273Y-81387688D02*
X109722931Y-82113346D01*
X107445045Y-77476587D02*
X108997273Y-79028815D01*
X105857195Y-77476587D02*
X107445045Y-77476587D01*
X105414810Y-77034202D02*
X105857195Y-77476587D01*
X104895228Y-74932787D02*
X105414810Y-75452369D01*
X96060000Y-64750000D02*
X96801946Y-64750000D01*
X103466943Y-74932787D02*
X104895228Y-74932787D01*
X102518322Y-70466376D02*
X102518322Y-73984166D01*
X105414810Y-75452369D02*
X105414810Y-77034202D01*
X102518322Y-73984166D02*
X103466943Y-74932787D01*
X96801946Y-64750000D02*
X102518322Y-70466376D01*
X109728000Y-111760000D02*
X106680000Y-111760000D01*
X97809065Y-64109599D02*
X100900993Y-64109599D01*
X101244401Y-64453007D02*
X101244401Y-68761389D01*
X110590176Y-75970184D02*
X110590176Y-76455117D01*
X107008383Y-72388391D02*
X110590176Y-75970184D01*
X102823133Y-70340120D02*
X102823133Y-71835133D01*
X101244401Y-68761389D02*
X102823133Y-70340120D01*
X103376391Y-72388391D02*
X107008383Y-72388391D01*
X96949466Y-63250000D02*
X97809065Y-64109599D01*
X100900993Y-64109599D02*
X101244401Y-64453007D01*
X96060000Y-63250000D02*
X96949466Y-63250000D01*
X102823133Y-71835133D02*
X103376391Y-72388391D01*
X109245390Y-95020047D02*
X109245390Y-94210933D01*
X110491343Y-96266000D02*
X109245390Y-95020047D01*
X109245390Y-94210933D02*
X109245390Y-93726000D01*
X114269031Y-95280969D02*
X111641377Y-95280969D01*
X111641377Y-95280969D02*
X110540940Y-94180532D01*
X115570000Y-93980000D02*
X114269031Y-95280969D01*
X110540940Y-94180532D02*
X110540940Y-91114984D01*
X79567476Y-63919577D02*
X81983939Y-63919577D01*
X76660000Y-64750000D02*
X78737053Y-64750000D01*
X78737053Y-64750000D02*
X79567476Y-63919577D01*
X81983939Y-63919577D02*
X82326838Y-64262476D01*
X75805429Y-64750000D02*
X75408417Y-65147012D01*
X71428386Y-65586386D02*
X68326000Y-62484000D01*
X76660000Y-64750000D02*
X75805429Y-64750000D01*
X75408417Y-65147012D02*
X73163028Y-65147012D01*
X73163028Y-65147012D02*
X72723654Y-65586386D01*
X72723654Y-65586386D02*
X71428386Y-65586386D01*
X67564000Y-67310000D02*
X57785000Y-67310000D01*
X57785000Y-67310000D02*
X56515000Y-66040000D01*
X56134000Y-60475067D02*
X56134000Y-60960000D01*
X56134000Y-58424368D02*
X56134000Y-60475067D01*
X71774543Y-57049875D02*
X57508493Y-57049875D01*
X57508493Y-57049875D02*
X56134000Y-58424368D01*
X74474670Y-59750000D02*
X71774543Y-57049875D01*
X76660000Y-59750000D02*
X74474670Y-59750000D01*
X78227014Y-59270899D02*
X78651101Y-59270899D01*
X77747913Y-59750000D02*
X78227014Y-59270899D01*
X76660000Y-59750000D02*
X77747913Y-59750000D01*
X78651101Y-59270899D02*
X78994000Y-58928000D01*
X83834164Y-65249111D02*
X84177063Y-65592010D01*
X76660000Y-65750000D02*
X79353103Y-65750000D01*
X79353103Y-65750000D02*
X79853992Y-65249111D01*
X79853992Y-65249111D02*
X83834164Y-65249111D01*
X72969289Y-66527070D02*
X70907845Y-66527070D01*
X70907845Y-66527070D02*
X70564946Y-66184171D01*
X73647374Y-65848985D02*
X72969289Y-66527070D01*
X76660000Y-65750000D02*
X75957600Y-65750000D01*
X75858615Y-65848985D02*
X73647374Y-65848985D01*
X75957600Y-65750000D02*
X75858615Y-65848985D01*
X57785000Y-69850000D02*
X69719187Y-69850000D01*
X56515000Y-68580000D02*
X57785000Y-69850000D01*
X73813926Y-60821295D02*
X73458034Y-60465403D01*
X75957600Y-60750000D02*
X75886305Y-60821295D01*
X76660000Y-60750000D02*
X75957600Y-60750000D01*
X75886305Y-60821295D02*
X73813926Y-60821295D01*
X73458034Y-60465403D02*
X73458034Y-59164433D01*
X73458034Y-59164433D02*
X71648287Y-57354686D01*
X57634749Y-57354686D02*
X56833283Y-58156152D01*
X71648287Y-57354686D02*
X57634749Y-57354686D01*
X56833283Y-61103305D02*
X56841604Y-61111626D01*
X56833283Y-58156152D02*
X56833283Y-61103305D01*
X56841604Y-61111626D02*
X56841604Y-61596559D01*
X79250751Y-60306422D02*
X79735684Y-60306422D01*
X78053624Y-60306422D02*
X79250751Y-60306422D01*
X77610046Y-60750000D02*
X78053624Y-60306422D01*
X76660000Y-60750000D02*
X77610046Y-60750000D01*
X74785618Y-66750000D02*
X74618914Y-66916704D01*
X76660000Y-66750000D02*
X74785618Y-66750000D01*
X84275477Y-66750000D02*
X84283921Y-66741556D01*
X76660000Y-66750000D02*
X84275477Y-66750000D01*
X57785000Y-72390000D02*
X74544164Y-72390000D01*
X56515000Y-73660000D02*
X57785000Y-72390000D01*
X57761005Y-57659497D02*
X57141133Y-58279369D01*
X75848606Y-61641006D02*
X74765403Y-61641006D01*
X75957600Y-61750000D02*
X75848606Y-61641006D01*
X72073098Y-61401016D02*
X70946996Y-61401016D01*
X72636388Y-61964306D02*
X72073098Y-61401016D01*
X74442103Y-61964306D02*
X72636388Y-61964306D01*
X74765403Y-61641006D02*
X74442103Y-61964306D01*
X70946996Y-61401016D02*
X67205477Y-57659497D01*
X76660000Y-61750000D02*
X75957600Y-61750000D01*
X67205477Y-57659497D02*
X57761005Y-57659497D01*
X57141133Y-58279369D02*
X57141133Y-60742899D01*
X57141133Y-60742899D02*
X57423678Y-61025444D01*
X57423678Y-61025444D02*
X57766577Y-61368343D01*
X76660000Y-61750000D02*
X78247472Y-61750000D01*
X78247472Y-61750000D02*
X78516603Y-61480869D01*
X74676000Y-74422000D02*
X67858824Y-74422000D01*
X67858824Y-74422000D02*
X67356959Y-74923865D01*
X67356959Y-74923865D02*
X57791135Y-74923865D01*
X57791135Y-74923865D02*
X56515000Y-76200000D01*
X80540524Y-68432346D02*
X84336877Y-68432346D01*
X79858178Y-67750000D02*
X80540524Y-68432346D01*
X76660000Y-67750000D02*
X79858178Y-67750000D01*
X75476680Y-68230920D02*
X75476680Y-68290234D01*
X76660000Y-67750000D02*
X75957600Y-67750000D01*
X75957600Y-67750000D02*
X75476680Y-68230920D01*
X76660000Y-62750000D02*
X75957600Y-62750000D01*
X75957600Y-62750000D02*
X75904524Y-62803076D01*
X75904524Y-62803076D02*
X73044091Y-62803076D01*
X73044091Y-62803076D02*
X71946842Y-61705827D01*
X71946842Y-61705827D02*
X70820740Y-61705827D01*
X70820740Y-61705827D02*
X70596804Y-61481890D01*
X70596804Y-61481890D02*
X69775075Y-61481890D01*
X69775075Y-61481890D02*
X66257493Y-57964308D01*
X66257493Y-57964308D02*
X57887261Y-57964308D01*
X57887261Y-57964308D02*
X57445944Y-58405625D01*
X57445944Y-58405625D02*
X57445944Y-59778762D01*
X57445944Y-59778762D02*
X58318508Y-60651326D01*
X58318508Y-60651326D02*
X58661407Y-60994225D01*
X76660000Y-62750000D02*
X78786998Y-62750000D01*
X78786998Y-62750000D02*
X78858508Y-62678490D01*
X56515000Y-78740000D02*
X58621587Y-76633413D01*
X58621587Y-76633413D02*
X60708835Y-76633413D01*
X60708835Y-76633413D02*
X61193768Y-76633413D01*
X74611994Y-53314598D02*
X65458127Y-53314598D01*
X77814754Y-55100173D02*
X76397569Y-55100173D01*
X78819552Y-54095375D02*
X77814754Y-55100173D01*
X76397569Y-55100173D02*
X74611994Y-53314598D01*
X65458127Y-53314598D02*
X64604899Y-54167826D01*
X64604899Y-54167826D02*
X64262000Y-54510725D01*
X91502396Y-54095375D02*
X78819552Y-54095375D01*
X91982914Y-62250000D02*
X91940180Y-62207266D01*
X96060000Y-62250000D02*
X91982914Y-62250000D01*
X96060000Y-62250000D02*
X98590000Y-62250000D01*
X98590000Y-62250000D02*
X98610000Y-62230000D01*
X72597398Y-65281575D02*
X71952953Y-65281575D01*
X71952953Y-65281575D02*
X70846647Y-64175269D01*
X70846647Y-64175269D02*
X70846647Y-63734647D01*
X70846647Y-63734647D02*
X65381119Y-58269119D01*
X65381119Y-58269119D02*
X58428274Y-58269119D01*
X76660000Y-64250000D02*
X75874362Y-64250000D01*
X75874362Y-64250000D02*
X75282161Y-64842201D01*
X75282161Y-64842201D02*
X73036772Y-64842201D01*
X73036772Y-64842201D02*
X72597398Y-65281575D01*
X58428274Y-58269119D02*
X58017446Y-58679947D01*
X78391229Y-64250000D02*
X78395199Y-64246030D01*
X76660000Y-64250000D02*
X78391229Y-64250000D01*
X78395199Y-64246030D02*
X78738098Y-63903131D01*
X59453579Y-83820000D02*
X59471486Y-83837907D01*
X56515000Y-83820000D02*
X59453579Y-83820000D01*
X74930000Y-58235000D02*
X73821802Y-58235000D01*
X73821802Y-58235000D02*
X72016023Y-56429221D01*
X72016023Y-56429221D02*
X64565508Y-56429221D01*
X64565508Y-56429221D02*
X63185090Y-55048803D01*
X63185090Y-55048803D02*
X62842191Y-54705904D01*
X76660000Y-58250000D02*
X74945000Y-58250000D01*
X74945000Y-58250000D02*
X74930000Y-58235000D01*
X70345321Y-64934388D02*
X69830304Y-64934388D01*
X71302130Y-65891197D02*
X70345321Y-64934388D01*
X75957600Y-65250000D02*
X75663425Y-65544175D01*
X75663425Y-65544175D02*
X73521117Y-65544175D01*
X59015918Y-58874274D02*
X59015918Y-59707937D01*
X73174095Y-65891197D02*
X71302130Y-65891197D01*
X73521117Y-65544175D02*
X73174095Y-65891197D01*
X59316262Y-58573930D02*
X59015918Y-58874274D01*
X63469846Y-58573930D02*
X59316262Y-58573930D01*
X59015918Y-59707937D02*
X59120368Y-59812387D01*
X76660000Y-65250000D02*
X75957600Y-65250000D01*
X59120368Y-59812387D02*
X59463267Y-60155286D01*
X69830304Y-64934388D02*
X63469846Y-58573930D01*
X79184812Y-65110480D02*
X79527711Y-64767581D01*
X79045292Y-65250000D02*
X79184812Y-65110480D01*
X76660000Y-65250000D02*
X79045292Y-65250000D01*
X59453868Y-86360000D02*
X59479724Y-86385856D01*
X56515000Y-86360000D02*
X59453868Y-86360000D01*
X74405736Y-59250000D02*
X71889768Y-56734032D01*
X62856421Y-56011901D02*
X62513522Y-55669002D01*
X63578552Y-56734032D02*
X62856421Y-56011901D01*
X76660000Y-59250000D02*
X74405736Y-59250000D01*
X71889768Y-56734032D02*
X63578552Y-56734032D01*
X73239630Y-66981652D02*
X70438235Y-66981652D01*
X70438235Y-66981652D02*
X69616364Y-66159781D01*
X63613446Y-59148596D02*
X59587420Y-59148596D01*
X69616364Y-66159781D02*
X69616364Y-65151515D01*
X69616364Y-65151515D02*
X63613446Y-59148596D01*
X73971282Y-66250000D02*
X73239630Y-66981652D01*
X76660000Y-66250000D02*
X73971282Y-66250000D01*
X80452454Y-66250000D02*
X80662454Y-66040000D01*
X76660000Y-66250000D02*
X80452454Y-66250000D01*
X59526360Y-88900000D02*
X59571795Y-88945435D01*
X56515000Y-88900000D02*
X59526360Y-88900000D01*
X77658342Y-54795362D02*
X77054510Y-54795362D01*
X77054510Y-54795362D02*
X75268935Y-53009787D01*
X75268935Y-53009787D02*
X64743364Y-53009787D01*
X64743364Y-53009787D02*
X64397464Y-53355687D01*
X64397464Y-53355687D02*
X64054565Y-53698586D01*
X93743802Y-54543780D02*
X91778022Y-52578000D01*
X91778022Y-52578000D02*
X79875704Y-52578000D01*
X79875704Y-52578000D02*
X77658342Y-54795362D01*
X93796648Y-64250000D02*
X93554648Y-64008000D01*
X96060000Y-64250000D02*
X93796648Y-64250000D01*
X80264000Y-120142000D02*
X76799466Y-123606534D01*
X76799466Y-123606534D02*
X65165757Y-123606534D01*
X65165757Y-123606534D02*
X64135405Y-122576182D01*
X64135405Y-122576182D02*
X64116410Y-122576182D01*
X63912157Y-59878373D02*
X61409269Y-59878373D01*
X69311553Y-65277770D02*
X63912157Y-59878373D01*
X74798323Y-67557231D02*
X74184968Y-67557231D01*
X74184968Y-67557231D02*
X74024136Y-67396399D01*
X74024136Y-67396399D02*
X70421915Y-67396399D01*
X75105554Y-67250000D02*
X74798323Y-67557231D01*
X70421915Y-67396399D02*
X69311553Y-66286037D01*
X76660000Y-67250000D02*
X75105554Y-67250000D01*
X69311553Y-66286037D02*
X69311553Y-65277770D01*
X76660000Y-67250000D02*
X80653265Y-67250000D01*
X80653265Y-67250000D02*
X80967265Y-67564000D01*
X76737074Y-124099993D02*
X64135000Y-124099993D01*
X62871866Y-121256965D02*
X62871866Y-122836859D01*
X62871866Y-122836859D02*
X64135000Y-124099993D01*
X79557073Y-121657165D02*
X79214174Y-122000064D01*
X79214174Y-122000064D02*
X78837003Y-122000064D01*
X78837003Y-122000064D02*
X76737074Y-124099993D01*
X55231863Y-97803137D02*
X58004560Y-97803137D01*
X58004560Y-97803137D02*
X60272196Y-95535501D01*
X60272196Y-95535501D02*
X60272196Y-78474405D01*
X60272196Y-78474405D02*
X61299850Y-77446751D01*
X61299850Y-77446751D02*
X66504463Y-77446751D01*
X53975000Y-99060000D02*
X55231863Y-97803137D01*
X66504463Y-77446751D02*
X68184710Y-75766504D01*
X68184710Y-75766504D02*
X68527609Y-75423605D01*
X76660000Y-60250000D02*
X77678979Y-60250000D01*
X77678979Y-60250000D02*
X78219728Y-59709251D01*
X78219728Y-59709251D02*
X80639945Y-59709251D01*
X80639945Y-59709251D02*
X81164127Y-60233433D01*
X74088453Y-60250000D02*
X74088247Y-60249794D01*
X76660000Y-60250000D02*
X74088453Y-60250000D01*
X62921229Y-124404804D02*
X61552649Y-123036224D01*
X61552649Y-123036224D02*
X61552649Y-122551291D01*
X78409596Y-123235710D02*
X77240502Y-124404804D01*
X77240502Y-124404804D02*
X62921229Y-124404804D01*
X68834000Y-79248000D02*
X68042517Y-80039483D01*
X68042517Y-80039483D02*
X61462813Y-80039483D01*
X61462813Y-80039483D02*
X60577007Y-80925289D01*
X60577007Y-80925289D02*
X60577007Y-100524217D01*
X60577007Y-100524217D02*
X58233607Y-102867617D01*
X58233607Y-102867617D02*
X55247383Y-102867617D01*
X55247383Y-102867617D02*
X54824999Y-103290001D01*
X54824999Y-103290001D02*
X53975000Y-104140000D01*
X76660000Y-61250000D02*
X77901650Y-61250000D01*
X77901650Y-61250000D02*
X78242282Y-60909368D01*
X78242282Y-60909368D02*
X81926002Y-60909368D01*
X81926002Y-60909368D02*
X82144848Y-61128214D01*
X74310587Y-61250000D02*
X74167782Y-61392805D01*
X76660000Y-61250000D02*
X74310587Y-61250000D01*
X60283213Y-122728001D02*
X60283213Y-121269411D01*
X62264827Y-124709615D02*
X60283213Y-122728001D01*
X80645000Y-123190000D02*
X79742600Y-123190000D01*
X78222985Y-124709615D02*
X62264827Y-124709615D01*
X79742600Y-123190000D02*
X78222985Y-124709615D01*
X80645000Y-121285000D02*
X80645000Y-123190000D01*
X53975000Y-106680000D02*
X55225451Y-105429549D01*
X60881818Y-102654090D02*
X60881818Y-83353336D01*
X58106359Y-105429549D02*
X60881818Y-102654090D01*
X55225451Y-105429549D02*
X58106359Y-105429549D01*
X60881818Y-83353336D02*
X61699218Y-82535936D01*
X61699218Y-82535936D02*
X68645152Y-82535936D01*
X68645152Y-82535936D02*
X69255848Y-81925240D01*
X69255848Y-81925240D02*
X69598747Y-81582341D01*
X78441174Y-62250000D02*
X78602460Y-62088714D01*
X76660000Y-62250000D02*
X78441174Y-62250000D01*
X82322154Y-62088714D02*
X82807087Y-62088714D01*
X78602460Y-62088714D02*
X82322154Y-62088714D01*
X75001500Y-62250000D02*
X74983074Y-62231574D01*
X76660000Y-62250000D02*
X75001500Y-62250000D01*
X61706428Y-125229529D02*
X59020909Y-122544010D01*
X82047871Y-125229529D02*
X61706428Y-125229529D01*
X83185000Y-124092400D02*
X82047871Y-125229529D01*
X83185000Y-123190000D02*
X83185000Y-124092400D01*
X83185000Y-120015000D02*
X83185000Y-123190000D01*
X69088000Y-83566000D02*
X67555213Y-85098787D01*
X61186629Y-85871875D02*
X61186629Y-105013009D01*
X67555213Y-85098787D02*
X61959717Y-85098787D01*
X61959717Y-85098787D02*
X61186629Y-85871875D01*
X61186629Y-105013009D02*
X58199675Y-107999963D01*
X58199675Y-107999963D02*
X55195037Y-107999963D01*
X55195037Y-107999963D02*
X54824999Y-108370001D01*
X54824999Y-108370001D02*
X53975000Y-109220000D01*
X81579033Y-63074490D02*
X82063966Y-63074490D01*
X81403523Y-63250000D02*
X81579033Y-63074490D01*
X76660000Y-63250000D02*
X81403523Y-63250000D01*
X72645191Y-63250000D02*
X71788897Y-62393706D01*
X76660000Y-63250000D02*
X72645191Y-63250000D01*
X115570000Y-88900000D02*
X118295000Y-88900000D01*
X96060000Y-69750000D02*
X97491276Y-69750000D01*
X97491276Y-69750000D02*
X99470212Y-71728936D01*
X99470212Y-71728936D02*
X99470212Y-86755839D01*
X99470212Y-86755839D02*
X99474511Y-86760138D01*
X99474511Y-86760138D02*
X99474511Y-96722076D01*
X99474511Y-96722076D02*
X103119767Y-100367332D01*
X103119767Y-100367332D02*
X108181088Y-100367332D01*
X108181088Y-100367332D02*
X109373349Y-101559593D01*
X109373349Y-101559593D02*
X110913824Y-101559593D01*
X110913824Y-101559593D02*
X112147247Y-100326170D01*
X112147247Y-100326170D02*
X113743373Y-100326170D01*
X113743373Y-100326170D02*
X114325288Y-99744255D01*
X114325288Y-99744255D02*
X114325288Y-97764712D01*
X114325288Y-97764712D02*
X115570000Y-96520000D01*
X96060000Y-70250000D02*
X96060000Y-70527400D01*
X96060000Y-70527400D02*
X99165401Y-73632801D01*
X99165401Y-73632801D02*
X99165401Y-86882095D01*
X99165401Y-86882095D02*
X99169700Y-86886394D01*
X99169700Y-86886394D02*
X99169700Y-98775772D01*
X99169700Y-98775772D02*
X103278029Y-102884101D01*
X103278029Y-102884101D02*
X108553322Y-102884101D01*
X108553322Y-102884101D02*
X109740309Y-104071088D01*
X109740309Y-104071088D02*
X110770546Y-104071088D01*
X110770546Y-104071088D02*
X111969784Y-102871850D01*
X111969784Y-102871850D02*
X113812865Y-102871850D01*
X113812865Y-102871850D02*
X114307932Y-102376783D01*
X114307932Y-102376783D02*
X114307932Y-100322068D01*
X114307932Y-100322068D02*
X114720001Y-99909999D01*
X114720001Y-99909999D02*
X115570000Y-99060000D01*
X115570000Y-104140000D02*
X117506553Y-106076553D01*
X102388676Y-107315000D02*
X102388676Y-106198676D01*
X98550601Y-88750278D02*
X96283500Y-86483177D01*
X117506553Y-106076553D02*
X117506553Y-107179108D01*
X117506553Y-107179108D02*
X116732045Y-107953616D01*
X116732045Y-107953616D02*
X103027292Y-107953616D01*
X103027292Y-107953616D02*
X102388676Y-107315000D01*
X102388676Y-106198676D02*
X98550601Y-102360601D01*
X98550601Y-102360601D02*
X98550601Y-88750278D01*
X96283500Y-86483177D02*
X96283500Y-85998244D01*
X76660000Y-70250000D02*
X91840000Y-70250000D01*
X91840000Y-70250000D02*
X92202000Y-70612000D01*
X76660000Y-69750000D02*
X78070034Y-69750000D01*
X78252320Y-69932286D02*
X92396781Y-69932286D01*
X92479067Y-69850000D02*
X92964000Y-69850000D01*
X78070034Y-69750000D02*
X78252320Y-69932286D01*
X92396781Y-69932286D02*
X92479067Y-69850000D01*
X98864889Y-87012650D02*
X97471111Y-85618872D01*
X115570000Y-106680000D02*
X114308746Y-105418746D01*
X114308746Y-105418746D02*
X103244129Y-105418746D01*
X98864889Y-101039506D02*
X98864889Y-87012650D01*
X103244129Y-105418746D02*
X98864889Y-101039506D01*
X97471111Y-85618872D02*
X97471111Y-85133939D01*
X113032553Y-116840000D02*
X102870000Y-116840000D01*
X102870000Y-116840000D02*
X102235000Y-116205000D01*
X114299743Y-115572810D02*
X113032553Y-116840000D01*
X102254322Y-117451883D02*
X102235000Y-117432561D01*
X115567775Y-115549108D02*
X113665000Y-117451883D01*
X113665000Y-117451883D02*
X102254322Y-117451883D01*
X114300000Y-118110000D02*
X101600000Y-118110000D01*
X101600000Y-118110000D02*
X100965000Y-117475000D01*
X115570000Y-116840000D02*
X114300000Y-118110000D01*
X114948325Y-118752032D02*
X101142822Y-118752032D01*
X116847662Y-116852695D02*
X114948325Y-118752032D01*
X100330000Y-119380000D02*
X99695000Y-118745000D01*
X116835810Y-118156282D02*
X115612092Y-119380000D01*
X115612092Y-119380000D02*
X100330000Y-119380000D01*
X116185872Y-120015000D02*
X99695000Y-120015000D01*
X118103844Y-118097028D02*
X116185872Y-120015000D01*
X116818907Y-120650000D02*
X99060000Y-120650000D01*
X99060000Y-120650000D02*
X98425000Y-120015000D01*
X118103844Y-119365063D02*
X116818907Y-120650000D01*
X119380000Y-119380000D02*
X117475000Y-121285000D01*
X117475000Y-121285000D02*
X98425000Y-121285000D01*
X121920000Y-96520000D02*
X119199297Y-99240703D01*
X119199297Y-99240703D02*
X119199297Y-114465452D01*
X119199297Y-114465452D02*
X121332419Y-116598574D01*
X121332419Y-116598574D02*
X121332419Y-121710120D01*
X121332419Y-121710120D02*
X118735909Y-124306630D01*
X118735909Y-124306630D02*
X98832647Y-124306630D01*
X98832647Y-124306630D02*
X95920808Y-121394791D01*
X95920808Y-121394791D02*
X95920808Y-119415808D01*
X95920808Y-119415808D02*
X95885000Y-119380000D01*
X98329220Y-124611441D02*
X96408708Y-122690929D01*
X121637230Y-121836376D02*
X118862165Y-124611441D01*
X118862165Y-124611441D02*
X98329220Y-124611441D01*
X121920000Y-99060000D02*
X119504108Y-101475892D01*
X121637230Y-116472318D02*
X121637230Y-121836376D01*
X119504108Y-101475892D02*
X119504108Y-114339196D01*
X119504108Y-114339196D02*
X121637230Y-116472318D01*
X121920000Y-104140000D02*
X119808919Y-106251081D01*
X119808919Y-106251081D02*
X119808919Y-114212940D01*
X119808919Y-114212940D02*
X121942041Y-116346062D01*
X121942041Y-116346062D02*
X121942041Y-121962632D01*
X121942041Y-121962632D02*
X118988421Y-124916252D01*
X118988421Y-124916252D02*
X95773243Y-124916252D01*
X95773243Y-124916252D02*
X95506544Y-124649553D01*
X95506544Y-124649553D02*
X95504000Y-124649553D01*
X121920000Y-106680000D02*
X120113730Y-108486270D01*
X120113730Y-108486270D02*
X120113730Y-114086684D01*
X120113730Y-114086684D02*
X122246852Y-116219806D01*
X122246852Y-116219806D02*
X122246852Y-122088888D01*
X122246852Y-122088888D02*
X119114677Y-125221063D01*
X119114677Y-125221063D02*
X90954790Y-125221063D01*
X90954790Y-125221063D02*
X90688091Y-124954364D01*
X90688091Y-124954364D02*
X90678000Y-124954364D01*
X121920000Y-109220000D02*
X120418541Y-110721459D01*
X120418541Y-110721459D02*
X120418541Y-113960428D01*
X120418541Y-113960428D02*
X122551663Y-116093550D01*
X122551663Y-116093550D02*
X122551663Y-122215144D01*
X122551663Y-122215144D02*
X119240933Y-125525874D01*
X119240933Y-125525874D02*
X89457874Y-125525874D01*
X89457874Y-125525874D02*
X89154000Y-125222000D01*
X68947008Y-94996000D02*
X68949136Y-94998128D01*
X67056000Y-94996000D02*
X68947008Y-94996000D01*
X96060000Y-62750000D02*
X97960000Y-62750000D01*
X97960000Y-62750000D02*
X98610000Y-63400000D01*
X98610000Y-63400000D02*
X98610000Y-63500000D01*
X76660000Y-68750000D02*
X75957600Y-68750000D01*
X75957600Y-68750000D02*
X75845865Y-68861735D01*
X75845865Y-68861735D02*
X74929135Y-68861735D01*
X74929135Y-68861735D02*
X74647400Y-68580000D01*
X74647400Y-68580000D02*
X74295000Y-68580000D01*
X96060000Y-63750000D02*
X97018400Y-63750000D01*
X98038400Y-64770000D02*
X98610000Y-64770000D01*
X97018400Y-63750000D02*
X98038400Y-64770000D01*
X119195000Y-88900000D02*
X119740480Y-88900000D01*
X119740480Y-88900000D02*
X121010480Y-90170000D01*
X121010480Y-90170000D02*
X125155645Y-90170000D01*
X125155645Y-90170000D02*
X126279529Y-91293884D01*
X126279529Y-91293884D02*
X126279529Y-123910471D01*
X126279529Y-123910471D02*
X123936643Y-126253357D01*
X123936643Y-126253357D02*
X85867357Y-126253357D01*
X85867357Y-126253357D02*
X84582000Y-124968000D01*
X76708000Y-90424000D02*
X76708000Y-89027000D01*
X76708000Y-89027000D02*
X76835000Y-88900000D01*
X79375000Y-89802400D02*
X78192475Y-90984925D01*
X79375000Y-88900000D02*
X79375000Y-89802400D01*
X78192475Y-90984925D02*
X77925075Y-90984925D01*
X93345000Y-121305396D02*
X93892158Y-120758238D01*
X93345000Y-123190000D02*
X93345000Y-121305396D01*
X91440000Y-120015000D02*
X90805000Y-120650000D01*
X90805000Y-120650000D02*
X90805000Y-123190000D01*
X91440000Y-113278965D02*
X91268402Y-113450563D01*
X91440000Y-111760000D02*
X91440000Y-113278965D01*
X88265000Y-121285000D02*
X88265000Y-123190000D01*
X88900000Y-113098647D02*
X88927183Y-113125830D01*
X88900000Y-111760000D02*
X88900000Y-113098647D01*
X88927183Y-113125830D02*
X89270082Y-113468729D01*
X86360000Y-111760000D02*
X86360000Y-113012168D01*
X86360000Y-113012168D02*
X86786284Y-113438452D01*
X86786284Y-113438452D02*
X87495325Y-113438452D01*
X87495325Y-113438452D02*
X87980258Y-113438452D01*
X84853741Y-109823859D02*
X85128597Y-109823859D01*
X83820000Y-110857600D02*
X84853741Y-109823859D01*
X83820000Y-111760000D02*
X83820000Y-110857600D01*
X85725000Y-120650000D02*
X85725000Y-123190000D01*
X81280000Y-113665000D02*
X81280000Y-111760000D01*
X69850000Y-111760000D02*
X75530117Y-111760000D01*
X75530117Y-111760000D02*
X76344462Y-112574345D01*
X76344462Y-112574345D02*
X77114456Y-112574345D01*
X77114456Y-112574345D02*
X78272649Y-111416152D01*
X76835000Y-111760000D02*
X77801324Y-110793676D01*
X77801324Y-110793676D02*
X78395749Y-110793676D01*
X78395749Y-110793676D02*
X78740000Y-110449425D01*
X78740000Y-110449425D02*
X78740000Y-109220000D01*
X76835000Y-110693203D02*
X75996797Y-109855000D01*
X75996797Y-109855000D02*
X72390000Y-109855000D01*
X76835000Y-109855000D02*
X75578748Y-108598748D01*
X75578748Y-108598748D02*
X71373652Y-108598748D01*
X71373652Y-108598748D02*
X70752400Y-109220000D01*
X70752400Y-109220000D02*
X69850000Y-109220000D01*
X76834945Y-108814544D02*
X77699489Y-107950000D01*
X77699489Y-107950000D02*
X78372400Y-107950000D01*
X78372400Y-107950000D02*
X78740000Y-107582400D01*
X78740000Y-107582400D02*
X78740000Y-106680000D01*
X76490828Y-107633434D02*
X76833727Y-107976333D01*
X72390000Y-107315000D02*
X76172394Y-107315000D01*
X76172394Y-107315000D02*
X76490828Y-107633434D01*
X69850000Y-106680000D02*
X70752400Y-106680000D01*
X70752400Y-106680000D02*
X71337295Y-106095105D01*
X71337295Y-106095105D02*
X75810028Y-106095105D01*
X75810028Y-106095105D02*
X76510373Y-106795450D01*
X76510373Y-106795450D02*
X76853272Y-107138349D01*
X78740000Y-104140000D02*
X78740000Y-105168024D01*
X78740000Y-105168024D02*
X78475719Y-105432305D01*
X78475719Y-105432305D02*
X77650028Y-105432305D01*
X77650028Y-105432305D02*
X77144214Y-105938119D01*
X77144214Y-105938119D02*
X77144214Y-106208447D01*
X76497321Y-104775000D02*
X76612803Y-104890482D01*
X76612803Y-104890482D02*
X76955702Y-105233381D01*
X72390000Y-104775000D02*
X76497321Y-104775000D01*
X69850000Y-104140000D02*
X70752400Y-104140000D01*
X71096001Y-103796399D02*
X76337442Y-103796399D01*
X76593535Y-104052492D02*
X76936434Y-104395391D01*
X76337442Y-103796399D02*
X76593535Y-104052492D01*
X70752400Y-104140000D02*
X71096001Y-103796399D01*
X78740000Y-101600000D02*
X78740000Y-102502400D01*
X78740000Y-102502400D02*
X78362958Y-102879442D01*
X78362958Y-102879442D02*
X77044263Y-102879442D01*
X77044263Y-102879442D02*
X76955583Y-102968122D01*
X77249281Y-102235000D02*
X77362696Y-102121585D01*
X72390000Y-102235000D02*
X77249281Y-102235000D01*
X69850000Y-101600000D02*
X70752400Y-101600000D01*
X70752400Y-101600000D02*
X71381072Y-100971328D01*
X71381072Y-100971328D02*
X77220530Y-100971328D01*
X77220530Y-100971328D02*
X77349772Y-101100570D01*
X77351383Y-100271030D02*
X76866450Y-100271030D01*
X78431370Y-100271030D02*
X77351383Y-100271030D01*
X78740000Y-99962400D02*
X78431370Y-100271030D01*
X78740000Y-99060000D02*
X78740000Y-99962400D01*
X76981024Y-99647000D02*
X77323923Y-99304101D01*
X76933024Y-99695000D02*
X76981024Y-99647000D01*
X72390000Y-99695000D02*
X76933024Y-99695000D01*
X71374222Y-98438178D02*
X76871575Y-98438178D01*
X70752400Y-99060000D02*
X71374222Y-98438178D01*
X69850000Y-99060000D02*
X70752400Y-99060000D01*
X77470000Y-97155000D02*
X78740000Y-95885000D01*
X78740000Y-95885000D02*
X78740000Y-95250000D01*
X73025000Y-97155000D02*
X72390000Y-96520000D01*
X72390000Y-96520000D02*
X72390000Y-95250000D01*
X76200000Y-93980000D02*
X77470000Y-92710000D01*
X77470000Y-92710000D02*
X78740000Y-92710000D01*
X74930000Y-93345000D02*
X74295000Y-92710000D01*
X74295000Y-92710000D02*
X72390000Y-92710000D01*
D11*
G36*
X52573946Y-79308285D02*
X52895853Y-79790054D01*
X53236553Y-80017702D01*
X53093642Y-80084817D01*
X52703355Y-80513076D01*
X52533524Y-80923110D01*
X52654845Y-81153000D01*
X53848000Y-81153000D01*
X53848000Y-81133000D01*
X54102000Y-81133000D01*
X54102000Y-81153000D01*
X56388000Y-81153000D01*
X56388000Y-81133000D01*
X56642000Y-81133000D01*
X56642000Y-81153000D01*
X57835155Y-81153000D01*
X57956476Y-80923110D01*
X57786645Y-80513076D01*
X57396358Y-80084817D01*
X57253447Y-80017702D01*
X57594147Y-79790054D01*
X57916054Y-79308285D01*
X58003831Y-78867000D01*
X59560996Y-78867000D01*
X59560996Y-82860085D01*
X59277823Y-82859838D01*
X58918274Y-83008400D01*
X58817699Y-83108800D01*
X57820561Y-83108800D01*
X57594147Y-82769946D01*
X57253447Y-82542298D01*
X57396358Y-82475183D01*
X57786645Y-82046924D01*
X57956476Y-81636890D01*
X57835155Y-81407000D01*
X56642000Y-81407000D01*
X56642000Y-81427000D01*
X56388000Y-81427000D01*
X56388000Y-81407000D01*
X54102000Y-81407000D01*
X54102000Y-81427000D01*
X53848000Y-81427000D01*
X53848000Y-81407000D01*
X52654845Y-81407000D01*
X52533524Y-81636890D01*
X52703355Y-82046924D01*
X53093642Y-82475183D01*
X53236553Y-82542298D01*
X52895853Y-82769946D01*
X52573946Y-83251715D01*
X52460907Y-83820000D01*
X52573946Y-84388285D01*
X52895853Y-84870054D01*
X53225026Y-85090000D01*
X52895853Y-85309946D01*
X52573946Y-85791715D01*
X52460907Y-86360000D01*
X52573946Y-86928285D01*
X52895853Y-87410054D01*
X53225026Y-87630000D01*
X52895853Y-87849946D01*
X52573946Y-88331715D01*
X52460907Y-88900000D01*
X52573946Y-89468285D01*
X52895853Y-89950054D01*
X53236553Y-90177702D01*
X53093642Y-90244817D01*
X52703355Y-90673076D01*
X52533524Y-91083110D01*
X52654845Y-91313000D01*
X53848000Y-91313000D01*
X53848000Y-91293000D01*
X54102000Y-91293000D01*
X54102000Y-91313000D01*
X56388000Y-91313000D01*
X56388000Y-91293000D01*
X56642000Y-91293000D01*
X56642000Y-91313000D01*
X57835155Y-91313000D01*
X57956476Y-91083110D01*
X57786645Y-90673076D01*
X57396358Y-90244817D01*
X57253447Y-90177702D01*
X57594147Y-89950054D01*
X57820561Y-89611200D01*
X58854645Y-89611200D01*
X59017136Y-89773975D01*
X59376425Y-89923165D01*
X59560996Y-89923326D01*
X59560996Y-95240912D01*
X57966318Y-96835591D01*
X58029093Y-96520000D01*
X57916054Y-95951715D01*
X57594147Y-95469946D01*
X57264974Y-95250000D01*
X57594147Y-95030054D01*
X57916054Y-94548285D01*
X58029093Y-93980000D01*
X57916054Y-93411715D01*
X57594147Y-92929946D01*
X57253447Y-92702298D01*
X57396358Y-92635183D01*
X57786645Y-92206924D01*
X57956476Y-91796890D01*
X57835155Y-91567000D01*
X56642000Y-91567000D01*
X56642000Y-91587000D01*
X56388000Y-91587000D01*
X56388000Y-91567000D01*
X54102000Y-91567000D01*
X54102000Y-91587000D01*
X53848000Y-91587000D01*
X53848000Y-91567000D01*
X52654845Y-91567000D01*
X52533524Y-91796890D01*
X52703355Y-92206924D01*
X53093642Y-92635183D01*
X53236553Y-92702298D01*
X52895853Y-92929946D01*
X52573946Y-93411715D01*
X52460907Y-93980000D01*
X52573946Y-94548285D01*
X52895853Y-95030054D01*
X53225026Y-95250000D01*
X52895853Y-95469946D01*
X52573946Y-95951715D01*
X52460907Y-96520000D01*
X52573946Y-97088285D01*
X52895853Y-97570054D01*
X53225026Y-97790000D01*
X52895853Y-98009946D01*
X52573946Y-98491715D01*
X52460907Y-99060000D01*
X52573946Y-99628285D01*
X52895853Y-100110054D01*
X53236553Y-100337702D01*
X53093642Y-100404817D01*
X52703355Y-100833076D01*
X52533524Y-101243110D01*
X52654845Y-101473000D01*
X53848000Y-101473000D01*
X53848000Y-101453000D01*
X54102000Y-101453000D01*
X54102000Y-101473000D01*
X56388000Y-101473000D01*
X56388000Y-101453000D01*
X56642000Y-101453000D01*
X56642000Y-101473000D01*
X57835155Y-101473000D01*
X57956476Y-101243110D01*
X57786645Y-100833076D01*
X57396358Y-100404817D01*
X57253447Y-100337702D01*
X57594147Y-100110054D01*
X57916054Y-99628285D01*
X58029093Y-99060000D01*
X57920554Y-98514337D01*
X58004560Y-98514337D01*
X58276725Y-98460200D01*
X58507454Y-98306031D01*
X59865807Y-96947679D01*
X59865807Y-100229629D01*
X57939019Y-102156417D01*
X57873834Y-102156417D01*
X57956476Y-101956890D01*
X57835155Y-101727000D01*
X56642000Y-101727000D01*
X56642000Y-101747000D01*
X56388000Y-101747000D01*
X56388000Y-101727000D01*
X54102000Y-101727000D01*
X54102000Y-101747000D01*
X53848000Y-101747000D01*
X53848000Y-101727000D01*
X52654845Y-101727000D01*
X52533524Y-101956890D01*
X52703355Y-102366924D01*
X53093642Y-102795183D01*
X53236553Y-102862298D01*
X52895853Y-103089946D01*
X52573946Y-103571715D01*
X52460907Y-104140000D01*
X52573946Y-104708285D01*
X52895853Y-105190054D01*
X53225026Y-105410000D01*
X52895853Y-105629946D01*
X52573946Y-106111715D01*
X52460907Y-106680000D01*
X52573946Y-107248285D01*
X52895853Y-107730054D01*
X53225026Y-107950000D01*
X52895853Y-108169946D01*
X52573946Y-108651715D01*
X52460907Y-109220000D01*
X52573946Y-109788285D01*
X52895853Y-110270054D01*
X53236553Y-110497702D01*
X53093642Y-110564817D01*
X52703355Y-110993076D01*
X52533524Y-111403110D01*
X52654845Y-111633000D01*
X53848000Y-111633000D01*
X53848000Y-111613000D01*
X54102000Y-111613000D01*
X54102000Y-111633000D01*
X56388000Y-111633000D01*
X56388000Y-111613000D01*
X56642000Y-111613000D01*
X56642000Y-111633000D01*
X57835155Y-111633000D01*
X57956476Y-111403110D01*
X57786645Y-110993076D01*
X57396358Y-110564817D01*
X57253447Y-110497702D01*
X57594147Y-110270054D01*
X57916054Y-109788285D01*
X58029093Y-109220000D01*
X57927879Y-108711163D01*
X58199675Y-108711163D01*
X58471840Y-108657026D01*
X58702569Y-108502857D01*
X61689523Y-105515903D01*
X61843692Y-105285174D01*
X61853607Y-105235326D01*
X62115026Y-105410000D01*
X61785853Y-105629946D01*
X61463946Y-106111715D01*
X61350907Y-106680000D01*
X61463946Y-107248285D01*
X61785853Y-107730054D01*
X62115026Y-107950000D01*
X61785853Y-108169946D01*
X61463946Y-108651715D01*
X61350907Y-109220000D01*
X61463946Y-109788285D01*
X61785853Y-110270054D01*
X62126553Y-110497702D01*
X61983642Y-110564817D01*
X61593355Y-110993076D01*
X61423524Y-111403110D01*
X61544845Y-111633000D01*
X62738000Y-111633000D01*
X62738000Y-111613000D01*
X62992000Y-111613000D01*
X62992000Y-111633000D01*
X65278000Y-111633000D01*
X65278000Y-111613000D01*
X65532000Y-111613000D01*
X65532000Y-111633000D01*
X66725155Y-111633000D01*
X66846476Y-111403110D01*
X66676645Y-110993076D01*
X66286358Y-110564817D01*
X66143447Y-110497702D01*
X66484147Y-110270054D01*
X66806054Y-109788285D01*
X66919093Y-109220000D01*
X66806054Y-108651715D01*
X66484147Y-108169946D01*
X66154974Y-107950000D01*
X66484147Y-107730054D01*
X66806054Y-107248285D01*
X66919093Y-106680000D01*
X66806054Y-106111715D01*
X66484147Y-105629946D01*
X66154974Y-105410000D01*
X66484147Y-105190054D01*
X66806054Y-104708285D01*
X66919093Y-104140000D01*
X66806054Y-103571715D01*
X66484147Y-103089946D01*
X66143447Y-102862298D01*
X66286358Y-102795183D01*
X66676645Y-102366924D01*
X66846476Y-101956890D01*
X66725155Y-101727000D01*
X65532000Y-101727000D01*
X65532000Y-101747000D01*
X65278000Y-101747000D01*
X65278000Y-101727000D01*
X62992000Y-101727000D01*
X62992000Y-101747000D01*
X62738000Y-101747000D01*
X62738000Y-101727000D01*
X62718000Y-101727000D01*
X62718000Y-101473000D01*
X62738000Y-101473000D01*
X62738000Y-101453000D01*
X62992000Y-101453000D01*
X62992000Y-101473000D01*
X65278000Y-101473000D01*
X65278000Y-101453000D01*
X65532000Y-101453000D01*
X65532000Y-101473000D01*
X66725155Y-101473000D01*
X66846476Y-101243110D01*
X66676645Y-100833076D01*
X66286358Y-100404817D01*
X66143447Y-100337702D01*
X66484147Y-100110054D01*
X66806054Y-99628285D01*
X66919093Y-99060000D01*
X66806054Y-98491715D01*
X66684637Y-98310000D01*
X68452560Y-98310000D01*
X68452560Y-99810000D01*
X68496838Y-100045317D01*
X68635910Y-100261441D01*
X68735860Y-100329734D01*
X68648559Y-100385910D01*
X68503569Y-100598110D01*
X68452560Y-100850000D01*
X68452560Y-102350000D01*
X68496838Y-102585317D01*
X68635910Y-102801441D01*
X68735860Y-102869734D01*
X68648559Y-102925910D01*
X68503569Y-103138110D01*
X68452560Y-103390000D01*
X68452560Y-104890000D01*
X68496838Y-105125317D01*
X68635910Y-105341441D01*
X68735860Y-105409734D01*
X68648559Y-105465910D01*
X68503569Y-105678110D01*
X68452560Y-105930000D01*
X68452560Y-107430000D01*
X68496838Y-107665317D01*
X68635910Y-107881441D01*
X68735860Y-107949734D01*
X68648559Y-108005910D01*
X68503569Y-108218110D01*
X68452560Y-108470000D01*
X68452560Y-109970000D01*
X68496838Y-110205317D01*
X68635910Y-110421441D01*
X68735860Y-110489734D01*
X68648559Y-110545910D01*
X68503569Y-110758110D01*
X68452560Y-111010000D01*
X68452560Y-112510000D01*
X68496838Y-112745317D01*
X68635910Y-112961441D01*
X68848110Y-113106431D01*
X69100000Y-113157440D01*
X70600000Y-113157440D01*
X70835317Y-113113162D01*
X71051441Y-112974090D01*
X71196431Y-112761890D01*
X71247440Y-112510000D01*
X71247440Y-112471200D01*
X75235529Y-112471200D01*
X75841568Y-113077240D01*
X76072297Y-113231408D01*
X76344462Y-113285545D01*
X77114456Y-113285545D01*
X77386621Y-113231408D01*
X77617350Y-113077239D01*
X78300513Y-112394077D01*
X78466312Y-112394221D01*
X78825861Y-112245659D01*
X79101189Y-111970811D01*
X79250379Y-111611522D01*
X79250718Y-111222489D01*
X79169438Y-111025776D01*
X79185214Y-111010000D01*
X79882560Y-111010000D01*
X79882560Y-112510000D01*
X79926838Y-112745317D01*
X80065910Y-112961441D01*
X80278110Y-113106431D01*
X80439512Y-113139116D01*
X80302270Y-113469630D01*
X80301931Y-113858663D01*
X80450493Y-114218212D01*
X80725341Y-114493540D01*
X81084630Y-114642730D01*
X81473663Y-114643069D01*
X81833212Y-114494507D01*
X82108540Y-114219659D01*
X82257730Y-113860370D01*
X82258069Y-113471337D01*
X82121274Y-113140266D01*
X82265317Y-113113162D01*
X82481441Y-112974090D01*
X82549734Y-112874140D01*
X82605910Y-112961441D01*
X82818110Y-113106431D01*
X83070000Y-113157440D01*
X84570000Y-113157440D01*
X84805317Y-113113162D01*
X85021441Y-112974090D01*
X85089734Y-112874140D01*
X85145910Y-112961441D01*
X85358110Y-113106431D01*
X85610000Y-113157440D01*
X85677696Y-113157440D01*
X85702937Y-113284333D01*
X85857106Y-113515062D01*
X86283390Y-113941347D01*
X86500903Y-114086684D01*
X86514120Y-114095515D01*
X86786284Y-114149652D01*
X87308464Y-114149652D01*
X87425599Y-114266992D01*
X87784888Y-114416182D01*
X88173921Y-114416521D01*
X88533470Y-114267959D01*
X88609950Y-114191612D01*
X88715423Y-114297269D01*
X89074712Y-114446459D01*
X89463745Y-114446798D01*
X89823294Y-114298236D01*
X90098622Y-114023388D01*
X90247812Y-113664099D01*
X90248151Y-113275066D01*
X90115368Y-112953706D01*
X90169734Y-112874140D01*
X90225910Y-112961441D01*
X90371377Y-113060834D01*
X90290672Y-113255193D01*
X90290333Y-113644226D01*
X90438895Y-114003775D01*
X90713743Y-114279103D01*
X91073032Y-114428293D01*
X91462065Y-114428632D01*
X91821614Y-114280070D01*
X92096942Y-114005222D01*
X92246132Y-113645933D01*
X92246471Y-113256900D01*
X92204266Y-113154756D01*
X92425317Y-113113162D01*
X92641441Y-112974090D01*
X92786431Y-112761890D01*
X92837440Y-112510000D01*
X92837440Y-111010000D01*
X92793162Y-110774683D01*
X92654090Y-110558559D01*
X92441890Y-110413569D01*
X92190000Y-110362560D01*
X90690000Y-110362560D01*
X90454683Y-110406838D01*
X90238559Y-110545910D01*
X90170266Y-110645860D01*
X90114090Y-110558559D01*
X89901890Y-110413569D01*
X89650000Y-110362560D01*
X88150000Y-110362560D01*
X87914683Y-110406838D01*
X87698559Y-110545910D01*
X87630266Y-110645860D01*
X87574090Y-110558559D01*
X87361890Y-110413569D01*
X87110000Y-110362560D01*
X85963763Y-110362560D01*
X86106327Y-110019229D01*
X86106666Y-109630196D01*
X85958104Y-109270647D01*
X85683256Y-108995319D01*
X85323967Y-108846129D01*
X84934934Y-108845790D01*
X84575385Y-108994352D01*
X84300057Y-109269200D01*
X84227234Y-109444577D01*
X83317106Y-110354706D01*
X83311858Y-110362560D01*
X83070000Y-110362560D01*
X82834683Y-110406838D01*
X82618559Y-110545910D01*
X82550266Y-110645860D01*
X82494090Y-110558559D01*
X82281890Y-110413569D01*
X82030000Y-110362560D01*
X80530000Y-110362560D01*
X80294683Y-110406838D01*
X80078559Y-110545910D01*
X79933569Y-110758110D01*
X79882560Y-111010000D01*
X79185214Y-111010000D01*
X79242894Y-110952320D01*
X79397062Y-110721590D01*
X79397063Y-110721589D01*
X79417780Y-110617440D01*
X79490000Y-110617440D01*
X79725317Y-110573162D01*
X79941441Y-110434090D01*
X80086431Y-110221890D01*
X80137440Y-109970000D01*
X80137440Y-108470000D01*
X80093162Y-108234683D01*
X79954090Y-108018559D01*
X79854140Y-107950266D01*
X79941441Y-107894090D01*
X80086431Y-107681890D01*
X80137440Y-107430000D01*
X80137440Y-105930000D01*
X80093162Y-105694683D01*
X79954090Y-105478559D01*
X79854140Y-105410266D01*
X79941441Y-105354090D01*
X80086431Y-105141890D01*
X80137440Y-104890000D01*
X80137440Y-104676269D01*
X94366015Y-104676269D01*
X94528084Y-105068504D01*
X94827917Y-105368862D01*
X95219869Y-105531615D01*
X95644269Y-105531985D01*
X96036504Y-105369916D01*
X96336862Y-105070083D01*
X96499615Y-104678131D01*
X96499985Y-104253731D01*
X96337916Y-103861496D01*
X96038083Y-103561138D01*
X95646131Y-103398385D01*
X95221731Y-103398015D01*
X94829496Y-103560084D01*
X94529138Y-103859917D01*
X94366385Y-104251869D01*
X94366015Y-104676269D01*
X80137440Y-104676269D01*
X80137440Y-103390000D01*
X80093162Y-103154683D01*
X79954090Y-102938559D01*
X79854140Y-102870266D01*
X79941441Y-102814090D01*
X80086431Y-102601890D01*
X80137440Y-102350000D01*
X80137440Y-100850000D01*
X80093162Y-100614683D01*
X79954090Y-100398559D01*
X79854140Y-100330266D01*
X79941441Y-100274090D01*
X80086431Y-100061890D01*
X80137440Y-99810000D01*
X80137440Y-98310000D01*
X80093162Y-98074683D01*
X79954090Y-97858559D01*
X79741890Y-97713569D01*
X79490000Y-97662560D01*
X78318097Y-97662560D01*
X78447730Y-97350370D01*
X78447876Y-97182912D01*
X78983349Y-96647440D01*
X79490000Y-96647440D01*
X79725317Y-96603162D01*
X79941441Y-96464090D01*
X80086431Y-96251890D01*
X80137440Y-96000000D01*
X80137440Y-95548877D01*
X89660101Y-95548877D01*
X89822170Y-95941112D01*
X90122003Y-96241470D01*
X90513955Y-96404223D01*
X90938355Y-96404593D01*
X91330590Y-96242524D01*
X91630948Y-95942691D01*
X91793701Y-95550739D01*
X91794071Y-95126339D01*
X91632002Y-94734104D01*
X91489086Y-94590938D01*
X91489086Y-91781112D01*
X93339318Y-89930881D01*
X93539766Y-89931056D01*
X93932001Y-89768987D01*
X94232359Y-89469154D01*
X94395112Y-89077202D01*
X94395482Y-88652802D01*
X94233413Y-88260567D01*
X93933580Y-87960209D01*
X93541628Y-87797456D01*
X93117228Y-87797086D01*
X92724993Y-87959155D01*
X92424635Y-88258988D01*
X92261882Y-88650940D01*
X92261706Y-88853232D01*
X90188271Y-90926667D01*
X90023090Y-91173877D01*
X89965086Y-91465482D01*
X89965086Y-94590911D01*
X89823224Y-94732525D01*
X89660471Y-95124477D01*
X89660101Y-95548877D01*
X80137440Y-95548877D01*
X80137440Y-94500000D01*
X80093162Y-94264683D01*
X79954090Y-94048559D01*
X79854140Y-93980266D01*
X79941441Y-93924090D01*
X80086431Y-93711890D01*
X80137440Y-93460000D01*
X80137440Y-91960000D01*
X80093162Y-91724683D01*
X79954090Y-91508559D01*
X79741890Y-91363569D01*
X79490000Y-91312560D01*
X78870628Y-91312560D01*
X79877894Y-90305294D01*
X79883142Y-90297440D01*
X80125000Y-90297440D01*
X80360317Y-90253162D01*
X80576441Y-90114090D01*
X80721431Y-89901890D01*
X80772440Y-89650000D01*
X80772440Y-88150000D01*
X80728162Y-87914683D01*
X80589090Y-87698559D01*
X80376890Y-87553569D01*
X80125000Y-87502560D01*
X78625000Y-87502560D01*
X78389683Y-87546838D01*
X78173559Y-87685910D01*
X78105266Y-87785860D01*
X78049090Y-87698559D01*
X77836890Y-87553569D01*
X77585000Y-87502560D01*
X76085000Y-87502560D01*
X75849683Y-87546838D01*
X75633559Y-87685910D01*
X75488569Y-87898110D01*
X75437560Y-88150000D01*
X75437560Y-89650000D01*
X75481838Y-89885317D01*
X75620910Y-90101441D01*
X75747241Y-90187759D01*
X75730270Y-90228630D01*
X75729931Y-90617663D01*
X75878493Y-90977212D01*
X76153341Y-91252540D01*
X76512630Y-91401730D01*
X76901663Y-91402069D01*
X77019268Y-91353476D01*
X77095568Y-91538137D01*
X77370416Y-91813465D01*
X77372093Y-91814161D01*
X77342560Y-91960000D01*
X77342560Y-92024149D01*
X77242990Y-92043955D01*
X77197835Y-92052937D01*
X76967105Y-92207106D01*
X76172136Y-93002075D01*
X76006337Y-93001931D01*
X75869669Y-93058401D01*
X75759507Y-92791788D01*
X75484659Y-92516460D01*
X75125370Y-92367270D01*
X74957912Y-92367124D01*
X74797894Y-92207106D01*
X74567165Y-92052937D01*
X74295000Y-91998800D01*
X73787440Y-91998800D01*
X73787440Y-91960000D01*
X73743162Y-91724683D01*
X73604090Y-91508559D01*
X73391890Y-91363569D01*
X73140000Y-91312560D01*
X71640000Y-91312560D01*
X71404683Y-91356838D01*
X71188559Y-91495910D01*
X71043569Y-91708110D01*
X70992560Y-91960000D01*
X70992560Y-93460000D01*
X71036838Y-93695317D01*
X71175910Y-93911441D01*
X71275860Y-93979734D01*
X71188559Y-94035910D01*
X71043569Y-94248110D01*
X70992560Y-94500000D01*
X70992560Y-96000000D01*
X71036838Y-96235317D01*
X71175910Y-96451441D01*
X71388110Y-96596431D01*
X71640000Y-96647440D01*
X71704149Y-96647440D01*
X71732937Y-96792165D01*
X71887106Y-97022894D01*
X72047075Y-97182864D01*
X72046931Y-97348663D01*
X72195493Y-97708212D01*
X72214226Y-97726978D01*
X71374222Y-97726978D01*
X71155393Y-97770506D01*
X71102057Y-97781115D01*
X71025557Y-97832231D01*
X70851890Y-97713569D01*
X70600000Y-97662560D01*
X69100000Y-97662560D01*
X68864683Y-97706838D01*
X68648559Y-97845910D01*
X68503569Y-98058110D01*
X68452560Y-98310000D01*
X66684637Y-98310000D01*
X66484147Y-98009946D01*
X66154974Y-97790000D01*
X66484147Y-97570054D01*
X66806054Y-97088285D01*
X66919093Y-96520000D01*
X66806054Y-95951715D01*
X66805456Y-95950820D01*
X66860630Y-95973730D01*
X67249663Y-95974069D01*
X67609212Y-95825507D01*
X67727726Y-95707200D01*
X68275217Y-95707200D01*
X68394477Y-95826668D01*
X68753766Y-95975858D01*
X69142799Y-95976197D01*
X69502348Y-95827635D01*
X69777676Y-95552787D01*
X69926866Y-95193498D01*
X69927205Y-94804465D01*
X69778643Y-94444916D01*
X69503795Y-94169588D01*
X69144506Y-94020398D01*
X68755473Y-94020059D01*
X68395924Y-94168621D01*
X68279542Y-94284800D01*
X67727794Y-94284800D01*
X67610659Y-94167460D01*
X67251370Y-94018270D01*
X66911540Y-94017974D01*
X66919093Y-93980000D01*
X66806054Y-93411715D01*
X66484147Y-92929946D01*
X66143447Y-92702298D01*
X66286358Y-92635183D01*
X66676645Y-92206924D01*
X66846476Y-91796890D01*
X66725155Y-91567000D01*
X65532000Y-91567000D01*
X65532000Y-91587000D01*
X65278000Y-91587000D01*
X65278000Y-91567000D01*
X62992000Y-91567000D01*
X62992000Y-91587000D01*
X62738000Y-91587000D01*
X62738000Y-91567000D01*
X62718000Y-91567000D01*
X62718000Y-91313000D01*
X62738000Y-91313000D01*
X62738000Y-91293000D01*
X62992000Y-91293000D01*
X62992000Y-91313000D01*
X65278000Y-91313000D01*
X65278000Y-91293000D01*
X65532000Y-91293000D01*
X65532000Y-91313000D01*
X66725155Y-91313000D01*
X66846476Y-91083110D01*
X66676645Y-90673076D01*
X66286358Y-90244817D01*
X66143447Y-90177702D01*
X66484147Y-89950054D01*
X66806054Y-89468285D01*
X66919093Y-88900000D01*
X66806054Y-88331715D01*
X66484147Y-87849946D01*
X66154974Y-87630000D01*
X66484147Y-87410054D01*
X66806054Y-86928285D01*
X66919093Y-86360000D01*
X66809689Y-85809987D01*
X67555213Y-85809987D01*
X67827378Y-85755850D01*
X68058107Y-85601681D01*
X69115863Y-84543925D01*
X69281663Y-84544069D01*
X69641212Y-84395507D01*
X69916540Y-84120659D01*
X70065730Y-83761370D01*
X70066069Y-83372337D01*
X69917507Y-83012788D01*
X69642659Y-82737460D01*
X69506115Y-82680762D01*
X69626611Y-82560266D01*
X69792410Y-82560410D01*
X70151959Y-82411848D01*
X70427287Y-82137000D01*
X70576477Y-81777711D01*
X70576816Y-81388678D01*
X70428254Y-81029129D01*
X70153406Y-80753801D01*
X69794117Y-80604611D01*
X69405084Y-80604272D01*
X69045535Y-80752834D01*
X68770207Y-81027682D01*
X68621017Y-81386971D01*
X68620871Y-81554428D01*
X68350564Y-81824736D01*
X66768673Y-81824736D01*
X66846476Y-81636890D01*
X66725155Y-81407000D01*
X65532000Y-81407000D01*
X65532000Y-81427000D01*
X65278000Y-81427000D01*
X65278000Y-81407000D01*
X62992000Y-81407000D01*
X62992000Y-81427000D01*
X62738000Y-81427000D01*
X62738000Y-81407000D01*
X61544845Y-81407000D01*
X61423524Y-81636890D01*
X61516390Y-81861103D01*
X61472208Y-81869891D01*
X61427053Y-81878873D01*
X61288207Y-81971647D01*
X61288207Y-81219877D01*
X61479295Y-81028789D01*
X61544845Y-81153000D01*
X62738000Y-81153000D01*
X62738000Y-81133000D01*
X62992000Y-81133000D01*
X62992000Y-81153000D01*
X65278000Y-81153000D01*
X65278000Y-81133000D01*
X65532000Y-81133000D01*
X65532000Y-81153000D01*
X66725155Y-81153000D01*
X66846476Y-80923110D01*
X66775059Y-80750683D01*
X68042517Y-80750683D01*
X68314682Y-80696546D01*
X68545411Y-80542377D01*
X68861863Y-80225925D01*
X69027663Y-80226069D01*
X69387212Y-80077507D01*
X69662540Y-79802659D01*
X69811730Y-79443370D01*
X69812069Y-79054337D01*
X69734663Y-78867000D01*
X98454201Y-78867000D01*
X98454201Y-85596174D01*
X98372114Y-85514087D01*
X98448841Y-85329309D01*
X98449180Y-84940276D01*
X98300618Y-84580727D01*
X98025770Y-84305399D01*
X97666481Y-84156209D01*
X97277448Y-84155870D01*
X96917899Y-84304432D01*
X96642571Y-84579280D01*
X96493381Y-84938569D01*
X96493304Y-85026508D01*
X96478870Y-85020514D01*
X96089837Y-85020175D01*
X95730288Y-85168737D01*
X95454960Y-85443585D01*
X95305770Y-85802874D01*
X95305431Y-86191907D01*
X95453993Y-86551456D01*
X95618701Y-86716452D01*
X95626437Y-86755342D01*
X95780606Y-86986071D01*
X97839401Y-89044866D01*
X97839401Y-102360601D01*
X97893538Y-102632766D01*
X98047707Y-102863495D01*
X101677476Y-106493265D01*
X101677476Y-107315000D01*
X101731613Y-107587165D01*
X101885782Y-107817894D01*
X102524397Y-108456510D01*
X102635868Y-108530992D01*
X102755128Y-108610679D01*
X102765047Y-108612652D01*
X102738946Y-108651715D01*
X102625907Y-109220000D01*
X102738946Y-109788285D01*
X103060853Y-110270054D01*
X103390026Y-110490000D01*
X103060853Y-110709946D01*
X102738946Y-111191715D01*
X102625907Y-111760000D01*
X102738946Y-112328285D01*
X103060853Y-112810054D01*
X103390026Y-113030000D01*
X103060853Y-113249946D01*
X102738946Y-113731715D01*
X102625907Y-114300000D01*
X102738946Y-114868285D01*
X103060853Y-115350054D01*
X103542622Y-115671961D01*
X104110907Y-115785000D01*
X104169093Y-115785000D01*
X104737378Y-115671961D01*
X105219147Y-115350054D01*
X105410000Y-115064422D01*
X105600853Y-115350054D01*
X106082622Y-115671961D01*
X106650907Y-115785000D01*
X106709093Y-115785000D01*
X107277378Y-115671961D01*
X107759147Y-115350054D01*
X108081054Y-114868285D01*
X108194093Y-114300000D01*
X108081054Y-113731715D01*
X107759147Y-113249946D01*
X107429974Y-113030000D01*
X107759147Y-112810054D01*
X107985561Y-112471200D01*
X109056206Y-112471200D01*
X109173341Y-112588540D01*
X109532630Y-112737730D01*
X109921663Y-112738069D01*
X110281212Y-112589507D01*
X110556540Y-112314659D01*
X110638660Y-112116890D01*
X111588524Y-112116890D01*
X111758355Y-112526924D01*
X112148642Y-112955183D01*
X112673108Y-113201486D01*
X112903000Y-113080819D01*
X112903000Y-111887000D01*
X113157000Y-111887000D01*
X113157000Y-113080819D01*
X113386892Y-113201486D01*
X113911358Y-112955183D01*
X114300000Y-112528729D01*
X114688642Y-112955183D01*
X115213108Y-113201486D01*
X115443000Y-113080819D01*
X115443000Y-111887000D01*
X115697000Y-111887000D01*
X115697000Y-113080819D01*
X115926892Y-113201486D01*
X116451358Y-112955183D01*
X116841645Y-112526924D01*
X117011476Y-112116890D01*
X116890155Y-111887000D01*
X115697000Y-111887000D01*
X115443000Y-111887000D01*
X113157000Y-111887000D01*
X112903000Y-111887000D01*
X111709845Y-111887000D01*
X111588524Y-112116890D01*
X110638660Y-112116890D01*
X110705730Y-111955370D01*
X110706069Y-111566337D01*
X110557507Y-111206788D01*
X110282659Y-110931460D01*
X109923370Y-110782270D01*
X109534337Y-110781931D01*
X109174788Y-110930493D01*
X109056274Y-111048800D01*
X107985561Y-111048800D01*
X107759147Y-110709946D01*
X107429974Y-110490000D01*
X107759147Y-110270054D01*
X107985561Y-109931200D01*
X109818206Y-109931200D01*
X109935341Y-110048540D01*
X110294630Y-110197730D01*
X110683663Y-110198069D01*
X111043212Y-110049507D01*
X111318540Y-109774659D01*
X111467730Y-109415370D01*
X111468069Y-109026337D01*
X111319507Y-108666788D01*
X111317538Y-108664816D01*
X111626340Y-108664816D01*
X111515907Y-109220000D01*
X111628946Y-109788285D01*
X111950853Y-110270054D01*
X112291553Y-110497702D01*
X112148642Y-110564817D01*
X111758355Y-110993076D01*
X111588524Y-111403110D01*
X111709845Y-111633000D01*
X112903000Y-111633000D01*
X112903000Y-111613000D01*
X113157000Y-111613000D01*
X113157000Y-111633000D01*
X115443000Y-111633000D01*
X115443000Y-111613000D01*
X115697000Y-111613000D01*
X115697000Y-111633000D01*
X116890155Y-111633000D01*
X117011476Y-111403110D01*
X116841645Y-110993076D01*
X116451358Y-110564817D01*
X116308447Y-110497702D01*
X116649147Y-110270054D01*
X116971054Y-109788285D01*
X117084093Y-109220000D01*
X116971054Y-108651715D01*
X116950741Y-108621315D01*
X117004210Y-108610679D01*
X117234939Y-108456510D01*
X118009448Y-107682002D01*
X118163616Y-107451272D01*
X118217753Y-107179108D01*
X118217753Y-106076553D01*
X118163616Y-105804389D01*
X118118104Y-105736275D01*
X118009448Y-105573659D01*
X116999760Y-104563971D01*
X117084093Y-104140000D01*
X116971054Y-103571715D01*
X116649147Y-103089946D01*
X116308447Y-102862298D01*
X116451358Y-102795183D01*
X116841645Y-102366924D01*
X117011476Y-101956890D01*
X116890155Y-101727000D01*
X115697000Y-101727000D01*
X115697000Y-101747000D01*
X115443000Y-101747000D01*
X115443000Y-101727000D01*
X115423000Y-101727000D01*
X115423000Y-101473000D01*
X115443000Y-101473000D01*
X115443000Y-101453000D01*
X115697000Y-101453000D01*
X115697000Y-101473000D01*
X116890155Y-101473000D01*
X117011476Y-101243110D01*
X116841645Y-100833076D01*
X116451358Y-100404817D01*
X116308447Y-100337702D01*
X116649147Y-100110054D01*
X116971054Y-99628285D01*
X117084093Y-99060000D01*
X116971054Y-98491715D01*
X116649147Y-98009946D01*
X116319974Y-97790000D01*
X116649147Y-97570054D01*
X116971054Y-97088285D01*
X117084093Y-96520000D01*
X116971054Y-95951715D01*
X116649147Y-95469946D01*
X116319974Y-95250000D01*
X116649147Y-95030054D01*
X116971054Y-94548285D01*
X117084093Y-93980000D01*
X116971054Y-93411715D01*
X116649147Y-92929946D01*
X116308447Y-92702298D01*
X116451358Y-92635183D01*
X116841645Y-92206924D01*
X117011476Y-91796890D01*
X116890155Y-91567000D01*
X115697000Y-91567000D01*
X115697000Y-91587000D01*
X115443000Y-91587000D01*
X115443000Y-91567000D01*
X113157000Y-91567000D01*
X113157000Y-91587000D01*
X112903000Y-91587000D01*
X112903000Y-91567000D01*
X112883000Y-91567000D01*
X112883000Y-91313000D01*
X112903000Y-91313000D01*
X112903000Y-91293000D01*
X113157000Y-91293000D01*
X113157000Y-91313000D01*
X115443000Y-91313000D01*
X115443000Y-91293000D01*
X115697000Y-91293000D01*
X115697000Y-91313000D01*
X116890155Y-91313000D01*
X117011476Y-91083110D01*
X116841645Y-90673076D01*
X116451358Y-90244817D01*
X116308447Y-90177702D01*
X116649147Y-89950054D01*
X116875561Y-89611200D01*
X117605016Y-89611200D01*
X117630910Y-89651441D01*
X117843110Y-89796431D01*
X118095000Y-89847440D01*
X118495000Y-89847440D01*
X118730317Y-89803162D01*
X118741979Y-89795658D01*
X118743110Y-89796431D01*
X118995000Y-89847440D01*
X119395000Y-89847440D01*
X119630317Y-89803162D01*
X119634903Y-89800211D01*
X120507585Y-90672894D01*
X120617900Y-90746604D01*
X120478524Y-91083110D01*
X120599845Y-91313000D01*
X121793000Y-91313000D01*
X121793000Y-91293000D01*
X122047000Y-91293000D01*
X122047000Y-91313000D01*
X124333000Y-91313000D01*
X124333000Y-91293000D01*
X124587000Y-91293000D01*
X124587000Y-91313000D01*
X124607000Y-91313000D01*
X124607000Y-91567000D01*
X124587000Y-91567000D01*
X124587000Y-91587000D01*
X124333000Y-91587000D01*
X124333000Y-91567000D01*
X122047000Y-91567000D01*
X122047000Y-91587000D01*
X121793000Y-91587000D01*
X121793000Y-91567000D01*
X120599845Y-91567000D01*
X120478524Y-91796890D01*
X120648355Y-92206924D01*
X121038642Y-92635183D01*
X121181553Y-92702298D01*
X120840853Y-92929946D01*
X120518946Y-93411715D01*
X120405907Y-93980000D01*
X120518946Y-94548285D01*
X120840853Y-95030054D01*
X121170026Y-95250000D01*
X120840853Y-95469946D01*
X120518946Y-95951715D01*
X120405907Y-96520000D01*
X120490240Y-96943972D01*
X118696403Y-98737809D01*
X118542234Y-98968538D01*
X118497764Y-99192106D01*
X118488097Y-99240703D01*
X118488097Y-114465452D01*
X118542234Y-114737617D01*
X118696403Y-114968346D01*
X120621219Y-116893162D01*
X120621219Y-121415531D01*
X118441321Y-123595430D01*
X99127235Y-123595430D01*
X96632008Y-121100203D01*
X96632008Y-120208663D01*
X97446931Y-120208663D01*
X97595493Y-120568212D01*
X97677040Y-120649901D01*
X97596460Y-120730341D01*
X97447270Y-121089630D01*
X97446931Y-121478663D01*
X97595493Y-121838212D01*
X97870341Y-122113540D01*
X98229630Y-122262730D01*
X98618663Y-122263069D01*
X98978212Y-122114507D01*
X99096726Y-121996200D01*
X117475000Y-121996200D01*
X117747165Y-121942063D01*
X117977894Y-121787894D01*
X119407863Y-120357925D01*
X119573663Y-120358069D01*
X119933212Y-120209507D01*
X120208540Y-119934659D01*
X120357730Y-119575370D01*
X120358069Y-119186337D01*
X120209507Y-118826788D01*
X119934659Y-118551460D01*
X119575370Y-118402270D01*
X119186337Y-118401931D01*
X119004975Y-118476868D01*
X119081574Y-118292398D01*
X119081913Y-117903365D01*
X118933351Y-117543816D01*
X118658503Y-117268488D01*
X118299214Y-117119298D01*
X117910181Y-117118959D01*
X117772297Y-117175931D01*
X117825392Y-117048065D01*
X117825731Y-116659032D01*
X117677169Y-116299483D01*
X117402321Y-116024155D01*
X117043032Y-115874965D01*
X116653999Y-115874626D01*
X116457801Y-115955693D01*
X116545505Y-115744478D01*
X116545844Y-115355445D01*
X116397282Y-114995896D01*
X116122434Y-114720568D01*
X115763145Y-114571378D01*
X115374112Y-114571039D01*
X115014563Y-114719601D01*
X114922008Y-114811994D01*
X114854402Y-114744270D01*
X114495113Y-114595080D01*
X114106080Y-114594741D01*
X113746531Y-114743303D01*
X113471203Y-115018151D01*
X113322013Y-115377440D01*
X113321867Y-115544897D01*
X112737965Y-116128800D01*
X103212967Y-116128800D01*
X103213069Y-116011337D01*
X103064507Y-115651788D01*
X102789659Y-115376460D01*
X102430370Y-115227270D01*
X102041337Y-115226931D01*
X101681788Y-115375493D01*
X101406460Y-115650341D01*
X101257270Y-116009630D01*
X101256931Y-116398663D01*
X101326111Y-116566092D01*
X101160370Y-116497270D01*
X100771337Y-116496931D01*
X100411788Y-116645493D01*
X100136460Y-116920341D01*
X99987270Y-117279630D01*
X99986931Y-117668663D01*
X100056111Y-117836092D01*
X99890370Y-117767270D01*
X99501337Y-117766931D01*
X99141788Y-117915493D01*
X98866460Y-118190341D01*
X98717270Y-118549630D01*
X98716931Y-118938663D01*
X98786111Y-119106092D01*
X98620370Y-119037270D01*
X98231337Y-119036931D01*
X97871788Y-119185493D01*
X97596460Y-119460341D01*
X97447270Y-119819630D01*
X97446931Y-120208663D01*
X96632008Y-120208663D01*
X96632008Y-120016049D01*
X96713540Y-119934659D01*
X96862730Y-119575370D01*
X96863069Y-119186337D01*
X96714507Y-118826788D01*
X96439659Y-118551460D01*
X96080370Y-118402270D01*
X95691337Y-118401931D01*
X95331788Y-118550493D01*
X95056460Y-118825341D01*
X94907270Y-119184630D01*
X94906931Y-119573663D01*
X95055493Y-119933212D01*
X95209608Y-120087596D01*
X95209608Y-121394791D01*
X95263745Y-121666956D01*
X95417914Y-121897685D01*
X95618367Y-122098138D01*
X95580168Y-122136270D01*
X95430978Y-122495559D01*
X95430639Y-122884592D01*
X95579201Y-123244141D01*
X95854049Y-123519469D01*
X96213338Y-123668659D01*
X96380796Y-123668805D01*
X96917043Y-124205052D01*
X96378425Y-124205052D01*
X96333507Y-124096341D01*
X96058659Y-123821013D01*
X95699370Y-123671823D01*
X95310337Y-123671484D01*
X94950788Y-123820046D01*
X94720097Y-124050335D01*
X94742440Y-123940000D01*
X94742440Y-122440000D01*
X94698162Y-122204683D01*
X94559090Y-121988559D01*
X94346890Y-121843569D01*
X94095000Y-121792560D01*
X94056200Y-121792560D01*
X94056200Y-121736281D01*
X94085821Y-121736307D01*
X94445370Y-121587745D01*
X94720698Y-121312897D01*
X94869888Y-120953608D01*
X94870227Y-120564575D01*
X94721665Y-120205026D01*
X94446817Y-119929698D01*
X94087528Y-119780508D01*
X93698495Y-119780169D01*
X93338946Y-119928731D01*
X93063618Y-120203579D01*
X92914428Y-120562868D01*
X92914282Y-120730326D01*
X92842106Y-120802502D01*
X92687937Y-121033231D01*
X92644534Y-121251433D01*
X92633800Y-121305396D01*
X92633800Y-121792560D01*
X92595000Y-121792560D01*
X92359683Y-121836838D01*
X92143559Y-121975910D01*
X92075266Y-122075860D01*
X92019090Y-121988559D01*
X91806890Y-121843569D01*
X91555000Y-121792560D01*
X91516200Y-121792560D01*
X91516200Y-120992967D01*
X91633663Y-120993069D01*
X91993212Y-120844507D01*
X92268540Y-120569659D01*
X92417730Y-120210370D01*
X92418069Y-119821337D01*
X92269507Y-119461788D01*
X91994659Y-119186460D01*
X91635370Y-119037270D01*
X91246337Y-119036931D01*
X90886788Y-119185493D01*
X90611460Y-119460341D01*
X90462270Y-119819630D01*
X90462124Y-119987088D01*
X90302106Y-120147106D01*
X90147937Y-120377835D01*
X90132662Y-120454630D01*
X90093800Y-120650000D01*
X90093800Y-121792560D01*
X90055000Y-121792560D01*
X89819683Y-121836838D01*
X89603559Y-121975910D01*
X89535266Y-122075860D01*
X89479090Y-121988559D01*
X89266890Y-121843569D01*
X89105488Y-121810884D01*
X89242730Y-121480370D01*
X89243069Y-121091337D01*
X89094507Y-120731788D01*
X88819659Y-120456460D01*
X88460370Y-120307270D01*
X88071337Y-120306931D01*
X87711788Y-120455493D01*
X87436460Y-120730341D01*
X87287270Y-121089630D01*
X87286931Y-121478663D01*
X87423726Y-121809734D01*
X87279683Y-121836838D01*
X87063559Y-121975910D01*
X86995266Y-122075860D01*
X86939090Y-121988559D01*
X86726890Y-121843569D01*
X86475000Y-121792560D01*
X86436200Y-121792560D01*
X86436200Y-121321794D01*
X86553540Y-121204659D01*
X86702730Y-120845370D01*
X86703069Y-120456337D01*
X86554507Y-120096788D01*
X86279659Y-119821460D01*
X85920370Y-119672270D01*
X85531337Y-119671931D01*
X85171788Y-119820493D01*
X84896460Y-120095341D01*
X84747270Y-120454630D01*
X84746931Y-120843663D01*
X84895493Y-121203212D01*
X85013800Y-121321726D01*
X85013800Y-121792560D01*
X84975000Y-121792560D01*
X84739683Y-121836838D01*
X84523559Y-121975910D01*
X84455266Y-122075860D01*
X84399090Y-121988559D01*
X84186890Y-121843569D01*
X83935000Y-121792560D01*
X83896200Y-121792560D01*
X83896200Y-120686794D01*
X84013540Y-120569659D01*
X84162730Y-120210370D01*
X84163069Y-119821337D01*
X84014507Y-119461788D01*
X83739659Y-119186460D01*
X83380370Y-119037270D01*
X82991337Y-119036931D01*
X82631788Y-119185493D01*
X82356460Y-119460341D01*
X82207270Y-119819630D01*
X82206931Y-120208663D01*
X82355493Y-120568212D01*
X82473800Y-120686726D01*
X82473800Y-121792560D01*
X82435000Y-121792560D01*
X82199683Y-121836838D01*
X81983559Y-121975910D01*
X81915266Y-122075860D01*
X81859090Y-121988559D01*
X81646890Y-121843569D01*
X81485488Y-121810884D01*
X81622730Y-121480370D01*
X81623069Y-121091337D01*
X81474507Y-120731788D01*
X81199659Y-120456460D01*
X81193365Y-120453846D01*
X81241730Y-120337370D01*
X81242069Y-119948337D01*
X81093507Y-119588788D01*
X80818659Y-119313460D01*
X80459370Y-119164270D01*
X80070337Y-119163931D01*
X79710788Y-119312493D01*
X79435460Y-119587341D01*
X79286270Y-119946630D01*
X79286124Y-120114088D01*
X76504878Y-122895334D01*
X65460346Y-122895334D01*
X65094351Y-122529340D01*
X65094479Y-122382519D01*
X64945917Y-122022970D01*
X64671069Y-121747642D01*
X64311780Y-121598452D01*
X63922747Y-121598113D01*
X63761377Y-121664789D01*
X63849596Y-121452335D01*
X63849935Y-121063302D01*
X63701373Y-120703753D01*
X63426525Y-120428425D01*
X63067236Y-120279235D01*
X62678203Y-120278896D01*
X62318654Y-120427458D01*
X62043326Y-120702306D01*
X61894136Y-121061595D01*
X61893797Y-121450628D01*
X61985303Y-121672090D01*
X61748019Y-121573561D01*
X61358986Y-121573222D01*
X61186283Y-121644581D01*
X61260943Y-121464781D01*
X61261282Y-121075748D01*
X61112720Y-120716199D01*
X60837872Y-120440871D01*
X60478583Y-120291681D01*
X60089550Y-120291342D01*
X59730001Y-120439904D01*
X59454673Y-120714752D01*
X59305483Y-121074041D01*
X59305144Y-121463074D01*
X59375024Y-121632197D01*
X59216279Y-121566280D01*
X58827246Y-121565941D01*
X58467697Y-121714503D01*
X58192369Y-121989351D01*
X58043179Y-122348640D01*
X58042840Y-122737673D01*
X58191402Y-123097222D01*
X58466250Y-123372550D01*
X58825539Y-123521740D01*
X58992997Y-123521886D01*
X61203533Y-125732423D01*
X61301735Y-125798039D01*
X61434264Y-125886592D01*
X61706428Y-125940729D01*
X82047871Y-125940729D01*
X82320036Y-125886592D01*
X82550765Y-125732423D01*
X83670814Y-124612375D01*
X83604270Y-124772630D01*
X83603931Y-125161663D01*
X83752493Y-125521212D01*
X84027341Y-125796540D01*
X84386630Y-125945730D01*
X84554088Y-125945876D01*
X84846211Y-126238000D01*
X51562000Y-126238000D01*
X51562000Y-114251619D01*
X51866800Y-114251619D01*
X51866800Y-125778381D01*
X54914800Y-125778381D01*
X54914800Y-114251619D01*
X51866800Y-114251619D01*
X51562000Y-114251619D01*
X51562000Y-112116890D01*
X52533524Y-112116890D01*
X52703355Y-112526924D01*
X53093642Y-112955183D01*
X53618108Y-113201486D01*
X53848000Y-113080819D01*
X53848000Y-111887000D01*
X54102000Y-111887000D01*
X54102000Y-113080819D01*
X54331892Y-113201486D01*
X54856358Y-112955183D01*
X55245000Y-112528729D01*
X55633642Y-112955183D01*
X56158108Y-113201486D01*
X56388000Y-113080819D01*
X56388000Y-111887000D01*
X56642000Y-111887000D01*
X56642000Y-113080819D01*
X56871892Y-113201486D01*
X57396358Y-112955183D01*
X57786645Y-112526924D01*
X57956476Y-112116890D01*
X61423524Y-112116890D01*
X61593355Y-112526924D01*
X61983642Y-112955183D01*
X62508108Y-113201486D01*
X62738000Y-113080819D01*
X62738000Y-111887000D01*
X62992000Y-111887000D01*
X62992000Y-113080819D01*
X63221892Y-113201486D01*
X63746358Y-112955183D01*
X64135000Y-112528729D01*
X64523642Y-112955183D01*
X65048108Y-113201486D01*
X65278000Y-113080819D01*
X65278000Y-111887000D01*
X65532000Y-111887000D01*
X65532000Y-113080819D01*
X65761892Y-113201486D01*
X66286358Y-112955183D01*
X66676645Y-112526924D01*
X66846476Y-112116890D01*
X66725155Y-111887000D01*
X65532000Y-111887000D01*
X65278000Y-111887000D01*
X62992000Y-111887000D01*
X62738000Y-111887000D01*
X61544845Y-111887000D01*
X61423524Y-112116890D01*
X57956476Y-112116890D01*
X57835155Y-111887000D01*
X56642000Y-111887000D01*
X56388000Y-111887000D01*
X54102000Y-111887000D01*
X53848000Y-111887000D01*
X52654845Y-111887000D01*
X52533524Y-112116890D01*
X51562000Y-112116890D01*
X51562000Y-78867000D01*
X52486169Y-78867000D01*
X52573946Y-79308285D01*
X52573946Y-79308285D01*
G37*
X52573946Y-79308285D02*
X52895853Y-79790054D01*
X53236553Y-80017702D01*
X53093642Y-80084817D01*
X52703355Y-80513076D01*
X52533524Y-80923110D01*
X52654845Y-81153000D01*
X53848000Y-81153000D01*
X53848000Y-81133000D01*
X54102000Y-81133000D01*
X54102000Y-81153000D01*
X56388000Y-81153000D01*
X56388000Y-81133000D01*
X56642000Y-81133000D01*
X56642000Y-81153000D01*
X57835155Y-81153000D01*
X57956476Y-80923110D01*
X57786645Y-80513076D01*
X57396358Y-80084817D01*
X57253447Y-80017702D01*
X57594147Y-79790054D01*
X57916054Y-79308285D01*
X58003831Y-78867000D01*
X59560996Y-78867000D01*
X59560996Y-82860085D01*
X59277823Y-82859838D01*
X58918274Y-83008400D01*
X58817699Y-83108800D01*
X57820561Y-83108800D01*
X57594147Y-82769946D01*
X57253447Y-82542298D01*
X57396358Y-82475183D01*
X57786645Y-82046924D01*
X57956476Y-81636890D01*
X57835155Y-81407000D01*
X56642000Y-81407000D01*
X56642000Y-81427000D01*
X56388000Y-81427000D01*
X56388000Y-81407000D01*
X54102000Y-81407000D01*
X54102000Y-81427000D01*
X53848000Y-81427000D01*
X53848000Y-81407000D01*
X52654845Y-81407000D01*
X52533524Y-81636890D01*
X52703355Y-82046924D01*
X53093642Y-82475183D01*
X53236553Y-82542298D01*
X52895853Y-82769946D01*
X52573946Y-83251715D01*
X52460907Y-83820000D01*
X52573946Y-84388285D01*
X52895853Y-84870054D01*
X53225026Y-85090000D01*
X52895853Y-85309946D01*
X52573946Y-85791715D01*
X52460907Y-86360000D01*
X52573946Y-86928285D01*
X52895853Y-87410054D01*
X53225026Y-87630000D01*
X52895853Y-87849946D01*
X52573946Y-88331715D01*
X52460907Y-88900000D01*
X52573946Y-89468285D01*
X52895853Y-89950054D01*
X53236553Y-90177702D01*
X53093642Y-90244817D01*
X52703355Y-90673076D01*
X52533524Y-91083110D01*
X52654845Y-91313000D01*
X53848000Y-91313000D01*
X53848000Y-91293000D01*
X54102000Y-91293000D01*
X54102000Y-91313000D01*
X56388000Y-91313000D01*
X56388000Y-91293000D01*
X56642000Y-91293000D01*
X56642000Y-91313000D01*
X57835155Y-91313000D01*
X57956476Y-91083110D01*
X57786645Y-90673076D01*
X57396358Y-90244817D01*
X57253447Y-90177702D01*
X57594147Y-89950054D01*
X57820561Y-89611200D01*
X58854645Y-89611200D01*
X59017136Y-89773975D01*
X59376425Y-89923165D01*
X59560996Y-89923326D01*
X59560996Y-95240912D01*
X57966318Y-96835591D01*
X58029093Y-96520000D01*
X57916054Y-95951715D01*
X57594147Y-95469946D01*
X57264974Y-95250000D01*
X57594147Y-95030054D01*
X57916054Y-94548285D01*
X58029093Y-93980000D01*
X57916054Y-93411715D01*
X57594147Y-92929946D01*
X57253447Y-92702298D01*
X57396358Y-92635183D01*
X57786645Y-92206924D01*
X57956476Y-91796890D01*
X57835155Y-91567000D01*
X56642000Y-91567000D01*
X56642000Y-91587000D01*
X56388000Y-91587000D01*
X56388000Y-91567000D01*
X54102000Y-91567000D01*
X54102000Y-91587000D01*
X53848000Y-91587000D01*
X53848000Y-91567000D01*
X52654845Y-91567000D01*
X52533524Y-91796890D01*
X52703355Y-92206924D01*
X53093642Y-92635183D01*
X53236553Y-92702298D01*
X52895853Y-92929946D01*
X52573946Y-93411715D01*
X52460907Y-93980000D01*
X52573946Y-94548285D01*
X52895853Y-95030054D01*
X53225026Y-95250000D01*
X52895853Y-95469946D01*
X52573946Y-95951715D01*
X52460907Y-96520000D01*
X52573946Y-97088285D01*
X52895853Y-97570054D01*
X53225026Y-97790000D01*
X52895853Y-98009946D01*
X52573946Y-98491715D01*
X52460907Y-99060000D01*
X52573946Y-99628285D01*
X52895853Y-100110054D01*
X53236553Y-100337702D01*
X53093642Y-100404817D01*
X52703355Y-100833076D01*
X52533524Y-101243110D01*
X52654845Y-101473000D01*
X53848000Y-101473000D01*
X53848000Y-101453000D01*
X54102000Y-101453000D01*
X54102000Y-101473000D01*
X56388000Y-101473000D01*
X56388000Y-101453000D01*
X56642000Y-101453000D01*
X56642000Y-101473000D01*
X57835155Y-101473000D01*
X57956476Y-101243110D01*
X57786645Y-100833076D01*
X57396358Y-100404817D01*
X57253447Y-100337702D01*
X57594147Y-100110054D01*
X57916054Y-99628285D01*
X58029093Y-99060000D01*
X57920554Y-98514337D01*
X58004560Y-98514337D01*
X58276725Y-98460200D01*
X58507454Y-98306031D01*
X59865807Y-96947679D01*
X59865807Y-100229629D01*
X57939019Y-102156417D01*
X57873834Y-102156417D01*
X57956476Y-101956890D01*
X57835155Y-101727000D01*
X56642000Y-101727000D01*
X56642000Y-101747000D01*
X56388000Y-101747000D01*
X56388000Y-101727000D01*
X54102000Y-101727000D01*
X54102000Y-101747000D01*
X53848000Y-101747000D01*
X53848000Y-101727000D01*
X52654845Y-101727000D01*
X52533524Y-101956890D01*
X52703355Y-102366924D01*
X53093642Y-102795183D01*
X53236553Y-102862298D01*
X52895853Y-103089946D01*
X52573946Y-103571715D01*
X52460907Y-104140000D01*
X52573946Y-104708285D01*
X52895853Y-105190054D01*
X53225026Y-105410000D01*
X52895853Y-105629946D01*
X52573946Y-106111715D01*
X52460907Y-106680000D01*
X52573946Y-107248285D01*
X52895853Y-107730054D01*
X53225026Y-107950000D01*
X52895853Y-108169946D01*
X52573946Y-108651715D01*
X52460907Y-109220000D01*
X52573946Y-109788285D01*
X52895853Y-110270054D01*
X53236553Y-110497702D01*
X53093642Y-110564817D01*
X52703355Y-110993076D01*
X52533524Y-111403110D01*
X52654845Y-111633000D01*
X53848000Y-111633000D01*
X53848000Y-111613000D01*
X54102000Y-111613000D01*
X54102000Y-111633000D01*
X56388000Y-111633000D01*
X56388000Y-111613000D01*
X56642000Y-111613000D01*
X56642000Y-111633000D01*
X57835155Y-111633000D01*
X57956476Y-111403110D01*
X57786645Y-110993076D01*
X57396358Y-110564817D01*
X57253447Y-110497702D01*
X57594147Y-110270054D01*
X57916054Y-109788285D01*
X58029093Y-109220000D01*
X57927879Y-108711163D01*
X58199675Y-108711163D01*
X58471840Y-108657026D01*
X58702569Y-108502857D01*
X61689523Y-105515903D01*
X61843692Y-105285174D01*
X61853607Y-105235326D01*
X62115026Y-105410000D01*
X61785853Y-105629946D01*
X61463946Y-106111715D01*
X61350907Y-106680000D01*
X61463946Y-107248285D01*
X61785853Y-107730054D01*
X62115026Y-107950000D01*
X61785853Y-108169946D01*
X61463946Y-108651715D01*
X61350907Y-109220000D01*
X61463946Y-109788285D01*
X61785853Y-110270054D01*
X62126553Y-110497702D01*
X61983642Y-110564817D01*
X61593355Y-110993076D01*
X61423524Y-111403110D01*
X61544845Y-111633000D01*
X62738000Y-111633000D01*
X62738000Y-111613000D01*
X62992000Y-111613000D01*
X62992000Y-111633000D01*
X65278000Y-111633000D01*
X65278000Y-111613000D01*
X65532000Y-111613000D01*
X65532000Y-111633000D01*
X66725155Y-111633000D01*
X66846476Y-111403110D01*
X66676645Y-110993076D01*
X66286358Y-110564817D01*
X66143447Y-110497702D01*
X66484147Y-110270054D01*
X66806054Y-109788285D01*
X66919093Y-109220000D01*
X66806054Y-108651715D01*
X66484147Y-108169946D01*
X66154974Y-107950000D01*
X66484147Y-107730054D01*
X66806054Y-107248285D01*
X66919093Y-106680000D01*
X66806054Y-106111715D01*
X66484147Y-105629946D01*
X66154974Y-105410000D01*
X66484147Y-105190054D01*
X66806054Y-104708285D01*
X66919093Y-104140000D01*
X66806054Y-103571715D01*
X66484147Y-103089946D01*
X66143447Y-102862298D01*
X66286358Y-102795183D01*
X66676645Y-102366924D01*
X66846476Y-101956890D01*
X66725155Y-101727000D01*
X65532000Y-101727000D01*
X65532000Y-101747000D01*
X65278000Y-101747000D01*
X65278000Y-101727000D01*
X62992000Y-101727000D01*
X62992000Y-101747000D01*
X62738000Y-101747000D01*
X62738000Y-101727000D01*
X62718000Y-101727000D01*
X62718000Y-101473000D01*
X62738000Y-101473000D01*
X62738000Y-101453000D01*
X62992000Y-101453000D01*
X62992000Y-101473000D01*
X65278000Y-101473000D01*
X65278000Y-101453000D01*
X65532000Y-101453000D01*
X65532000Y-101473000D01*
X66725155Y-101473000D01*
X66846476Y-101243110D01*
X66676645Y-100833076D01*
X66286358Y-100404817D01*
X66143447Y-100337702D01*
X66484147Y-100110054D01*
X66806054Y-99628285D01*
X66919093Y-99060000D01*
X66806054Y-98491715D01*
X66684637Y-98310000D01*
X68452560Y-98310000D01*
X68452560Y-99810000D01*
X68496838Y-100045317D01*
X68635910Y-100261441D01*
X68735860Y-100329734D01*
X68648559Y-100385910D01*
X68503569Y-100598110D01*
X68452560Y-100850000D01*
X68452560Y-102350000D01*
X68496838Y-102585317D01*
X68635910Y-102801441D01*
X68735860Y-102869734D01*
X68648559Y-102925910D01*
X68503569Y-103138110D01*
X68452560Y-103390000D01*
X68452560Y-104890000D01*
X68496838Y-105125317D01*
X68635910Y-105341441D01*
X68735860Y-105409734D01*
X68648559Y-105465910D01*
X68503569Y-105678110D01*
X68452560Y-105930000D01*
X68452560Y-107430000D01*
X68496838Y-107665317D01*
X68635910Y-107881441D01*
X68735860Y-107949734D01*
X68648559Y-108005910D01*
X68503569Y-108218110D01*
X68452560Y-108470000D01*
X68452560Y-109970000D01*
X68496838Y-110205317D01*
X68635910Y-110421441D01*
X68735860Y-110489734D01*
X68648559Y-110545910D01*
X68503569Y-110758110D01*
X68452560Y-111010000D01*
X68452560Y-112510000D01*
X68496838Y-112745317D01*
X68635910Y-112961441D01*
X68848110Y-113106431D01*
X69100000Y-113157440D01*
X70600000Y-113157440D01*
X70835317Y-113113162D01*
X71051441Y-112974090D01*
X71196431Y-112761890D01*
X71247440Y-112510000D01*
X71247440Y-112471200D01*
X75235529Y-112471200D01*
X75841568Y-113077240D01*
X76072297Y-113231408D01*
X76344462Y-113285545D01*
X77114456Y-113285545D01*
X77386621Y-113231408D01*
X77617350Y-113077239D01*
X78300513Y-112394077D01*
X78466312Y-112394221D01*
X78825861Y-112245659D01*
X79101189Y-111970811D01*
X79250379Y-111611522D01*
X79250718Y-111222489D01*
X79169438Y-111025776D01*
X79185214Y-111010000D01*
X79882560Y-111010000D01*
X79882560Y-112510000D01*
X79926838Y-112745317D01*
X80065910Y-112961441D01*
X80278110Y-113106431D01*
X80439512Y-113139116D01*
X80302270Y-113469630D01*
X80301931Y-113858663D01*
X80450493Y-114218212D01*
X80725341Y-114493540D01*
X81084630Y-114642730D01*
X81473663Y-114643069D01*
X81833212Y-114494507D01*
X82108540Y-114219659D01*
X82257730Y-113860370D01*
X82258069Y-113471337D01*
X82121274Y-113140266D01*
X82265317Y-113113162D01*
X82481441Y-112974090D01*
X82549734Y-112874140D01*
X82605910Y-112961441D01*
X82818110Y-113106431D01*
X83070000Y-113157440D01*
X84570000Y-113157440D01*
X84805317Y-113113162D01*
X85021441Y-112974090D01*
X85089734Y-112874140D01*
X85145910Y-112961441D01*
X85358110Y-113106431D01*
X85610000Y-113157440D01*
X85677696Y-113157440D01*
X85702937Y-113284333D01*
X85857106Y-113515062D01*
X86283390Y-113941347D01*
X86500903Y-114086684D01*
X86514120Y-114095515D01*
X86786284Y-114149652D01*
X87308464Y-114149652D01*
X87425599Y-114266992D01*
X87784888Y-114416182D01*
X88173921Y-114416521D01*
X88533470Y-114267959D01*
X88609950Y-114191612D01*
X88715423Y-114297269D01*
X89074712Y-114446459D01*
X89463745Y-114446798D01*
X89823294Y-114298236D01*
X90098622Y-114023388D01*
X90247812Y-113664099D01*
X90248151Y-113275066D01*
X90115368Y-112953706D01*
X90169734Y-112874140D01*
X90225910Y-112961441D01*
X90371377Y-113060834D01*
X90290672Y-113255193D01*
X90290333Y-113644226D01*
X90438895Y-114003775D01*
X90713743Y-114279103D01*
X91073032Y-114428293D01*
X91462065Y-114428632D01*
X91821614Y-114280070D01*
X92096942Y-114005222D01*
X92246132Y-113645933D01*
X92246471Y-113256900D01*
X92204266Y-113154756D01*
X92425317Y-113113162D01*
X92641441Y-112974090D01*
X92786431Y-112761890D01*
X92837440Y-112510000D01*
X92837440Y-111010000D01*
X92793162Y-110774683D01*
X92654090Y-110558559D01*
X92441890Y-110413569D01*
X92190000Y-110362560D01*
X90690000Y-110362560D01*
X90454683Y-110406838D01*
X90238559Y-110545910D01*
X90170266Y-110645860D01*
X90114090Y-110558559D01*
X89901890Y-110413569D01*
X89650000Y-110362560D01*
X88150000Y-110362560D01*
X87914683Y-110406838D01*
X87698559Y-110545910D01*
X87630266Y-110645860D01*
X87574090Y-110558559D01*
X87361890Y-110413569D01*
X87110000Y-110362560D01*
X85963763Y-110362560D01*
X86106327Y-110019229D01*
X86106666Y-109630196D01*
X85958104Y-109270647D01*
X85683256Y-108995319D01*
X85323967Y-108846129D01*
X84934934Y-108845790D01*
X84575385Y-108994352D01*
X84300057Y-109269200D01*
X84227234Y-109444577D01*
X83317106Y-110354706D01*
X83311858Y-110362560D01*
X83070000Y-110362560D01*
X82834683Y-110406838D01*
X82618559Y-110545910D01*
X82550266Y-110645860D01*
X82494090Y-110558559D01*
X82281890Y-110413569D01*
X82030000Y-110362560D01*
X80530000Y-110362560D01*
X80294683Y-110406838D01*
X80078559Y-110545910D01*
X79933569Y-110758110D01*
X79882560Y-111010000D01*
X79185214Y-111010000D01*
X79242894Y-110952320D01*
X79397062Y-110721590D01*
X79397063Y-110721589D01*
X79417780Y-110617440D01*
X79490000Y-110617440D01*
X79725317Y-110573162D01*
X79941441Y-110434090D01*
X80086431Y-110221890D01*
X80137440Y-109970000D01*
X80137440Y-108470000D01*
X80093162Y-108234683D01*
X79954090Y-108018559D01*
X79854140Y-107950266D01*
X79941441Y-107894090D01*
X80086431Y-107681890D01*
X80137440Y-107430000D01*
X80137440Y-105930000D01*
X80093162Y-105694683D01*
X79954090Y-105478559D01*
X79854140Y-105410266D01*
X79941441Y-105354090D01*
X80086431Y-105141890D01*
X80137440Y-104890000D01*
X80137440Y-104676269D01*
X94366015Y-104676269D01*
X94528084Y-105068504D01*
X94827917Y-105368862D01*
X95219869Y-105531615D01*
X95644269Y-105531985D01*
X96036504Y-105369916D01*
X96336862Y-105070083D01*
X96499615Y-104678131D01*
X96499985Y-104253731D01*
X96337916Y-103861496D01*
X96038083Y-103561138D01*
X95646131Y-103398385D01*
X95221731Y-103398015D01*
X94829496Y-103560084D01*
X94529138Y-103859917D01*
X94366385Y-104251869D01*
X94366015Y-104676269D01*
X80137440Y-104676269D01*
X80137440Y-103390000D01*
X80093162Y-103154683D01*
X79954090Y-102938559D01*
X79854140Y-102870266D01*
X79941441Y-102814090D01*
X80086431Y-102601890D01*
X80137440Y-102350000D01*
X80137440Y-100850000D01*
X80093162Y-100614683D01*
X79954090Y-100398559D01*
X79854140Y-100330266D01*
X79941441Y-100274090D01*
X80086431Y-100061890D01*
X80137440Y-99810000D01*
X80137440Y-98310000D01*
X80093162Y-98074683D01*
X79954090Y-97858559D01*
X79741890Y-97713569D01*
X79490000Y-97662560D01*
X78318097Y-97662560D01*
X78447730Y-97350370D01*
X78447876Y-97182912D01*
X78983349Y-96647440D01*
X79490000Y-96647440D01*
X79725317Y-96603162D01*
X79941441Y-96464090D01*
X80086431Y-96251890D01*
X80137440Y-96000000D01*
X80137440Y-95548877D01*
X89660101Y-95548877D01*
X89822170Y-95941112D01*
X90122003Y-96241470D01*
X90513955Y-96404223D01*
X90938355Y-96404593D01*
X91330590Y-96242524D01*
X91630948Y-95942691D01*
X91793701Y-95550739D01*
X91794071Y-95126339D01*
X91632002Y-94734104D01*
X91489086Y-94590938D01*
X91489086Y-91781112D01*
X93339318Y-89930881D01*
X93539766Y-89931056D01*
X93932001Y-89768987D01*
X94232359Y-89469154D01*
X94395112Y-89077202D01*
X94395482Y-88652802D01*
X94233413Y-88260567D01*
X93933580Y-87960209D01*
X93541628Y-87797456D01*
X93117228Y-87797086D01*
X92724993Y-87959155D01*
X92424635Y-88258988D01*
X92261882Y-88650940D01*
X92261706Y-88853232D01*
X90188271Y-90926667D01*
X90023090Y-91173877D01*
X89965086Y-91465482D01*
X89965086Y-94590911D01*
X89823224Y-94732525D01*
X89660471Y-95124477D01*
X89660101Y-95548877D01*
X80137440Y-95548877D01*
X80137440Y-94500000D01*
X80093162Y-94264683D01*
X79954090Y-94048559D01*
X79854140Y-93980266D01*
X79941441Y-93924090D01*
X80086431Y-93711890D01*
X80137440Y-93460000D01*
X80137440Y-91960000D01*
X80093162Y-91724683D01*
X79954090Y-91508559D01*
X79741890Y-91363569D01*
X79490000Y-91312560D01*
X78870628Y-91312560D01*
X79877894Y-90305294D01*
X79883142Y-90297440D01*
X80125000Y-90297440D01*
X80360317Y-90253162D01*
X80576441Y-90114090D01*
X80721431Y-89901890D01*
X80772440Y-89650000D01*
X80772440Y-88150000D01*
X80728162Y-87914683D01*
X80589090Y-87698559D01*
X80376890Y-87553569D01*
X80125000Y-87502560D01*
X78625000Y-87502560D01*
X78389683Y-87546838D01*
X78173559Y-87685910D01*
X78105266Y-87785860D01*
X78049090Y-87698559D01*
X77836890Y-87553569D01*
X77585000Y-87502560D01*
X76085000Y-87502560D01*
X75849683Y-87546838D01*
X75633559Y-87685910D01*
X75488569Y-87898110D01*
X75437560Y-88150000D01*
X75437560Y-89650000D01*
X75481838Y-89885317D01*
X75620910Y-90101441D01*
X75747241Y-90187759D01*
X75730270Y-90228630D01*
X75729931Y-90617663D01*
X75878493Y-90977212D01*
X76153341Y-91252540D01*
X76512630Y-91401730D01*
X76901663Y-91402069D01*
X77019268Y-91353476D01*
X77095568Y-91538137D01*
X77370416Y-91813465D01*
X77372093Y-91814161D01*
X77342560Y-91960000D01*
X77342560Y-92024149D01*
X77242990Y-92043955D01*
X77197835Y-92052937D01*
X76967105Y-92207106D01*
X76172136Y-93002075D01*
X76006337Y-93001931D01*
X75869669Y-93058401D01*
X75759507Y-92791788D01*
X75484659Y-92516460D01*
X75125370Y-92367270D01*
X74957912Y-92367124D01*
X74797894Y-92207106D01*
X74567165Y-92052937D01*
X74295000Y-91998800D01*
X73787440Y-91998800D01*
X73787440Y-91960000D01*
X73743162Y-91724683D01*
X73604090Y-91508559D01*
X73391890Y-91363569D01*
X73140000Y-91312560D01*
X71640000Y-91312560D01*
X71404683Y-91356838D01*
X71188559Y-91495910D01*
X71043569Y-91708110D01*
X70992560Y-91960000D01*
X70992560Y-93460000D01*
X71036838Y-93695317D01*
X71175910Y-93911441D01*
X71275860Y-93979734D01*
X71188559Y-94035910D01*
X71043569Y-94248110D01*
X70992560Y-94500000D01*
X70992560Y-96000000D01*
X71036838Y-96235317D01*
X71175910Y-96451441D01*
X71388110Y-96596431D01*
X71640000Y-96647440D01*
X71704149Y-96647440D01*
X71732937Y-96792165D01*
X71887106Y-97022894D01*
X72047075Y-97182864D01*
X72046931Y-97348663D01*
X72195493Y-97708212D01*
X72214226Y-97726978D01*
X71374222Y-97726978D01*
X71155393Y-97770506D01*
X71102057Y-97781115D01*
X71025557Y-97832231D01*
X70851890Y-97713569D01*
X70600000Y-97662560D01*
X69100000Y-97662560D01*
X68864683Y-97706838D01*
X68648559Y-97845910D01*
X68503569Y-98058110D01*
X68452560Y-98310000D01*
X66684637Y-98310000D01*
X66484147Y-98009946D01*
X66154974Y-97790000D01*
X66484147Y-97570054D01*
X66806054Y-97088285D01*
X66919093Y-96520000D01*
X66806054Y-95951715D01*
X66805456Y-95950820D01*
X66860630Y-95973730D01*
X67249663Y-95974069D01*
X67609212Y-95825507D01*
X67727726Y-95707200D01*
X68275217Y-95707200D01*
X68394477Y-95826668D01*
X68753766Y-95975858D01*
X69142799Y-95976197D01*
X69502348Y-95827635D01*
X69777676Y-95552787D01*
X69926866Y-95193498D01*
X69927205Y-94804465D01*
X69778643Y-94444916D01*
X69503795Y-94169588D01*
X69144506Y-94020398D01*
X68755473Y-94020059D01*
X68395924Y-94168621D01*
X68279542Y-94284800D01*
X67727794Y-94284800D01*
X67610659Y-94167460D01*
X67251370Y-94018270D01*
X66911540Y-94017974D01*
X66919093Y-93980000D01*
X66806054Y-93411715D01*
X66484147Y-92929946D01*
X66143447Y-92702298D01*
X66286358Y-92635183D01*
X66676645Y-92206924D01*
X66846476Y-91796890D01*
X66725155Y-91567000D01*
X65532000Y-91567000D01*
X65532000Y-91587000D01*
X65278000Y-91587000D01*
X65278000Y-91567000D01*
X62992000Y-91567000D01*
X62992000Y-91587000D01*
X62738000Y-91587000D01*
X62738000Y-91567000D01*
X62718000Y-91567000D01*
X62718000Y-91313000D01*
X62738000Y-91313000D01*
X62738000Y-91293000D01*
X62992000Y-91293000D01*
X62992000Y-91313000D01*
X65278000Y-91313000D01*
X65278000Y-91293000D01*
X65532000Y-91293000D01*
X65532000Y-91313000D01*
X66725155Y-91313000D01*
X66846476Y-91083110D01*
X66676645Y-90673076D01*
X66286358Y-90244817D01*
X66143447Y-90177702D01*
X66484147Y-89950054D01*
X66806054Y-89468285D01*
X66919093Y-88900000D01*
X66806054Y-88331715D01*
X66484147Y-87849946D01*
X66154974Y-87630000D01*
X66484147Y-87410054D01*
X66806054Y-86928285D01*
X66919093Y-86360000D01*
X66809689Y-85809987D01*
X67555213Y-85809987D01*
X67827378Y-85755850D01*
X68058107Y-85601681D01*
X69115863Y-84543925D01*
X69281663Y-84544069D01*
X69641212Y-84395507D01*
X69916540Y-84120659D01*
X70065730Y-83761370D01*
X70066069Y-83372337D01*
X69917507Y-83012788D01*
X69642659Y-82737460D01*
X69506115Y-82680762D01*
X69626611Y-82560266D01*
X69792410Y-82560410D01*
X70151959Y-82411848D01*
X70427287Y-82137000D01*
X70576477Y-81777711D01*
X70576816Y-81388678D01*
X70428254Y-81029129D01*
X70153406Y-80753801D01*
X69794117Y-80604611D01*
X69405084Y-80604272D01*
X69045535Y-80752834D01*
X68770207Y-81027682D01*
X68621017Y-81386971D01*
X68620871Y-81554428D01*
X68350564Y-81824736D01*
X66768673Y-81824736D01*
X66846476Y-81636890D01*
X66725155Y-81407000D01*
X65532000Y-81407000D01*
X65532000Y-81427000D01*
X65278000Y-81427000D01*
X65278000Y-81407000D01*
X62992000Y-81407000D01*
X62992000Y-81427000D01*
X62738000Y-81427000D01*
X62738000Y-81407000D01*
X61544845Y-81407000D01*
X61423524Y-81636890D01*
X61516390Y-81861103D01*
X61472208Y-81869891D01*
X61427053Y-81878873D01*
X61288207Y-81971647D01*
X61288207Y-81219877D01*
X61479295Y-81028789D01*
X61544845Y-81153000D01*
X62738000Y-81153000D01*
X62738000Y-81133000D01*
X62992000Y-81133000D01*
X62992000Y-81153000D01*
X65278000Y-81153000D01*
X65278000Y-81133000D01*
X65532000Y-81133000D01*
X65532000Y-81153000D01*
X66725155Y-81153000D01*
X66846476Y-80923110D01*
X66775059Y-80750683D01*
X68042517Y-80750683D01*
X68314682Y-80696546D01*
X68545411Y-80542377D01*
X68861863Y-80225925D01*
X69027663Y-80226069D01*
X69387212Y-80077507D01*
X69662540Y-79802659D01*
X69811730Y-79443370D01*
X69812069Y-79054337D01*
X69734663Y-78867000D01*
X98454201Y-78867000D01*
X98454201Y-85596174D01*
X98372114Y-85514087D01*
X98448841Y-85329309D01*
X98449180Y-84940276D01*
X98300618Y-84580727D01*
X98025770Y-84305399D01*
X97666481Y-84156209D01*
X97277448Y-84155870D01*
X96917899Y-84304432D01*
X96642571Y-84579280D01*
X96493381Y-84938569D01*
X96493304Y-85026508D01*
X96478870Y-85020514D01*
X96089837Y-85020175D01*
X95730288Y-85168737D01*
X95454960Y-85443585D01*
X95305770Y-85802874D01*
X95305431Y-86191907D01*
X95453993Y-86551456D01*
X95618701Y-86716452D01*
X95626437Y-86755342D01*
X95780606Y-86986071D01*
X97839401Y-89044866D01*
X97839401Y-102360601D01*
X97893538Y-102632766D01*
X98047707Y-102863495D01*
X101677476Y-106493265D01*
X101677476Y-107315000D01*
X101731613Y-107587165D01*
X101885782Y-107817894D01*
X102524397Y-108456510D01*
X102635868Y-108530992D01*
X102755128Y-108610679D01*
X102765047Y-108612652D01*
X102738946Y-108651715D01*
X102625907Y-109220000D01*
X102738946Y-109788285D01*
X103060853Y-110270054D01*
X103390026Y-110490000D01*
X103060853Y-110709946D01*
X102738946Y-111191715D01*
X102625907Y-111760000D01*
X102738946Y-112328285D01*
X103060853Y-112810054D01*
X103390026Y-113030000D01*
X103060853Y-113249946D01*
X102738946Y-113731715D01*
X102625907Y-114300000D01*
X102738946Y-114868285D01*
X103060853Y-115350054D01*
X103542622Y-115671961D01*
X104110907Y-115785000D01*
X104169093Y-115785000D01*
X104737378Y-115671961D01*
X105219147Y-115350054D01*
X105410000Y-115064422D01*
X105600853Y-115350054D01*
X106082622Y-115671961D01*
X106650907Y-115785000D01*
X106709093Y-115785000D01*
X107277378Y-115671961D01*
X107759147Y-115350054D01*
X108081054Y-114868285D01*
X108194093Y-114300000D01*
X108081054Y-113731715D01*
X107759147Y-113249946D01*
X107429974Y-113030000D01*
X107759147Y-112810054D01*
X107985561Y-112471200D01*
X109056206Y-112471200D01*
X109173341Y-112588540D01*
X109532630Y-112737730D01*
X109921663Y-112738069D01*
X110281212Y-112589507D01*
X110556540Y-112314659D01*
X110638660Y-112116890D01*
X111588524Y-112116890D01*
X111758355Y-112526924D01*
X112148642Y-112955183D01*
X112673108Y-113201486D01*
X112903000Y-113080819D01*
X112903000Y-111887000D01*
X113157000Y-111887000D01*
X113157000Y-113080819D01*
X113386892Y-113201486D01*
X113911358Y-112955183D01*
X114300000Y-112528729D01*
X114688642Y-112955183D01*
X115213108Y-113201486D01*
X115443000Y-113080819D01*
X115443000Y-111887000D01*
X115697000Y-111887000D01*
X115697000Y-113080819D01*
X115926892Y-113201486D01*
X116451358Y-112955183D01*
X116841645Y-112526924D01*
X117011476Y-112116890D01*
X116890155Y-111887000D01*
X115697000Y-111887000D01*
X115443000Y-111887000D01*
X113157000Y-111887000D01*
X112903000Y-111887000D01*
X111709845Y-111887000D01*
X111588524Y-112116890D01*
X110638660Y-112116890D01*
X110705730Y-111955370D01*
X110706069Y-111566337D01*
X110557507Y-111206788D01*
X110282659Y-110931460D01*
X109923370Y-110782270D01*
X109534337Y-110781931D01*
X109174788Y-110930493D01*
X109056274Y-111048800D01*
X107985561Y-111048800D01*
X107759147Y-110709946D01*
X107429974Y-110490000D01*
X107759147Y-110270054D01*
X107985561Y-109931200D01*
X109818206Y-109931200D01*
X109935341Y-110048540D01*
X110294630Y-110197730D01*
X110683663Y-110198069D01*
X111043212Y-110049507D01*
X111318540Y-109774659D01*
X111467730Y-109415370D01*
X111468069Y-109026337D01*
X111319507Y-108666788D01*
X111317538Y-108664816D01*
X111626340Y-108664816D01*
X111515907Y-109220000D01*
X111628946Y-109788285D01*
X111950853Y-110270054D01*
X112291553Y-110497702D01*
X112148642Y-110564817D01*
X111758355Y-110993076D01*
X111588524Y-111403110D01*
X111709845Y-111633000D01*
X112903000Y-111633000D01*
X112903000Y-111613000D01*
X113157000Y-111613000D01*
X113157000Y-111633000D01*
X115443000Y-111633000D01*
X115443000Y-111613000D01*
X115697000Y-111613000D01*
X115697000Y-111633000D01*
X116890155Y-111633000D01*
X117011476Y-111403110D01*
X116841645Y-110993076D01*
X116451358Y-110564817D01*
X116308447Y-110497702D01*
X116649147Y-110270054D01*
X116971054Y-109788285D01*
X117084093Y-109220000D01*
X116971054Y-108651715D01*
X116950741Y-108621315D01*
X117004210Y-108610679D01*
X117234939Y-108456510D01*
X118009448Y-107682002D01*
X118163616Y-107451272D01*
X118217753Y-107179108D01*
X118217753Y-106076553D01*
X118163616Y-105804389D01*
X118118104Y-105736275D01*
X118009448Y-105573659D01*
X116999760Y-104563971D01*
X117084093Y-104140000D01*
X116971054Y-103571715D01*
X116649147Y-103089946D01*
X116308447Y-102862298D01*
X116451358Y-102795183D01*
X116841645Y-102366924D01*
X117011476Y-101956890D01*
X116890155Y-101727000D01*
X115697000Y-101727000D01*
X115697000Y-101747000D01*
X115443000Y-101747000D01*
X115443000Y-101727000D01*
X115423000Y-101727000D01*
X115423000Y-101473000D01*
X115443000Y-101473000D01*
X115443000Y-101453000D01*
X115697000Y-101453000D01*
X115697000Y-101473000D01*
X116890155Y-101473000D01*
X117011476Y-101243110D01*
X116841645Y-100833076D01*
X116451358Y-100404817D01*
X116308447Y-100337702D01*
X116649147Y-100110054D01*
X116971054Y-99628285D01*
X117084093Y-99060000D01*
X116971054Y-98491715D01*
X116649147Y-98009946D01*
X116319974Y-97790000D01*
X116649147Y-97570054D01*
X116971054Y-97088285D01*
X117084093Y-96520000D01*
X116971054Y-95951715D01*
X116649147Y-95469946D01*
X116319974Y-95250000D01*
X116649147Y-95030054D01*
X116971054Y-94548285D01*
X117084093Y-93980000D01*
X116971054Y-93411715D01*
X116649147Y-92929946D01*
X116308447Y-92702298D01*
X116451358Y-92635183D01*
X116841645Y-92206924D01*
X117011476Y-91796890D01*
X116890155Y-91567000D01*
X115697000Y-91567000D01*
X115697000Y-91587000D01*
X115443000Y-91587000D01*
X115443000Y-91567000D01*
X113157000Y-91567000D01*
X113157000Y-91587000D01*
X112903000Y-91587000D01*
X112903000Y-91567000D01*
X112883000Y-91567000D01*
X112883000Y-91313000D01*
X112903000Y-91313000D01*
X112903000Y-91293000D01*
X113157000Y-91293000D01*
X113157000Y-91313000D01*
X115443000Y-91313000D01*
X115443000Y-91293000D01*
X115697000Y-91293000D01*
X115697000Y-91313000D01*
X116890155Y-91313000D01*
X117011476Y-91083110D01*
X116841645Y-90673076D01*
X116451358Y-90244817D01*
X116308447Y-90177702D01*
X116649147Y-89950054D01*
X116875561Y-89611200D01*
X117605016Y-89611200D01*
X117630910Y-89651441D01*
X117843110Y-89796431D01*
X118095000Y-89847440D01*
X118495000Y-89847440D01*
X118730317Y-89803162D01*
X118741979Y-89795658D01*
X118743110Y-89796431D01*
X118995000Y-89847440D01*
X119395000Y-89847440D01*
X119630317Y-89803162D01*
X119634903Y-89800211D01*
X120507585Y-90672894D01*
X120617900Y-90746604D01*
X120478524Y-91083110D01*
X120599845Y-91313000D01*
X121793000Y-91313000D01*
X121793000Y-91293000D01*
X122047000Y-91293000D01*
X122047000Y-91313000D01*
X124333000Y-91313000D01*
X124333000Y-91293000D01*
X124587000Y-91293000D01*
X124587000Y-91313000D01*
X124607000Y-91313000D01*
X124607000Y-91567000D01*
X124587000Y-91567000D01*
X124587000Y-91587000D01*
X124333000Y-91587000D01*
X124333000Y-91567000D01*
X122047000Y-91567000D01*
X122047000Y-91587000D01*
X121793000Y-91587000D01*
X121793000Y-91567000D01*
X120599845Y-91567000D01*
X120478524Y-91796890D01*
X120648355Y-92206924D01*
X121038642Y-92635183D01*
X121181553Y-92702298D01*
X120840853Y-92929946D01*
X120518946Y-93411715D01*
X120405907Y-93980000D01*
X120518946Y-94548285D01*
X120840853Y-95030054D01*
X121170026Y-95250000D01*
X120840853Y-95469946D01*
X120518946Y-95951715D01*
X120405907Y-96520000D01*
X120490240Y-96943972D01*
X118696403Y-98737809D01*
X118542234Y-98968538D01*
X118497764Y-99192106D01*
X118488097Y-99240703D01*
X118488097Y-114465452D01*
X118542234Y-114737617D01*
X118696403Y-114968346D01*
X120621219Y-116893162D01*
X120621219Y-121415531D01*
X118441321Y-123595430D01*
X99127235Y-123595430D01*
X96632008Y-121100203D01*
X96632008Y-120208663D01*
X97446931Y-120208663D01*
X97595493Y-120568212D01*
X97677040Y-120649901D01*
X97596460Y-120730341D01*
X97447270Y-121089630D01*
X97446931Y-121478663D01*
X97595493Y-121838212D01*
X97870341Y-122113540D01*
X98229630Y-122262730D01*
X98618663Y-122263069D01*
X98978212Y-122114507D01*
X99096726Y-121996200D01*
X117475000Y-121996200D01*
X117747165Y-121942063D01*
X117977894Y-121787894D01*
X119407863Y-120357925D01*
X119573663Y-120358069D01*
X119933212Y-120209507D01*
X120208540Y-119934659D01*
X120357730Y-119575370D01*
X120358069Y-119186337D01*
X120209507Y-118826788D01*
X119934659Y-118551460D01*
X119575370Y-118402270D01*
X119186337Y-118401931D01*
X119004975Y-118476868D01*
X119081574Y-118292398D01*
X119081913Y-117903365D01*
X118933351Y-117543816D01*
X118658503Y-117268488D01*
X118299214Y-117119298D01*
X117910181Y-117118959D01*
X117772297Y-117175931D01*
X117825392Y-117048065D01*
X117825731Y-116659032D01*
X117677169Y-116299483D01*
X117402321Y-116024155D01*
X117043032Y-115874965D01*
X116653999Y-115874626D01*
X116457801Y-115955693D01*
X116545505Y-115744478D01*
X116545844Y-115355445D01*
X116397282Y-114995896D01*
X116122434Y-114720568D01*
X115763145Y-114571378D01*
X115374112Y-114571039D01*
X115014563Y-114719601D01*
X114922008Y-114811994D01*
X114854402Y-114744270D01*
X114495113Y-114595080D01*
X114106080Y-114594741D01*
X113746531Y-114743303D01*
X113471203Y-115018151D01*
X113322013Y-115377440D01*
X113321867Y-115544897D01*
X112737965Y-116128800D01*
X103212967Y-116128800D01*
X103213069Y-116011337D01*
X103064507Y-115651788D01*
X102789659Y-115376460D01*
X102430370Y-115227270D01*
X102041337Y-115226931D01*
X101681788Y-115375493D01*
X101406460Y-115650341D01*
X101257270Y-116009630D01*
X101256931Y-116398663D01*
X101326111Y-116566092D01*
X101160370Y-116497270D01*
X100771337Y-116496931D01*
X100411788Y-116645493D01*
X100136460Y-116920341D01*
X99987270Y-117279630D01*
X99986931Y-117668663D01*
X100056111Y-117836092D01*
X99890370Y-117767270D01*
X99501337Y-117766931D01*
X99141788Y-117915493D01*
X98866460Y-118190341D01*
X98717270Y-118549630D01*
X98716931Y-118938663D01*
X98786111Y-119106092D01*
X98620370Y-119037270D01*
X98231337Y-119036931D01*
X97871788Y-119185493D01*
X97596460Y-119460341D01*
X97447270Y-119819630D01*
X97446931Y-120208663D01*
X96632008Y-120208663D01*
X96632008Y-120016049D01*
X96713540Y-119934659D01*
X96862730Y-119575370D01*
X96863069Y-119186337D01*
X96714507Y-118826788D01*
X96439659Y-118551460D01*
X96080370Y-118402270D01*
X95691337Y-118401931D01*
X95331788Y-118550493D01*
X95056460Y-118825341D01*
X94907270Y-119184630D01*
X94906931Y-119573663D01*
X95055493Y-119933212D01*
X95209608Y-120087596D01*
X95209608Y-121394791D01*
X95263745Y-121666956D01*
X95417914Y-121897685D01*
X95618367Y-122098138D01*
X95580168Y-122136270D01*
X95430978Y-122495559D01*
X95430639Y-122884592D01*
X95579201Y-123244141D01*
X95854049Y-123519469D01*
X96213338Y-123668659D01*
X96380796Y-123668805D01*
X96917043Y-124205052D01*
X96378425Y-124205052D01*
X96333507Y-124096341D01*
X96058659Y-123821013D01*
X95699370Y-123671823D01*
X95310337Y-123671484D01*
X94950788Y-123820046D01*
X94720097Y-124050335D01*
X94742440Y-123940000D01*
X94742440Y-122440000D01*
X94698162Y-122204683D01*
X94559090Y-121988559D01*
X94346890Y-121843569D01*
X94095000Y-121792560D01*
X94056200Y-121792560D01*
X94056200Y-121736281D01*
X94085821Y-121736307D01*
X94445370Y-121587745D01*
X94720698Y-121312897D01*
X94869888Y-120953608D01*
X94870227Y-120564575D01*
X94721665Y-120205026D01*
X94446817Y-119929698D01*
X94087528Y-119780508D01*
X93698495Y-119780169D01*
X93338946Y-119928731D01*
X93063618Y-120203579D01*
X92914428Y-120562868D01*
X92914282Y-120730326D01*
X92842106Y-120802502D01*
X92687937Y-121033231D01*
X92644534Y-121251433D01*
X92633800Y-121305396D01*
X92633800Y-121792560D01*
X92595000Y-121792560D01*
X92359683Y-121836838D01*
X92143559Y-121975910D01*
X92075266Y-122075860D01*
X92019090Y-121988559D01*
X91806890Y-121843569D01*
X91555000Y-121792560D01*
X91516200Y-121792560D01*
X91516200Y-120992967D01*
X91633663Y-120993069D01*
X91993212Y-120844507D01*
X92268540Y-120569659D01*
X92417730Y-120210370D01*
X92418069Y-119821337D01*
X92269507Y-119461788D01*
X91994659Y-119186460D01*
X91635370Y-119037270D01*
X91246337Y-119036931D01*
X90886788Y-119185493D01*
X90611460Y-119460341D01*
X90462270Y-119819630D01*
X90462124Y-119987088D01*
X90302106Y-120147106D01*
X90147937Y-120377835D01*
X90132662Y-120454630D01*
X90093800Y-120650000D01*
X90093800Y-121792560D01*
X90055000Y-121792560D01*
X89819683Y-121836838D01*
X89603559Y-121975910D01*
X89535266Y-122075860D01*
X89479090Y-121988559D01*
X89266890Y-121843569D01*
X89105488Y-121810884D01*
X89242730Y-121480370D01*
X89243069Y-121091337D01*
X89094507Y-120731788D01*
X88819659Y-120456460D01*
X88460370Y-120307270D01*
X88071337Y-120306931D01*
X87711788Y-120455493D01*
X87436460Y-120730341D01*
X87287270Y-121089630D01*
X87286931Y-121478663D01*
X87423726Y-121809734D01*
X87279683Y-121836838D01*
X87063559Y-121975910D01*
X86995266Y-122075860D01*
X86939090Y-121988559D01*
X86726890Y-121843569D01*
X86475000Y-121792560D01*
X86436200Y-121792560D01*
X86436200Y-121321794D01*
X86553540Y-121204659D01*
X86702730Y-120845370D01*
X86703069Y-120456337D01*
X86554507Y-120096788D01*
X86279659Y-119821460D01*
X85920370Y-119672270D01*
X85531337Y-119671931D01*
X85171788Y-119820493D01*
X84896460Y-120095341D01*
X84747270Y-120454630D01*
X84746931Y-120843663D01*
X84895493Y-121203212D01*
X85013800Y-121321726D01*
X85013800Y-121792560D01*
X84975000Y-121792560D01*
X84739683Y-121836838D01*
X84523559Y-121975910D01*
X84455266Y-122075860D01*
X84399090Y-121988559D01*
X84186890Y-121843569D01*
X83935000Y-121792560D01*
X83896200Y-121792560D01*
X83896200Y-120686794D01*
X84013540Y-120569659D01*
X84162730Y-120210370D01*
X84163069Y-119821337D01*
X84014507Y-119461788D01*
X83739659Y-119186460D01*
X83380370Y-119037270D01*
X82991337Y-119036931D01*
X82631788Y-119185493D01*
X82356460Y-119460341D01*
X82207270Y-119819630D01*
X82206931Y-120208663D01*
X82355493Y-120568212D01*
X82473800Y-120686726D01*
X82473800Y-121792560D01*
X82435000Y-121792560D01*
X82199683Y-121836838D01*
X81983559Y-121975910D01*
X81915266Y-122075860D01*
X81859090Y-121988559D01*
X81646890Y-121843569D01*
X81485488Y-121810884D01*
X81622730Y-121480370D01*
X81623069Y-121091337D01*
X81474507Y-120731788D01*
X81199659Y-120456460D01*
X81193365Y-120453846D01*
X81241730Y-120337370D01*
X81242069Y-119948337D01*
X81093507Y-119588788D01*
X80818659Y-119313460D01*
X80459370Y-119164270D01*
X80070337Y-119163931D01*
X79710788Y-119312493D01*
X79435460Y-119587341D01*
X79286270Y-119946630D01*
X79286124Y-120114088D01*
X76504878Y-122895334D01*
X65460346Y-122895334D01*
X65094351Y-122529340D01*
X65094479Y-122382519D01*
X64945917Y-122022970D01*
X64671069Y-121747642D01*
X64311780Y-121598452D01*
X63922747Y-121598113D01*
X63761377Y-121664789D01*
X63849596Y-121452335D01*
X63849935Y-121063302D01*
X63701373Y-120703753D01*
X63426525Y-120428425D01*
X63067236Y-120279235D01*
X62678203Y-120278896D01*
X62318654Y-120427458D01*
X62043326Y-120702306D01*
X61894136Y-121061595D01*
X61893797Y-121450628D01*
X61985303Y-121672090D01*
X61748019Y-121573561D01*
X61358986Y-121573222D01*
X61186283Y-121644581D01*
X61260943Y-121464781D01*
X61261282Y-121075748D01*
X61112720Y-120716199D01*
X60837872Y-120440871D01*
X60478583Y-120291681D01*
X60089550Y-120291342D01*
X59730001Y-120439904D01*
X59454673Y-120714752D01*
X59305483Y-121074041D01*
X59305144Y-121463074D01*
X59375024Y-121632197D01*
X59216279Y-121566280D01*
X58827246Y-121565941D01*
X58467697Y-121714503D01*
X58192369Y-121989351D01*
X58043179Y-122348640D01*
X58042840Y-122737673D01*
X58191402Y-123097222D01*
X58466250Y-123372550D01*
X58825539Y-123521740D01*
X58992997Y-123521886D01*
X61203533Y-125732423D01*
X61301735Y-125798039D01*
X61434264Y-125886592D01*
X61706428Y-125940729D01*
X82047871Y-125940729D01*
X82320036Y-125886592D01*
X82550765Y-125732423D01*
X83670814Y-124612375D01*
X83604270Y-124772630D01*
X83603931Y-125161663D01*
X83752493Y-125521212D01*
X84027341Y-125796540D01*
X84386630Y-125945730D01*
X84554088Y-125945876D01*
X84846211Y-126238000D01*
X51562000Y-126238000D01*
X51562000Y-114251619D01*
X51866800Y-114251619D01*
X51866800Y-125778381D01*
X54914800Y-125778381D01*
X54914800Y-114251619D01*
X51866800Y-114251619D01*
X51562000Y-114251619D01*
X51562000Y-112116890D01*
X52533524Y-112116890D01*
X52703355Y-112526924D01*
X53093642Y-112955183D01*
X53618108Y-113201486D01*
X53848000Y-113080819D01*
X53848000Y-111887000D01*
X54102000Y-111887000D01*
X54102000Y-113080819D01*
X54331892Y-113201486D01*
X54856358Y-112955183D01*
X55245000Y-112528729D01*
X55633642Y-112955183D01*
X56158108Y-113201486D01*
X56388000Y-113080819D01*
X56388000Y-111887000D01*
X56642000Y-111887000D01*
X56642000Y-113080819D01*
X56871892Y-113201486D01*
X57396358Y-112955183D01*
X57786645Y-112526924D01*
X57956476Y-112116890D01*
X61423524Y-112116890D01*
X61593355Y-112526924D01*
X61983642Y-112955183D01*
X62508108Y-113201486D01*
X62738000Y-113080819D01*
X62738000Y-111887000D01*
X62992000Y-111887000D01*
X62992000Y-113080819D01*
X63221892Y-113201486D01*
X63746358Y-112955183D01*
X64135000Y-112528729D01*
X64523642Y-112955183D01*
X65048108Y-113201486D01*
X65278000Y-113080819D01*
X65278000Y-111887000D01*
X65532000Y-111887000D01*
X65532000Y-113080819D01*
X65761892Y-113201486D01*
X66286358Y-112955183D01*
X66676645Y-112526924D01*
X66846476Y-112116890D01*
X66725155Y-111887000D01*
X65532000Y-111887000D01*
X65278000Y-111887000D01*
X62992000Y-111887000D01*
X62738000Y-111887000D01*
X61544845Y-111887000D01*
X61423524Y-112116890D01*
X57956476Y-112116890D01*
X57835155Y-111887000D01*
X56642000Y-111887000D01*
X56388000Y-111887000D01*
X54102000Y-111887000D01*
X53848000Y-111887000D01*
X52654845Y-111887000D01*
X52533524Y-112116890D01*
X51562000Y-112116890D01*
X51562000Y-78867000D01*
X52486169Y-78867000D01*
X52573946Y-79308285D01*
G36*
X122047000Y-111633000D02*
X124333000Y-111633000D01*
X124333000Y-111613000D01*
X124587000Y-111613000D01*
X124587000Y-111633000D01*
X124607000Y-111633000D01*
X124607000Y-111887000D01*
X124587000Y-111887000D01*
X124587000Y-113080819D01*
X124816892Y-113201486D01*
X125341358Y-112955183D01*
X125568329Y-112706129D01*
X125568329Y-123615883D01*
X123642055Y-125542157D01*
X120230438Y-125542157D01*
X123054557Y-122718039D01*
X123208726Y-122487309D01*
X123222360Y-122418764D01*
X123262863Y-122215144D01*
X123262863Y-116093550D01*
X123208726Y-115821386D01*
X123208726Y-115821385D01*
X123054557Y-115590656D01*
X121129741Y-113665840D01*
X121129741Y-112997965D01*
X121563108Y-113201486D01*
X121793000Y-113080819D01*
X121793000Y-111887000D01*
X122047000Y-111887000D01*
X122047000Y-113080819D01*
X122276892Y-113201486D01*
X122801358Y-112955183D01*
X123190000Y-112528729D01*
X123578642Y-112955183D01*
X124103108Y-113201486D01*
X124333000Y-113080819D01*
X124333000Y-111887000D01*
X122047000Y-111887000D01*
X121793000Y-111887000D01*
X121773000Y-111887000D01*
X121773000Y-111633000D01*
X121793000Y-111633000D01*
X121793000Y-111613000D01*
X122047000Y-111613000D01*
X122047000Y-111633000D01*
X122047000Y-111633000D01*
G37*
X122047000Y-111633000D02*
X124333000Y-111633000D01*
X124333000Y-111613000D01*
X124587000Y-111613000D01*
X124587000Y-111633000D01*
X124607000Y-111633000D01*
X124607000Y-111887000D01*
X124587000Y-111887000D01*
X124587000Y-113080819D01*
X124816892Y-113201486D01*
X125341358Y-112955183D01*
X125568329Y-112706129D01*
X125568329Y-123615883D01*
X123642055Y-125542157D01*
X120230438Y-125542157D01*
X123054557Y-122718039D01*
X123208726Y-122487309D01*
X123222360Y-122418764D01*
X123262863Y-122215144D01*
X123262863Y-116093550D01*
X123208726Y-115821386D01*
X123208726Y-115821385D01*
X123054557Y-115590656D01*
X121129741Y-113665840D01*
X121129741Y-112997965D01*
X121563108Y-113201486D01*
X121793000Y-113080819D01*
X121793000Y-111887000D01*
X122047000Y-111887000D01*
X122047000Y-113080819D01*
X122276892Y-113201486D01*
X122801358Y-112955183D01*
X123190000Y-112528729D01*
X123578642Y-112955183D01*
X124103108Y-113201486D01*
X124333000Y-113080819D01*
X124333000Y-111887000D01*
X122047000Y-111887000D01*
X121793000Y-111887000D01*
X121773000Y-111887000D01*
X121773000Y-111633000D01*
X121793000Y-111633000D01*
X121793000Y-111613000D01*
X122047000Y-111613000D01*
X122047000Y-111633000D01*
G36*
X120599845Y-101473000D02*
X121793000Y-101473000D01*
X121793000Y-101453000D01*
X122047000Y-101453000D01*
X122047000Y-101473000D01*
X124333000Y-101473000D01*
X124333000Y-101453000D01*
X124587000Y-101453000D01*
X124587000Y-101473000D01*
X124607000Y-101473000D01*
X124607000Y-101727000D01*
X124587000Y-101727000D01*
X124587000Y-101747000D01*
X124333000Y-101747000D01*
X124333000Y-101727000D01*
X122047000Y-101727000D01*
X122047000Y-101747000D01*
X121793000Y-101747000D01*
X121793000Y-101727000D01*
X120599845Y-101727000D01*
X120478524Y-101956890D01*
X120648355Y-102366924D01*
X121038642Y-102795183D01*
X121181553Y-102862298D01*
X120840853Y-103089946D01*
X120518946Y-103571715D01*
X120405907Y-104140000D01*
X120490240Y-104563971D01*
X120215308Y-104838904D01*
X120215308Y-101770480D01*
X120569772Y-101416016D01*
X120599845Y-101473000D01*
X120599845Y-101473000D01*
G37*
X120599845Y-101473000D02*
X121793000Y-101473000D01*
X121793000Y-101453000D01*
X122047000Y-101453000D01*
X122047000Y-101473000D01*
X124333000Y-101473000D01*
X124333000Y-101453000D01*
X124587000Y-101453000D01*
X124587000Y-101473000D01*
X124607000Y-101473000D01*
X124607000Y-101727000D01*
X124587000Y-101727000D01*
X124587000Y-101747000D01*
X124333000Y-101747000D01*
X124333000Y-101727000D01*
X122047000Y-101727000D01*
X122047000Y-101747000D01*
X121793000Y-101747000D01*
X121793000Y-101727000D01*
X120599845Y-101727000D01*
X120478524Y-101956890D01*
X120648355Y-102366924D01*
X121038642Y-102795183D01*
X121181553Y-102862298D01*
X120840853Y-103089946D01*
X120518946Y-103571715D01*
X120405907Y-104140000D01*
X120490240Y-104563971D01*
X120215308Y-104838904D01*
X120215308Y-101770480D01*
X120569772Y-101416016D01*
X120599845Y-101473000D01*
G36*
X113157000Y-101473000D02*
X113177000Y-101473000D01*
X113177000Y-101727000D01*
X113157000Y-101727000D01*
X113157000Y-101747000D01*
X112903000Y-101747000D01*
X112903000Y-101727000D01*
X112883000Y-101727000D01*
X112883000Y-101473000D01*
X112903000Y-101473000D01*
X112903000Y-101453000D01*
X113157000Y-101453000D01*
X113157000Y-101473000D01*
X113157000Y-101473000D01*
G37*
X113157000Y-101473000D02*
X113177000Y-101473000D01*
X113177000Y-101727000D01*
X113157000Y-101727000D01*
X113157000Y-101747000D01*
X112903000Y-101747000D01*
X112903000Y-101727000D01*
X112883000Y-101727000D01*
X112883000Y-101473000D01*
X112903000Y-101473000D01*
X112903000Y-101453000D01*
X113157000Y-101453000D01*
X113157000Y-101473000D01*
G36*
X120518946Y-79308285D02*
X120840853Y-79790054D01*
X121181553Y-80017702D01*
X121038642Y-80084817D01*
X120648355Y-80513076D01*
X120478524Y-80923110D01*
X120599845Y-81153000D01*
X121793000Y-81153000D01*
X121793000Y-81133000D01*
X122047000Y-81133000D01*
X122047000Y-81153000D01*
X124333000Y-81153000D01*
X124333000Y-81133000D01*
X124587000Y-81133000D01*
X124587000Y-81153000D01*
X125780155Y-81153000D01*
X125901476Y-80923110D01*
X125731645Y-80513076D01*
X125341358Y-80084817D01*
X125198447Y-80017702D01*
X125539147Y-79790054D01*
X125861054Y-79308285D01*
X125948831Y-78867000D01*
X126238000Y-78867000D01*
X126238000Y-90246567D01*
X125700302Y-89708869D01*
X125861054Y-89468285D01*
X125974093Y-88900000D01*
X125861054Y-88331715D01*
X125539147Y-87849946D01*
X125209974Y-87630000D01*
X125539147Y-87410054D01*
X125861054Y-86928285D01*
X125974093Y-86360000D01*
X125861054Y-85791715D01*
X125539147Y-85309946D01*
X125209974Y-85090000D01*
X125539147Y-84870054D01*
X125861054Y-84388285D01*
X125974093Y-83820000D01*
X125861054Y-83251715D01*
X125539147Y-82769946D01*
X125198447Y-82542298D01*
X125341358Y-82475183D01*
X125731645Y-82046924D01*
X125901476Y-81636890D01*
X125780155Y-81407000D01*
X124587000Y-81407000D01*
X124587000Y-81427000D01*
X124333000Y-81427000D01*
X124333000Y-81407000D01*
X122047000Y-81407000D01*
X122047000Y-81427000D01*
X121793000Y-81427000D01*
X121793000Y-81407000D01*
X120599845Y-81407000D01*
X120478524Y-81636890D01*
X120648355Y-82046924D01*
X121038642Y-82475183D01*
X121181553Y-82542298D01*
X120840853Y-82769946D01*
X120518946Y-83251715D01*
X120405907Y-83820000D01*
X120518946Y-84388285D01*
X120840853Y-84870054D01*
X121170026Y-85090000D01*
X120840853Y-85309946D01*
X120518946Y-85791715D01*
X120405907Y-86360000D01*
X120518946Y-86928285D01*
X120840853Y-87410054D01*
X121170026Y-87630000D01*
X120840853Y-87849946D01*
X120518946Y-88331715D01*
X120462377Y-88616108D01*
X120243374Y-88397106D01*
X120012645Y-88242937D01*
X119906195Y-88221763D01*
X119859090Y-88148559D01*
X119646890Y-88003569D01*
X119395000Y-87952560D01*
X118995000Y-87952560D01*
X118759683Y-87996838D01*
X118748021Y-88004342D01*
X118746890Y-88003569D01*
X118495000Y-87952560D01*
X118095000Y-87952560D01*
X117859683Y-87996838D01*
X117643559Y-88135910D01*
X117607421Y-88188800D01*
X116875561Y-88188800D01*
X116649147Y-87849946D01*
X116319974Y-87630000D01*
X116649147Y-87410054D01*
X116971054Y-86928285D01*
X117084093Y-86360000D01*
X116971054Y-85791715D01*
X116649147Y-85309946D01*
X116319974Y-85090000D01*
X116649147Y-84870054D01*
X116971054Y-84388285D01*
X117084093Y-83820000D01*
X116971054Y-83251715D01*
X116649147Y-82769946D01*
X116308447Y-82542298D01*
X116451358Y-82475183D01*
X116841645Y-82046924D01*
X117011476Y-81636890D01*
X116890155Y-81407000D01*
X115697000Y-81407000D01*
X115697000Y-81427000D01*
X115443000Y-81427000D01*
X115443000Y-81407000D01*
X113157000Y-81407000D01*
X113157000Y-81427000D01*
X112903000Y-81427000D01*
X112903000Y-81407000D01*
X111709845Y-81407000D01*
X111679772Y-81463984D01*
X110925672Y-80709884D01*
X111676840Y-80709884D01*
X111588524Y-80923110D01*
X111709845Y-81153000D01*
X112903000Y-81153000D01*
X112903000Y-81133000D01*
X113157000Y-81133000D01*
X113157000Y-81153000D01*
X115443000Y-81153000D01*
X115443000Y-81133000D01*
X115697000Y-81133000D01*
X115697000Y-81153000D01*
X116890155Y-81153000D01*
X117011476Y-80923110D01*
X116841645Y-80513076D01*
X116451358Y-80084817D01*
X116308447Y-80017702D01*
X116649147Y-79790054D01*
X116971054Y-79308285D01*
X117058831Y-78867000D01*
X120431169Y-78867000D01*
X120518946Y-79308285D01*
X120518946Y-79308285D01*
G37*
X120518946Y-79308285D02*
X120840853Y-79790054D01*
X121181553Y-80017702D01*
X121038642Y-80084817D01*
X120648355Y-80513076D01*
X120478524Y-80923110D01*
X120599845Y-81153000D01*
X121793000Y-81153000D01*
X121793000Y-81133000D01*
X122047000Y-81133000D01*
X122047000Y-81153000D01*
X124333000Y-81153000D01*
X124333000Y-81133000D01*
X124587000Y-81133000D01*
X124587000Y-81153000D01*
X125780155Y-81153000D01*
X125901476Y-80923110D01*
X125731645Y-80513076D01*
X125341358Y-80084817D01*
X125198447Y-80017702D01*
X125539147Y-79790054D01*
X125861054Y-79308285D01*
X125948831Y-78867000D01*
X126238000Y-78867000D01*
X126238000Y-90246567D01*
X125700302Y-89708869D01*
X125861054Y-89468285D01*
X125974093Y-88900000D01*
X125861054Y-88331715D01*
X125539147Y-87849946D01*
X125209974Y-87630000D01*
X125539147Y-87410054D01*
X125861054Y-86928285D01*
X125974093Y-86360000D01*
X125861054Y-85791715D01*
X125539147Y-85309946D01*
X125209974Y-85090000D01*
X125539147Y-84870054D01*
X125861054Y-84388285D01*
X125974093Y-83820000D01*
X125861054Y-83251715D01*
X125539147Y-82769946D01*
X125198447Y-82542298D01*
X125341358Y-82475183D01*
X125731645Y-82046924D01*
X125901476Y-81636890D01*
X125780155Y-81407000D01*
X124587000Y-81407000D01*
X124587000Y-81427000D01*
X124333000Y-81427000D01*
X124333000Y-81407000D01*
X122047000Y-81407000D01*
X122047000Y-81427000D01*
X121793000Y-81427000D01*
X121793000Y-81407000D01*
X120599845Y-81407000D01*
X120478524Y-81636890D01*
X120648355Y-82046924D01*
X121038642Y-82475183D01*
X121181553Y-82542298D01*
X120840853Y-82769946D01*
X120518946Y-83251715D01*
X120405907Y-83820000D01*
X120518946Y-84388285D01*
X120840853Y-84870054D01*
X121170026Y-85090000D01*
X120840853Y-85309946D01*
X120518946Y-85791715D01*
X120405907Y-86360000D01*
X120518946Y-86928285D01*
X120840853Y-87410054D01*
X121170026Y-87630000D01*
X120840853Y-87849946D01*
X120518946Y-88331715D01*
X120462377Y-88616108D01*
X120243374Y-88397106D01*
X120012645Y-88242937D01*
X119906195Y-88221763D01*
X119859090Y-88148559D01*
X119646890Y-88003569D01*
X119395000Y-87952560D01*
X118995000Y-87952560D01*
X118759683Y-87996838D01*
X118748021Y-88004342D01*
X118746890Y-88003569D01*
X118495000Y-87952560D01*
X118095000Y-87952560D01*
X117859683Y-87996838D01*
X117643559Y-88135910D01*
X117607421Y-88188800D01*
X116875561Y-88188800D01*
X116649147Y-87849946D01*
X116319974Y-87630000D01*
X116649147Y-87410054D01*
X116971054Y-86928285D01*
X117084093Y-86360000D01*
X116971054Y-85791715D01*
X116649147Y-85309946D01*
X116319974Y-85090000D01*
X116649147Y-84870054D01*
X116971054Y-84388285D01*
X117084093Y-83820000D01*
X116971054Y-83251715D01*
X116649147Y-82769946D01*
X116308447Y-82542298D01*
X116451358Y-82475183D01*
X116841645Y-82046924D01*
X117011476Y-81636890D01*
X116890155Y-81407000D01*
X115697000Y-81407000D01*
X115697000Y-81427000D01*
X115443000Y-81427000D01*
X115443000Y-81407000D01*
X113157000Y-81407000D01*
X113157000Y-81427000D01*
X112903000Y-81427000D01*
X112903000Y-81407000D01*
X111709845Y-81407000D01*
X111679772Y-81463984D01*
X110925672Y-80709884D01*
X111676840Y-80709884D01*
X111588524Y-80923110D01*
X111709845Y-81153000D01*
X112903000Y-81153000D01*
X112903000Y-81133000D01*
X113157000Y-81133000D01*
X113157000Y-81153000D01*
X115443000Y-81153000D01*
X115443000Y-81133000D01*
X115697000Y-81133000D01*
X115697000Y-81153000D01*
X116890155Y-81153000D01*
X117011476Y-80923110D01*
X116841645Y-80513076D01*
X116451358Y-80084817D01*
X116308447Y-80017702D01*
X116649147Y-79790054D01*
X116971054Y-79308285D01*
X117058831Y-78867000D01*
X120431169Y-78867000D01*
X120518946Y-79308285D01*
M02*
