M48
;DRILL file {KiCad 4.0.5+dfsg1-4} date Sat Apr 15 00:30:16 2017
;FORMAT={-:-/ absolute / inch / decimal}
FMAT,2
INCH,TZ
T1C0.013
T2C0.020
T3C0.039
%
G90
G05
M72
T1
X2.21Y-2.4
X2.2379Y-2.4251
X2.2743Y-2.4161
X2.2842Y-2.3102
X2.3095Y-2.4013
X2.3237Y-4.8246
X2.3411Y-2.3683
X2.3414Y-3.3007
X2.3417Y-3.401
X2.3453Y-3.5018
X2.346Y-2.3287
X2.3734Y-4.7744
X2.4092Y-3.0171
X2.4177Y-2.3574
X2.4233Y-4.8249
X2.4612Y-2.1917
X2.4741Y-2.1538
X2.4753Y-4.7739
X2.5218Y-2.1141
X2.5243Y-4.8258
X2.53Y-2.1461
X2.64Y-3.74
X2.66Y-2.65
X2.69Y-2.46
X2.6979Y-2.9694
X2.71Y-3.12
X2.7145Y-3.7401
X2.72Y-3.29
X2.7401Y-3.2119
X2.7448Y-2.75
X2.7781Y-2.6057
X2.8263Y-2.4564
X2.875Y-3.825
X2.9169Y-2.372
X2.92Y-2.417
X2.9348Y-2.85
X2.9378Y-2.6345
X2.94Y-2.93
X2.95Y-3.675
X2.9521Y-2.4501
X2.9715Y-2.6886
X3.Y-3.7
X3.02Y-3.56
X3.0249Y-4.251
X3.025Y-4.284
X3.025Y-4.325
X3.025Y-4.358
X3.025Y-4.4
X3.0257Y-4.218
X3.0262Y-3.9477
X3.0264Y-3.8755
X3.029Y-4.1101
X3.0297Y-4.0539
X3.0298Y-4.143
X3.0372Y-4.1814
X3.0442Y-3.9096
X3.0453Y-3.9803
X3.0458Y-4.0205
X3.05Y-3.825
X3.0679Y-3.5821
X3.0816Y-4.3865
X3.087Y-4.8518
X3.0912Y-2.4205
X3.0999Y-2.5159
X3.1047Y-2.4677
X3.11Y-2.32
X3.131Y-2.5499
X3.1322Y-4.7897
X3.1392Y-2.3743
X3.16Y-4.73
X3.175Y-4.775
X3.1757Y-2.6
X3.1877Y-2.66
X3.1954Y-2.3714
X3.2Y-4.475
X3.2309Y-2.4832
X3.234Y-2.4066
X3.2412Y-2.53
X3.2601Y-2.4444
X3.275Y-4.725
X3.3141Y-2.5824
X3.3183Y-2.6276
X3.3203Y-2.6942
X3.33Y-4.92
X3.3515Y-4.3238
X3.375Y-4.75
X3.4638Y-4.4661
X3.475Y-4.775
X3.51Y-4.93
X3.5146Y-4.4673
X3.57Y-4.9195
X3.5932Y-4.4666
X3.6Y-4.725
X3.6025Y-2.1297
X3.6197Y-2.4491
X3.62Y-2.72
X3.63Y-2.78
X3.66Y-2.75
X3.6833Y-2.52
X3.6907Y-2.1474
X3.6965Y-4.7543
X3.76Y-4.9075
X3.775Y-4.7
X3.7907Y-3.3858
X3.7956Y-4.8304
X3.8374Y-3.3517
X3.875Y-4.725
X3.875Y-4.775
X3.925Y-4.675
X3.925Y-4.725
X3.975Y-4.625
X3.982Y-4.6753
X4.025Y-4.575
X4.025Y-4.6233
X4.05Y-2.25
X4.1586Y-2.2283
X4.262Y-2.2398
X4.2926Y-2.286
X4.301Y-3.69
X4.3053Y-3.0415
X4.3131Y-3.35
X4.3198Y-3.2328
X4.32Y-4.4
X4.33Y-2.3085
X4.3362Y-3.1266
X4.3376Y-3.9334
X4.34Y-4.0683
X4.3454Y-3.3431
X4.3489Y-3.9008
X4.349Y-2.6175
X4.35Y-4.3
X4.3501Y-2.9163
X4.3501Y-2.78
X4.3501Y-3.79
X4.3516Y-3.2536
X4.352Y-3.5872
X4.3526Y-2.5257
X4.3539Y-3.01
X4.3562Y-2.6775
X4.36Y-2.33
X4.3631Y-3.871
X4.3946Y-3.9387
X4.4Y-2.55
X4.5Y-4.5501
X4.5499Y-4.5492
X4.55Y-4.6
X4.5998Y-4.6518
X4.6003Y-4.6005
X4.6498Y-4.6495
X4.6498Y-4.6994
X4.7Y-4.7
T2
X2.675Y-4.15
X2.6858Y-3.9541
X2.7041Y-2.62
X2.75Y-2.325
X2.7634Y-2.4466
X2.77Y-2.8
X2.8Y-3.275
X2.843Y-2.1833
X2.85Y-3.225
X2.85Y-3.275
X2.8536Y-2.5377
X2.8541Y-2.8002
X2.8562Y-4.4869
X2.8644Y-2.37
X2.875Y-4.55
X2.9Y-3.175
X2.9Y-3.225
X2.9Y-3.275
X2.925Y-2.125
X2.95Y-3.175
X2.95Y-3.225
X2.95Y-3.275
X3.Y-2.86
X3.Y-3.175
X3.Y-3.225
X3.Y-3.275
X3.0461Y-2.1313
X3.075Y-4.725
X3.1039Y-2.2593
X3.1352Y-2.7113
X3.14Y-3.175
X3.14Y-3.225
X3.14Y-3.275
X3.1411Y-2.8631
X3.175Y-3.725
X3.2123Y-4.715
X3.321Y-4.7056
X3.325Y-3.475
X3.35Y-3.725
X3.3611Y-4.478
X3.4Y-3.15
X3.4Y-3.2
X3.4Y-3.25
X3.426Y-4.725
X3.45Y-3.15
X3.45Y-3.2
X3.45Y-3.25
X3.5Y-3.15
X3.5Y-3.2
X3.5Y-3.25
X3.538Y-3.4628
X3.55Y-3.15
X3.55Y-3.2
X3.55Y-3.25
X3.5719Y-3.7534
X3.6Y-3.15
X3.6Y-3.2
X3.6Y-3.25
X3.6373Y-4.7593
X3.65Y-3.15
X3.65Y-3.2
X3.65Y-3.25
X3.6744Y-3.4986
X3.7Y-3.15
X3.7Y-3.2
X3.73Y-3.8
X3.75Y-3.15
X3.7572Y-4.1128
X3.7685Y-4.0462
X3.875Y-2.15
X3.9281Y-4.3625
X3.96Y-2.45
X3.96Y-2.498
X3.96Y-2.55
X3.9672Y-4.173
X4.88Y-4.89
T3
X2.125Y-2.5
X2.125Y-2.6
X2.125Y-2.7
X2.125Y-2.8
X2.125Y-2.9
X2.125Y-3.
X2.125Y-3.1
X2.125Y-3.2
X2.125Y-3.3
X2.125Y-3.4
X2.125Y-3.5
X2.125Y-3.6
X2.125Y-3.7
X2.125Y-3.8
X2.125Y-3.9
X2.125Y-4.
X2.125Y-4.1
X2.125Y-4.2
X2.125Y-4.3
X2.125Y-4.4
X2.225Y-2.5
X2.225Y-2.6
X2.225Y-2.7
X2.225Y-2.8
X2.225Y-2.9
X2.225Y-3.
X2.225Y-3.1
X2.225Y-3.2
X2.225Y-3.3
X2.225Y-3.4
X2.225Y-3.5
X2.225Y-3.6
X2.225Y-3.7
X2.225Y-3.8
X2.225Y-3.9
X2.225Y-4.
X2.225Y-4.1
X2.225Y-4.2
X2.225Y-4.3
X2.225Y-4.4
X2.475Y-2.5
X2.475Y-2.6
X2.475Y-2.7
X2.475Y-2.8
X2.475Y-2.9
X2.475Y-3.
X2.475Y-3.1
X2.475Y-3.2
X2.475Y-3.3
X2.475Y-3.4
X2.475Y-3.5
X2.475Y-3.6
X2.475Y-3.7
X2.475Y-3.8
X2.475Y-3.9
X2.475Y-4.
X2.475Y-4.1
X2.475Y-4.2
X2.475Y-4.3
X2.475Y-4.4
X2.575Y-2.5
X2.575Y-2.6
X2.575Y-2.7
X2.575Y-2.8
X2.575Y-2.9
X2.575Y-3.
X2.575Y-3.1
X2.575Y-3.2
X2.575Y-3.3
X2.575Y-3.4
X2.575Y-3.5
X2.575Y-3.6
X2.575Y-3.7
X2.575Y-3.8
X2.575Y-3.9
X2.575Y-4.
X2.575Y-4.1
X2.575Y-4.2
X2.575Y-4.3
X2.575Y-4.4
X4.1Y-2.4
X4.1Y-2.5
X4.1Y-2.6
X4.1Y-2.7
X4.1Y-2.8
X4.1Y-2.9
X4.1Y-3.
X4.1Y-3.1
X4.1Y-3.2
X4.1Y-3.3
X4.1Y-3.4
X4.1Y-3.5
X4.1Y-3.6
X4.1Y-3.7
X4.1Y-3.8
X4.1Y-3.9
X4.1Y-4.
X4.1Y-4.1
X4.1Y-4.2
X4.1Y-4.3
X4.1Y-4.4
X4.1Y-4.5
X4.2Y-2.4
X4.2Y-2.5
X4.2Y-2.6
X4.2Y-2.7
X4.2Y-2.8
X4.2Y-2.9
X4.2Y-3.
X4.2Y-3.1
X4.2Y-3.2
X4.2Y-3.3
X4.2Y-3.4
X4.2Y-3.5
X4.2Y-3.6
X4.2Y-3.7
X4.2Y-3.8
X4.2Y-3.9
X4.2Y-4.
X4.2Y-4.1
X4.2Y-4.2
X4.2Y-4.3
X4.2Y-4.4
X4.2Y-4.5
X4.45Y-2.5
X4.45Y-2.6
X4.45Y-2.7
X4.45Y-2.8
X4.45Y-2.9
X4.45Y-3.
X4.45Y-3.1
X4.45Y-3.2
X4.45Y-3.3
X4.45Y-3.4
X4.45Y-3.5
X4.45Y-3.6
X4.45Y-3.7
X4.45Y-3.8
X4.45Y-3.9
X4.45Y-4.
X4.45Y-4.1
X4.45Y-4.2
X4.45Y-4.3
X4.45Y-4.4
X4.55Y-2.5
X4.55Y-2.6
X4.55Y-2.7
X4.55Y-2.8
X4.55Y-2.9
X4.55Y-3.
X4.55Y-3.1
X4.55Y-3.2
X4.55Y-3.3
X4.55Y-3.4
X4.55Y-3.5
X4.55Y-3.6
X4.55Y-3.7
X4.55Y-3.8
X4.55Y-3.9
X4.55Y-4.
X4.55Y-4.1
X4.55Y-4.2
X4.55Y-4.3
X4.55Y-4.4
X4.8Y-2.5
X4.8Y-2.6
X4.8Y-2.7
X4.8Y-2.8
X4.8Y-2.9
X4.8Y-3.
X4.8Y-3.1
X4.8Y-3.2
X4.8Y-3.3
X4.8Y-3.4
X4.8Y-3.5
X4.8Y-3.6
X4.8Y-3.7
X4.8Y-3.8
X4.8Y-3.9
X4.8Y-4.
X4.8Y-4.1
X4.8Y-4.2
X4.8Y-4.3
X4.8Y-4.4
X4.9Y-2.5
X4.9Y-2.6
X4.9Y-2.7
X4.9Y-2.8
X4.9Y-2.9
X4.9Y-3.
X4.9Y-3.1
X4.9Y-3.2
X4.9Y-3.3
X4.9Y-3.4
X4.9Y-3.5
X4.9Y-3.6
X4.9Y-3.7
X4.9Y-3.8
X4.9Y-3.9
X4.9Y-4.
X4.9Y-4.1
X4.9Y-4.2
X4.9Y-4.3
X4.9Y-4.4
T0
M30
